<ttFont>
    <TTGlyph name="A" xMin="-120" yMin="-2" xMax="581" yMax="687">
      <contour>
        <pt x="438" y="1" on="1"/>
        <pt x="310" y="-2" on="1"/>
        <pt x="302" y="-2" on="0"/>
        <pt x="302" y="7" on="1"/>
        <pt x="302" y="32" on="0"/>
        <pt x="317" y="32" on="1"/>
        <pt x="372" y="32" on="1"/>
        <pt x="397" y="32" on="0"/>
        <pt x="397" y="57" on="1"/>
        <pt x="397" y="79" on="0"/>
        <pt x="369" y="260" on="0"/>
        <pt x="364" y="299" on="1"/>
        <pt x="337" y="300" on="0"/>
        <pt x="255" y="300" on="0"/>
        <pt x="202" y="297" on="1"/>
        <pt x="114" y="149" on="0"/>
        <pt x="65" y="48" on="1"/>
        <pt x="59" y="33" on="0"/>
        <pt x="71" y="33" on="1"/>
        <pt x="138" y="33" on="1"/>
        <pt x="145" y="33" on="0"/>
        <pt x="145" y="0" on="0"/>
        <pt x="129" y="0" on="1"/>
        <pt x="-1" y="1" on="1"/>
        <pt x="-112" y="-2" on="1"/>
        <pt x="-120" y="-2" on="0"/>
        <pt x="-120" y="8" on="1"/>
        <pt x="-120" y="32" on="0"/>
        <pt x="-105" y="32" on="1"/>
        <pt x="-58" y="32" on="1"/>
        <pt x="-35" y="32" on="0"/>
        <pt x="-20" y="54" on="1"/>
        <pt x="6" y="93" on="0"/>
        <pt x="74" y="190" on="1"/>
        <pt x="207" y="378" on="0"/>
        <pt x="302" y="545" on="1"/>
        <pt x="341" y="612" on="0"/>
        <pt x="429" y="687" on="0"/>
        <pt x="467" y="687" on="1"/>
        <pt x="495" y="687" on="0"/>
        <pt x="495" y="659" on="1"/>
        <pt x="463" y="649" on="0"/>
        <pt x="435" y="618" on="0"/>
        <pt x="435" y="593" on="1"/>
        <pt x="435" y="402" on="0"/>
        <pt x="501" y="33" on="0"/>
        <pt x="541" y="33" on="1"/>
        <pt x="573" y="33" on="1"/>
        <pt x="581" y="33" on="0"/>
        <pt x="581" y="0" on="0"/>
        <pt x="568" y="0" on="1"/>
      </contour>
      <contour>
        <pt x="226" y="337" on="1"/>
        <pt x="283" y="336" on="0"/>
        <pt x="343" y="336" on="0"/>
        <pt x="359" y="336" on="1"/>
        <pt x="342" y="460" on="0"/>
        <pt x="342" y="523" on="1"/>
        <pt x="338" y="523" on="1"/>
        <pt x="319" y="490" on="0"/>
      </contour>
    </TTGlyph>
    <TTGlyph name="AE" xMin="-190" yMin="-29" xMax="915" yMax="701">
      <contour>
        <pt x="469" y="673" on="1"/>
        <pt x="593" y="671" on="1"/>
        <pt x="880" y="671" on="1"/>
        <pt x="886" y="692" on="1"/>
        <pt x="888" y="701" on="0"/>
        <pt x="915" y="701" on="0"/>
        <pt x="915" y="693" on="1"/>
        <pt x="915" y="690" on="0"/>
        <pt x="908" y="663" on="1"/>
        <pt x="889" y="582" on="0"/>
        <pt x="889" y="540" on="1"/>
        <pt x="889" y="532" on="0"/>
        <pt x="858" y="532" on="0"/>
        <pt x="857" y="541" on="1"/>
        <pt x="857" y="601" on="0"/>
        <pt x="836" y="613" on="1"/>
        <pt x="789" y="633" on="0"/>
        <pt x="671" y="634" on="1"/>
        <pt x="653" y="634" on="0"/>
        <pt x="633" y="613" on="0"/>
        <pt x="628" y="588" on="1"/>
        <pt x="573" y="352" on="1"/>
        <pt x="636" y="353" on="0"/>
        <pt x="756" y="363" on="0"/>
        <pt x="761" y="366" on="1"/>
        <pt x="785" y="425" on="1"/>
        <pt x="789" y="432" on="0"/>
        <pt x="816" y="432" on="0"/>
        <pt x="816" y="425" on="1"/>
        <pt x="816" y="424" on="0"/>
        <pt x="812" y="412" on="1"/>
        <pt x="783" y="320" on="0"/>
        <pt x="776" y="247" on="1"/>
        <pt x="774" y="239" on="0"/>
        <pt x="745" y="239" on="0"/>
        <pt x="745" y="244" on="1"/>
        <pt x="746" y="305" on="1"/>
        <pt x="726" y="316" on="0"/>
        <pt x="567" y="320" on="1"/>
        <pt x="512" y="102" on="0"/>
        <pt x="512" y="59" on="1"/>
        <pt x="512" y="40" on="0"/>
        <pt x="524" y="40" on="1"/>
        <pt x="573" y="40" on="1"/>
        <pt x="640" y="40" on="0"/>
        <pt x="763" y="63" on="0"/>
        <pt x="795" y="82" on="1"/>
        <pt x="815" y="137" on="1"/>
        <pt x="818" y="145" on="0"/>
        <pt x="848" y="145" on="0"/>
        <pt x="848" y="139" on="1"/>
        <pt x="848" y="137" on="0"/>
        <pt x="842" y="116" on="1"/>
        <pt x="813" y="26" on="0"/>
        <pt x="803" y="-22" on="1"/>
        <pt x="802" y="-29" on="0"/>
        <pt x="772" y="-29" on="0"/>
        <pt x="772" y="-23" on="1"/>
        <pt x="778" y="0" on="1"/>
        <pt x="531" y="0" on="1"/>
        <pt x="308" y="-2" on="1"/>
        <pt x="302" y="-2" on="0"/>
        <pt x="302" y="7" on="1"/>
        <pt x="302" y="32" on="0"/>
        <pt x="316" y="32" on="1"/>
        <pt x="359" y="32" on="1"/>
        <pt x="384" y="32" on="0"/>
        <pt x="404" y="51" on="0"/>
        <pt x="410" y="78" on="1"/>
        <pt x="466" y="320" on="1"/>
        <pt x="327" y="320" on="0"/>
        <pt x="271" y="316" on="1"/>
        <pt x="221" y="263" on="0"/>
        <pt x="75" y="124" on="0"/>
        <pt x="0" y="48" on="0"/>
        <pt x="0" y="37" on="1"/>
        <pt x="0" y="33" on="0"/>
        <pt x="8" y="33" on="1"/>
        <pt x="67" y="33" on="1"/>
        <pt x="75" y="33" on="0"/>
        <pt x="76" y="13" on="0"/>
        <pt x="67" y="0" on="0"/>
        <pt x="60" y="0" on="1"/>
        <pt x="-59" y="1" on="1"/>
        <pt x="-181" y="-2" on="1"/>
        <pt x="-190" y="-2" on="0"/>
        <pt x="-190" y="8" on="1"/>
        <pt x="-190" y="11" on="0"/>
        <pt x="-190" y="13" on="1"/>
        <pt x="-190" y="32" on="0"/>
        <pt x="-176" y="32" on="1"/>
        <pt x="-103" y="32" on="0"/>
        <pt x="-78" y="54" on="1"/>
        <pt x="17" y="137" on="0"/>
        <pt x="433" y="537" on="0"/>
        <pt x="530" y="620" on="1"/>
        <pt x="531" y="622" on="0"/>
        <pt x="529" y="640" on="0"/>
        <pt x="519" y="640" on="1"/>
        <pt x="461" y="640" on="1"/>
        <pt x="456" y="640" on="0"/>
        <pt x="456" y="649" on="1"/>
        <pt x="456" y="673" on="0"/>
      </contour>
      <contour>
        <pt x="518" y="546" on="1"/>
        <pt x="418" y="459" on="0"/>
        <pt x="314" y="358" on="1"/>
        <pt x="392" y="352" on="0"/>
        <pt x="473" y="352" on="1"/>
      </contour>
    </TTGlyph>
    <TTGlyph name="Aacute" xMin="-120" yMin="-2" xMax="581" yMax="867">
      <contour>
        <pt x="489" y="779" on="0"/>
        <pt x="390" y="718" on="0"/>
        <pt x="360" y="695" on="0"/>
        <pt x="341" y="695" on="0"/>
        <pt x="339" y="704" on="1"/>
        <pt x="339" y="708" on="0"/>
        <pt x="367" y="737" on="0"/>
        <pt x="427" y="825" on="0"/>
        <pt x="470" y="867" on="0"/>
        <pt x="492" y="867" on="1"/>
        <pt x="532" y="867" on="0"/>
        <pt x="532" y="832" on="1"/>
        <pt x="532" y="815" on="0"/>
      </contour>
      <contour>
        <pt x="438" y="1" on="1"/>
        <pt x="310" y="-2" on="1"/>
        <pt x="302" y="-2" on="0"/>
        <pt x="302" y="7" on="1"/>
        <pt x="302" y="32" on="0"/>
        <pt x="317" y="32" on="1"/>
        <pt x="372" y="32" on="1"/>
        <pt x="397" y="32" on="0"/>
        <pt x="397" y="57" on="1"/>
        <pt x="397" y="79" on="0"/>
        <pt x="369" y="260" on="0"/>
        <pt x="364" y="299" on="1"/>
        <pt x="337" y="300" on="0"/>
        <pt x="255" y="300" on="0"/>
        <pt x="202" y="297" on="1"/>
        <pt x="114" y="149" on="0"/>
        <pt x="65" y="48" on="1"/>
        <pt x="59" y="33" on="0"/>
        <pt x="71" y="33" on="1"/>
        <pt x="138" y="33" on="1"/>
        <pt x="145" y="33" on="0"/>
        <pt x="145" y="0" on="0"/>
        <pt x="129" y="0" on="1"/>
        <pt x="-1" y="1" on="1"/>
        <pt x="-112" y="-2" on="1"/>
        <pt x="-120" y="-2" on="0"/>
        <pt x="-120" y="8" on="1"/>
        <pt x="-120" y="32" on="0"/>
        <pt x="-105" y="32" on="1"/>
        <pt x="-58" y="32" on="1"/>
        <pt x="-35" y="32" on="0"/>
        <pt x="-20" y="54" on="1"/>
        <pt x="6" y="93" on="0"/>
        <pt x="74" y="190" on="1"/>
        <pt x="207" y="378" on="0"/>
        <pt x="302" y="545" on="1"/>
        <pt x="341" y="612" on="0"/>
        <pt x="429" y="687" on="0"/>
        <pt x="467" y="687" on="1"/>
        <pt x="495" y="687" on="0"/>
        <pt x="495" y="659" on="1"/>
        <pt x="463" y="649" on="0"/>
        <pt x="435" y="618" on="0"/>
        <pt x="435" y="593" on="1"/>
        <pt x="435" y="402" on="0"/>
        <pt x="501" y="33" on="0"/>
        <pt x="541" y="33" on="1"/>
        <pt x="573" y="33" on="1"/>
        <pt x="581" y="33" on="0"/>
        <pt x="581" y="0" on="0"/>
        <pt x="568" y="0" on="1"/>
      </contour>
      <contour>
        <pt x="226" y="337" on="1"/>
        <pt x="283" y="336" on="0"/>
        <pt x="343" y="336" on="0"/>
        <pt x="359" y="336" on="1"/>
        <pt x="342" y="460" on="0"/>
        <pt x="342" y="523" on="1"/>
        <pt x="338" y="523" on="1"/>
        <pt x="319" y="490" on="0"/>
      </contour>
    </TTGlyph>
    <TTGlyph name="Acircumflex" xMin="-120" yMin="-2" xMax="581" yMax="853">
      <contour>
        <pt x="346" y="702" on="1"/>
        <pt x="337" y="694" on="0"/>
        <pt x="321" y="694" on="0"/>
        <pt x="319" y="702" on="1"/>
        <pt x="443" y="840" on="1"/>
        <pt x="456" y="853" on="0"/>
        <pt x="483" y="853" on="0"/>
        <pt x="493" y="840" on="1"/>
        <pt x="565" y="702" on="1"/>
        <pt x="560" y="695" on="0"/>
        <pt x="543" y="695" on="0"/>
        <pt x="537" y="702" on="1"/>
        <pt x="457" y="786" on="1"/>
      </contour>
      <contour>
        <pt x="438" y="1" on="1"/>
        <pt x="310" y="-2" on="1"/>
        <pt x="302" y="-2" on="0"/>
        <pt x="302" y="7" on="1"/>
        <pt x="302" y="32" on="0"/>
        <pt x="317" y="32" on="1"/>
        <pt x="372" y="32" on="1"/>
        <pt x="397" y="32" on="0"/>
        <pt x="397" y="57" on="1"/>
        <pt x="397" y="79" on="0"/>
        <pt x="369" y="260" on="0"/>
        <pt x="364" y="299" on="1"/>
        <pt x="337" y="300" on="0"/>
        <pt x="255" y="300" on="0"/>
        <pt x="202" y="297" on="1"/>
        <pt x="114" y="149" on="0"/>
        <pt x="65" y="48" on="1"/>
        <pt x="59" y="33" on="0"/>
        <pt x="71" y="33" on="1"/>
        <pt x="138" y="33" on="1"/>
        <pt x="145" y="33" on="0"/>
        <pt x="145" y="0" on="0"/>
        <pt x="129" y="0" on="1"/>
        <pt x="-1" y="1" on="1"/>
        <pt x="-112" y="-2" on="1"/>
        <pt x="-120" y="-2" on="0"/>
        <pt x="-120" y="8" on="1"/>
        <pt x="-120" y="32" on="0"/>
        <pt x="-105" y="32" on="1"/>
        <pt x="-58" y="32" on="1"/>
        <pt x="-35" y="32" on="0"/>
        <pt x="-20" y="54" on="1"/>
        <pt x="6" y="93" on="0"/>
        <pt x="74" y="190" on="1"/>
        <pt x="207" y="378" on="0"/>
        <pt x="302" y="545" on="1"/>
        <pt x="341" y="612" on="0"/>
        <pt x="429" y="687" on="0"/>
        <pt x="467" y="687" on="1"/>
        <pt x="495" y="687" on="0"/>
        <pt x="495" y="659" on="1"/>
        <pt x="463" y="649" on="0"/>
        <pt x="435" y="618" on="0"/>
        <pt x="435" y="593" on="1"/>
        <pt x="435" y="402" on="0"/>
        <pt x="501" y="33" on="0"/>
        <pt x="541" y="33" on="1"/>
        <pt x="573" y="33" on="1"/>
        <pt x="581" y="33" on="0"/>
        <pt x="581" y="0" on="0"/>
        <pt x="568" y="0" on="1"/>
      </contour>
      <contour>
        <pt x="226" y="337" on="1"/>
        <pt x="283" y="336" on="0"/>
        <pt x="343" y="336" on="0"/>
        <pt x="359" y="336" on="1"/>
        <pt x="342" y="460" on="0"/>
        <pt x="342" y="523" on="1"/>
        <pt x="338" y="523" on="1"/>
        <pt x="319" y="490" on="0"/>
      </contour>
    </TTGlyph>
    <TTGlyph name="Adieresis" xMin="-120" yMin="-2" xMax="581" yMax="809">
      <contour>
        <pt x="412" y="744" on="0"/>
        <pt x="384" y="715" on="0"/>
        <pt x="344" y="715" on="0"/>
        <pt x="318" y="743" on="0"/>
        <pt x="318" y="783" on="0"/>
        <pt x="346" y="809" on="0"/>
        <pt x="383" y="809" on="0"/>
        <pt x="412" y="782" on="0"/>
      </contour>
      <contour>
        <pt x="560" y="743" on="0"/>
        <pt x="534" y="715" on="0"/>
        <pt x="493" y="715" on="0"/>
        <pt x="466" y="744" on="0"/>
        <pt x="466" y="783" on="0"/>
        <pt x="494" y="809" on="0"/>
        <pt x="532" y="809" on="0"/>
        <pt x="560" y="783" on="0"/>
      </contour>
      <contour>
        <pt x="438" y="1" on="1"/>
        <pt x="310" y="-2" on="1"/>
        <pt x="302" y="-2" on="0"/>
        <pt x="302" y="7" on="1"/>
        <pt x="302" y="32" on="0"/>
        <pt x="317" y="32" on="1"/>
        <pt x="372" y="32" on="1"/>
        <pt x="397" y="32" on="0"/>
        <pt x="397" y="57" on="1"/>
        <pt x="397" y="79" on="0"/>
        <pt x="369" y="260" on="0"/>
        <pt x="364" y="299" on="1"/>
        <pt x="337" y="300" on="0"/>
        <pt x="255" y="300" on="0"/>
        <pt x="202" y="297" on="1"/>
        <pt x="114" y="149" on="0"/>
        <pt x="65" y="48" on="1"/>
        <pt x="59" y="33" on="0"/>
        <pt x="71" y="33" on="1"/>
        <pt x="138" y="33" on="1"/>
        <pt x="145" y="33" on="0"/>
        <pt x="145" y="0" on="0"/>
        <pt x="129" y="0" on="1"/>
        <pt x="129" y="0" on="0"/>
        <pt x="-1" y="1" on="1"/>
        <pt x="-112" y="-2" on="1"/>
        <pt x="-120" y="-2" on="0"/>
        <pt x="-120" y="8" on="1"/>
        <pt x="-120" y="32" on="0"/>
        <pt x="-105" y="32" on="1"/>
        <pt x="-58" y="32" on="1"/>
        <pt x="-35" y="32" on="0"/>
        <pt x="-20" y="54" on="1"/>
        <pt x="6" y="93" on="0"/>
        <pt x="74" y="190" on="1"/>
        <pt x="207" y="378" on="0"/>
        <pt x="302" y="545" on="1"/>
        <pt x="341" y="612" on="0"/>
        <pt x="429" y="687" on="0"/>
        <pt x="467" y="687" on="1"/>
        <pt x="495" y="687" on="0"/>
        <pt x="495" y="659" on="1"/>
        <pt x="463" y="649" on="0"/>
        <pt x="435" y="618" on="0"/>
        <pt x="435" y="593" on="1"/>
        <pt x="435" y="402" on="0"/>
        <pt x="501" y="33" on="0"/>
        <pt x="541" y="33" on="1"/>
        <pt x="573" y="33" on="1"/>
        <pt x="581" y="33" on="0"/>
        <pt x="581" y="0" on="0"/>
        <pt x="568" y="0" on="1"/>
      </contour>
      <contour>
        <pt x="226" y="337" on="1"/>
        <pt x="283" y="336" on="0"/>
        <pt x="343" y="336" on="0"/>
        <pt x="359" y="336" on="1"/>
        <pt x="342" y="460" on="0"/>
        <pt x="342" y="523" on="1"/>
        <pt x="338" y="523" on="1"/>
        <pt x="319" y="490" on="0"/>
      </contour>
    </TTGlyph>
    <TTGlyph name="Agrave" xMin="-120" yMin="-2" xMax="581" yMax="868">
      <contour>
        <pt x="403" y="780" on="0"/>
        <pt x="360" y="816" on="0"/>
        <pt x="360" y="849" on="0"/>
        <pt x="379" y="868" on="0"/>
        <pt x="422" y="868" on="0"/>
        <pt x="465" y="826" on="0"/>
        <pt x="525" y="738" on="0"/>
        <pt x="553" y="709" on="0"/>
        <pt x="553" y="705" on="1"/>
        <pt x="551" y="696" on="0"/>
        <pt x="532" y="696" on="0"/>
        <pt x="502" y="719" on="0"/>
      </contour>
      <contour>
        <pt x="438" y="1" on="1"/>
        <pt x="310" y="-2" on="1"/>
        <pt x="302" y="-2" on="0"/>
        <pt x="302" y="7" on="1"/>
        <pt x="302" y="32" on="0"/>
        <pt x="317" y="32" on="1"/>
        <pt x="372" y="32" on="1"/>
        <pt x="397" y="32" on="0"/>
        <pt x="397" y="57" on="1"/>
        <pt x="397" y="79" on="0"/>
        <pt x="369" y="260" on="0"/>
        <pt x="364" y="299" on="1"/>
        <pt x="337" y="300" on="0"/>
        <pt x="255" y="300" on="0"/>
        <pt x="202" y="297" on="1"/>
        <pt x="114" y="149" on="0"/>
        <pt x="65" y="48" on="1"/>
        <pt x="59" y="33" on="0"/>
        <pt x="71" y="33" on="1"/>
        <pt x="138" y="33" on="1"/>
        <pt x="145" y="33" on="0"/>
        <pt x="145" y="0" on="0"/>
        <pt x="129" y="0" on="1"/>
        <pt x="-1" y="1" on="1"/>
        <pt x="-1" y="1" on="0"/>
        <pt x="-112" y="-2" on="1"/>
        <pt x="-120" y="-2" on="0"/>
        <pt x="-120" y="8" on="1"/>
        <pt x="-120" y="32" on="0"/>
        <pt x="-105" y="32" on="1"/>
        <pt x="-58" y="32" on="1"/>
        <pt x="-35" y="32" on="0"/>
        <pt x="-20" y="54" on="1"/>
        <pt x="6" y="93" on="0"/>
        <pt x="74" y="190" on="1"/>
        <pt x="207" y="378" on="0"/>
        <pt x="302" y="545" on="1"/>
        <pt x="341" y="612" on="0"/>
        <pt x="429" y="687" on="0"/>
        <pt x="467" y="687" on="1"/>
        <pt x="495" y="687" on="0"/>
        <pt x="495" y="659" on="1"/>
        <pt x="463" y="649" on="0"/>
        <pt x="435" y="618" on="0"/>
        <pt x="435" y="593" on="1"/>
        <pt x="435" y="402" on="0"/>
        <pt x="501" y="33" on="0"/>
        <pt x="541" y="33" on="1"/>
        <pt x="573" y="33" on="1"/>
        <pt x="581" y="33" on="0"/>
        <pt x="581" y="0" on="0"/>
        <pt x="568" y="0" on="1"/>
      </contour>
      <contour>
        <pt x="226" y="337" on="1"/>
        <pt x="283" y="336" on="0"/>
        <pt x="343" y="336" on="0"/>
        <pt x="359" y="336" on="1"/>
        <pt x="342" y="460" on="0"/>
        <pt x="342" y="523" on="1"/>
        <pt x="338" y="523" on="1"/>
        <pt x="319" y="490" on="0"/>
      </contour>
    </TTGlyph>
    <TTGlyph name="Aring" xMin="-120" yMin="-2" xMax="581" yMax="868">
      <contour>
        <pt x="495" y="756" on="0"/>
        <pt x="448" y="710" on="0"/>
        <pt x="381" y="710" on="0"/>
        <pt x="332" y="757" on="0"/>
        <pt x="332" y="822" on="0"/>
        <pt x="380" y="868" on="0"/>
        <pt x="445" y="868" on="0"/>
        <pt x="495" y="823" on="0"/>
      </contour>
      <contour>
        <pt x="362" y="767" on="0"/>
        <pt x="393" y="735" on="0"/>
        <pt x="436" y="735" on="0"/>
        <pt x="466" y="768" on="0"/>
        <pt x="466" y="811" on="0"/>
        <pt x="435" y="844" on="0"/>
        <pt x="391" y="844" on="0"/>
        <pt x="362" y="811" on="0"/>
      </contour>
      <contour>
        <pt x="438" y="1" on="1"/>
        <pt x="310" y="-2" on="1"/>
        <pt x="302" y="-2" on="0"/>
        <pt x="302" y="7" on="1"/>
        <pt x="302" y="32" on="0"/>
        <pt x="317" y="32" on="1"/>
        <pt x="372" y="32" on="1"/>
        <pt x="397" y="32" on="0"/>
        <pt x="397" y="57" on="1"/>
        <pt x="397" y="79" on="0"/>
        <pt x="369" y="260" on="0"/>
        <pt x="364" y="299" on="1"/>
        <pt x="337" y="300" on="0"/>
        <pt x="255" y="300" on="0"/>
        <pt x="202" y="297" on="1"/>
        <pt x="114" y="149" on="0"/>
        <pt x="65" y="48" on="1"/>
        <pt x="59" y="33" on="0"/>
        <pt x="71" y="33" on="1"/>
        <pt x="138" y="33" on="1"/>
        <pt x="145" y="33" on="0"/>
        <pt x="145" y="0" on="0"/>
        <pt x="129" y="0" on="1"/>
        <pt x="129" y="0" on="0"/>
        <pt x="-1" y="1" on="1"/>
        <pt x="-112" y="-2" on="1"/>
        <pt x="-120" y="-2" on="0"/>
        <pt x="-120" y="8" on="1"/>
        <pt x="-120" y="32" on="0"/>
        <pt x="-105" y="32" on="1"/>
        <pt x="-58" y="32" on="1"/>
        <pt x="-35" y="32" on="0"/>
        <pt x="-20" y="54" on="1"/>
        <pt x="6" y="93" on="0"/>
        <pt x="74" y="190" on="1"/>
        <pt x="207" y="378" on="0"/>
        <pt x="302" y="545" on="1"/>
        <pt x="341" y="612" on="0"/>
        <pt x="429" y="687" on="0"/>
        <pt x="467" y="687" on="1"/>
        <pt x="495" y="687" on="0"/>
        <pt x="495" y="659" on="1"/>
        <pt x="463" y="649" on="0"/>
        <pt x="435" y="618" on="0"/>
        <pt x="435" y="593" on="1"/>
        <pt x="435" y="402" on="0"/>
        <pt x="501" y="33" on="0"/>
        <pt x="541" y="33" on="1"/>
        <pt x="573" y="33" on="1"/>
        <pt x="581" y="33" on="0"/>
        <pt x="581" y="0" on="0"/>
        <pt x="568" y="0" on="1"/>
      </contour>
      <contour>
        <pt x="226" y="337" on="1"/>
        <pt x="283" y="336" on="0"/>
        <pt x="343" y="336" on="0"/>
        <pt x="359" y="336" on="1"/>
        <pt x="342" y="460" on="0"/>
        <pt x="342" y="523" on="1"/>
        <pt x="338" y="523" on="1"/>
        <pt x="319" y="490" on="0"/>
      </contour>
    </TTGlyph>
    <TTGlyph name="Atilde" xMin="-120" yMin="-2" xMax="585" yMax="843">
      <contour>
        <pt x="563" y="837" on="1"/>
        <pt x="564" y="843" on="0"/>
        <pt x="585" y="843" on="0"/>
        <pt x="585" y="832" on="1"/>
        <pt x="585" y="830" on="0"/>
        <pt x="584" y="827" on="1"/>
        <pt x="558" y="730" on="0"/>
        <pt x="484" y="730" on="1"/>
        <pt x="466" y="730" on="0"/>
        <pt x="406" y="742" on="0"/>
        <pt x="388" y="742" on="1"/>
        <pt x="329" y="742" on="0"/>
        <pt x="307" y="700" on="1"/>
        <pt x="304" y="693" on="0"/>
        <pt x="296" y="693" on="1"/>
        <pt x="281" y="693" on="0"/>
        <pt x="285" y="710" on="1"/>
        <pt x="297" y="753" on="0"/>
        <pt x="358" y="804" on="0"/>
        <pt x="408" y="804" on="0"/>
        <pt x="467" y="792" on="0"/>
        <pt x="516" y="792" on="0"/>
        <pt x="550" y="807" on="0"/>
      </contour>
      <contour>
        <pt x="438" y="1" on="1"/>
        <pt x="310" y="-2" on="1"/>
        <pt x="302" y="-2" on="0"/>
        <pt x="302" y="7" on="1"/>
        <pt x="302" y="32" on="0"/>
        <pt x="317" y="32" on="1"/>
        <pt x="372" y="32" on="1"/>
        <pt x="397" y="32" on="0"/>
        <pt x="397" y="57" on="1"/>
        <pt x="397" y="79" on="0"/>
        <pt x="369" y="260" on="0"/>
        <pt x="364" y="299" on="1"/>
        <pt x="337" y="300" on="0"/>
        <pt x="255" y="300" on="0"/>
        <pt x="202" y="297" on="1"/>
        <pt x="114" y="149" on="0"/>
        <pt x="65" y="48" on="1"/>
        <pt x="59" y="33" on="0"/>
        <pt x="71" y="33" on="1"/>
        <pt x="138" y="33" on="1"/>
        <pt x="145" y="33" on="0"/>
        <pt x="145" y="0" on="0"/>
        <pt x="129" y="0" on="1"/>
        <pt x="-1" y="1" on="1"/>
        <pt x="-112" y="-2" on="1"/>
        <pt x="-120" y="-2" on="0"/>
        <pt x="-120" y="8" on="1"/>
        <pt x="-120" y="32" on="0"/>
        <pt x="-105" y="32" on="1"/>
        <pt x="-58" y="32" on="1"/>
        <pt x="-35" y="32" on="0"/>
        <pt x="-20" y="54" on="1"/>
        <pt x="6" y="93" on="0"/>
        <pt x="74" y="190" on="1"/>
        <pt x="207" y="378" on="0"/>
        <pt x="302" y="545" on="1"/>
        <pt x="341" y="612" on="0"/>
        <pt x="429" y="687" on="0"/>
        <pt x="467" y="687" on="1"/>
        <pt x="495" y="687" on="0"/>
        <pt x="495" y="659" on="1"/>
        <pt x="463" y="649" on="0"/>
        <pt x="435" y="618" on="0"/>
        <pt x="435" y="593" on="1"/>
        <pt x="435" y="402" on="0"/>
        <pt x="501" y="33" on="0"/>
        <pt x="541" y="33" on="1"/>
        <pt x="573" y="33" on="1"/>
        <pt x="581" y="33" on="0"/>
        <pt x="581" y="0" on="0"/>
        <pt x="568" y="0" on="1"/>
        <pt x="568" y="0" on="0"/>
      </contour>
      <contour>
        <pt x="226" y="337" on="1"/>
        <pt x="283" y="336" on="0"/>
        <pt x="343" y="336" on="0"/>
        <pt x="359" y="336" on="1"/>
        <pt x="342" y="460" on="0"/>
        <pt x="342" y="523" on="1"/>
        <pt x="338" y="523" on="1"/>
        <pt x="319" y="490" on="0"/>
      </contour>
    </TTGlyph>
    <TTGlyph name="B" xMin="-15" yMin="-14" xMax="617" yMax="671">
      <contour>
        <pt x="503" y="671" on="0"/>
        <pt x="617" y="584" on="0"/>
        <pt x="617" y="460" on="0"/>
        <pt x="519" y="356" on="0"/>
        <pt x="433" y="340" on="1"/>
        <pt x="500" y="318" on="0"/>
        <pt x="579" y="244" on="0"/>
        <pt x="579" y="133" on="0"/>
        <pt x="485" y="32" on="0"/>
        <pt x="368" y="-14" on="0"/>
        <pt x="266" y="-14" on="0"/>
        <pt x="105" y="15" on="0"/>
        <pt x="25" y="15" on="0"/>
        <pt x="-15" y="4" on="1"/>
        <pt x="-15" y="7" on="0"/>
        <pt x="-13" y="18" on="0"/>
        <pt x="13" y="40" on="0"/>
        <pt x="71" y="50" on="0"/>
        <pt x="120" y="121" on="0"/>
        <pt x="141" y="207" on="1"/>
        <pt x="243" y="618" on="1"/>
        <pt x="179" y="616" on="0"/>
        <pt x="103" y="579" on="1"/>
        <pt x="98" y="584" on="0"/>
        <pt x="98" y="603" on="0"/>
        <pt x="117" y="623" on="0"/>
        <pt x="162" y="644" on="0"/>
        <pt x="196" y="652" on="1"/>
        <pt x="268" y="671" on="0"/>
        <pt x="400" y="671" on="1"/>
      </contour>
      <contour>
        <pt x="483" y="162" on="1"/>
        <pt x="483" y="232" on="0"/>
        <pt x="369" y="332" on="0"/>
        <pt x="272" y="336" on="1"/>
        <pt x="268" y="323" on="0"/>
        <pt x="244" y="222" on="0"/>
        <pt x="224" y="153" on="0"/>
        <pt x="183" y="79" on="0"/>
        <pt x="159" y="67" on="1"/>
        <pt x="158" y="64" on="1"/>
        <pt x="171" y="68" on="0"/>
        <pt x="221" y="68" on="0"/>
        <pt x="337" y="50" on="0"/>
        <pt x="422" y="50" on="0"/>
        <pt x="483" y="119" on="0"/>
      </contour>
      <contour>
        <pt x="341" y="375" on="1"/>
        <pt x="414" y="375" on="0"/>
        <pt x="508" y="468" on="0"/>
        <pt x="508" y="570" on="0"/>
        <pt x="440" y="631" on="0"/>
        <pt x="374" y="631" on="1"/>
        <pt x="344" y="631" on="0"/>
        <pt x="333" y="585" on="1"/>
        <pt x="283" y="383" on="1"/>
        <pt x="315" y="375" on="0"/>
      </contour>
    </TTGlyph>
    <TTGlyph name="C" xMin="17" yMin="-26" xMax="701" yMax="697">
      <contour>
        <pt x="589" y="502" on="1"/>
        <pt x="603" y="551" on="0"/>
        <pt x="603" y="565" on="1"/>
        <pt x="602" y="594" on="0"/>
        <pt x="531" y="630" on="0"/>
        <pt x="465" y="630" on="1"/>
        <pt x="366" y="630" on="0"/>
        <pt x="214" y="523" on="0"/>
        <pt x="138" y="357" on="0"/>
        <pt x="138" y="165" on="0"/>
        <pt x="262" y="46" on="0"/>
        <pt x="436" y="46" on="0"/>
        <pt x="519" y="111" on="1"/>
        <pt x="545" y="177" on="1"/>
        <pt x="552" y="189" on="0"/>
        <pt x="560" y="189" on="1"/>
        <pt x="572" y="189" on="0"/>
        <pt x="584" y="162" on="1"/>
        <pt x="550" y="100" on="0"/>
        <pt x="520" y="-4" on="1"/>
        <pt x="513" y="-26" on="0"/>
        <pt x="503" y="-26" on="1"/>
        <pt x="485" y="-26" on="0"/>
        <pt x="478" y="-21" on="1"/>
        <pt x="484" y="8" on="1"/>
        <pt x="484" y="16" on="0"/>
        <pt x="476" y="16" on="1"/>
        <pt x="474" y="16" on="0"/>
        <pt x="369" y="-11" on="0"/>
        <pt x="326" y="-11" on="1"/>
        <pt x="194" y="-11" on="0"/>
        <pt x="17" y="129" on="0"/>
        <pt x="17" y="365" on="0"/>
        <pt x="159" y="573" on="0"/>
        <pt x="374" y="686" on="0"/>
        <pt x="486" y="686" on="1"/>
        <pt x="500" y="686" on="0"/>
        <pt x="526" y="684" on="1"/>
        <pt x="609" y="675" on="1"/>
        <pt x="637" y="675" on="0"/>
        <pt x="659" y="682" on="0"/>
        <pt x="669" y="692" on="1"/>
        <pt x="676" y="697" on="0"/>
        <pt x="680" y="697" on="1"/>
        <pt x="689" y="697" on="0"/>
        <pt x="701" y="685" on="1"/>
        <pt x="679" y="662" on="0"/>
        <pt x="638" y="553" on="0"/>
        <pt x="638" y="515" on="1"/>
        <pt x="638" y="513" on="1"/>
        <pt x="638" y="505" on="0"/>
        <pt x="616" y="493" on="0"/>
        <pt x="589" y="493" on="0"/>
      </contour>
    </TTGlyph>
    <TTGlyph name="Ccedilla" xMin="17" yMin="-172" xMax="701" yMax="697">
      <contour>
        <pt x="589" y="502" on="1"/>
        <pt x="603" y="551" on="0"/>
        <pt x="603" y="565" on="1"/>
        <pt x="602" y="594" on="0"/>
        <pt x="531" y="630" on="0"/>
        <pt x="465" y="630" on="1"/>
        <pt x="366" y="630" on="0"/>
        <pt x="214" y="523" on="0"/>
        <pt x="138" y="357" on="0"/>
        <pt x="138" y="165" on="0"/>
        <pt x="262" y="46" on="0"/>
        <pt x="436" y="46" on="0"/>
        <pt x="519" y="111" on="1"/>
        <pt x="545" y="177" on="1"/>
        <pt x="552" y="189" on="0"/>
        <pt x="560" y="189" on="1"/>
        <pt x="572" y="189" on="0"/>
        <pt x="584" y="162" on="1"/>
        <pt x="550" y="100" on="0"/>
        <pt x="520" y="-4" on="1"/>
        <pt x="513" y="-26" on="0"/>
        <pt x="503" y="-26" on="1"/>
        <pt x="485" y="-26" on="0"/>
        <pt x="478" y="-21" on="1"/>
        <pt x="484" y="8" on="1"/>
        <pt x="484" y="16" on="0"/>
        <pt x="476" y="16" on="1"/>
        <pt x="474" y="16" on="0"/>
        <pt x="369" y="-11" on="0"/>
        <pt x="326" y="-11" on="1"/>
        <pt x="194" y="-11" on="0"/>
        <pt x="17" y="129" on="0"/>
        <pt x="17" y="365" on="0"/>
        <pt x="159" y="573" on="0"/>
        <pt x="374" y="686" on="0"/>
        <pt x="486" y="686" on="1"/>
        <pt x="500" y="686" on="0"/>
        <pt x="526" y="684" on="1"/>
        <pt x="609" y="675" on="1"/>
        <pt x="637" y="675" on="0"/>
        <pt x="659" y="682" on="0"/>
        <pt x="669" y="692" on="1"/>
        <pt x="676" y="697" on="0"/>
        <pt x="680" y="697" on="1"/>
        <pt x="689" y="697" on="0"/>
        <pt x="701" y="685" on="1"/>
        <pt x="679" y="662" on="0"/>
        <pt x="638" y="553" on="0"/>
        <pt x="638" y="515" on="1"/>
        <pt x="638" y="513" on="1"/>
        <pt x="638" y="505" on="0"/>
        <pt x="616" y="493" on="0"/>
        <pt x="589" y="493" on="0"/>
      </contour>
      <contour>
        <pt x="325" y="-50" on="1"/>
        <pt x="357" y="-50" on="0"/>
        <pt x="400" y="-76" on="0"/>
        <pt x="400" y="-98" on="1"/>
        <pt x="400" y="-135" on="0"/>
        <pt x="339" y="-172" on="0"/>
        <pt x="282" y="-172" on="0"/>
        <pt x="235" y="-146" on="0"/>
        <pt x="235" y="-128" on="1"/>
        <pt x="235" y="-125" on="0"/>
        <pt x="236" y="-121" on="1"/>
        <pt x="241" y="-101" on="0"/>
        <pt x="277" y="-101" on="0"/>
        <pt x="280" y="-115" on="1"/>
        <pt x="264" y="-131" on="0"/>
        <pt x="282" y="-143" on="1"/>
        <pt x="293" y="-150" on="0"/>
        <pt x="306" y="-150" on="1"/>
        <pt x="346" y="-150" on="0"/>
        <pt x="354" y="-114" on="1"/>
        <pt x="355" y="-108" on="0"/>
        <pt x="355" y="-89" on="0"/>
        <pt x="328" y="-71" on="0"/>
        <pt x="299" y="-71" on="0"/>
        <pt x="283" y="-72" on="0"/>
        <pt x="279" y="-72" on="1"/>
        <pt x="322" y="0" on="1"/>
        <pt x="350" y="0" on="1"/>
        <pt x="321" y="-50" on="1"/>
        <pt x="323" y="-50" on="0"/>
      </contour>
    </TTGlyph>
    <TTGlyph name="D" xMin="-37" yMin="-14" xMax="674" yMax="671">
      <contour>
        <pt x="357" y="671" on="1"/>
        <pt x="674" y="671" on="0"/>
        <pt x="674" y="362" on="1"/>
        <pt x="674" y="287" on="0"/>
        <pt x="607" y="146" on="0"/>
        <pt x="501" y="46" on="0"/>
        <pt x="365" y="-14" on="0"/>
        <pt x="247" y="-14" on="0"/>
        <pt x="82" y="15" on="0"/>
        <pt x="2" y="15" on="0"/>
        <pt x="-37" y="4" on="1"/>
        <pt x="-37" y="16" on="0"/>
        <pt x="-11" y="40" on="0"/>
        <pt x="11" y="44" on="1"/>
        <pt x="45" y="50" on="0"/>
        <pt x="92" y="121" on="0"/>
        <pt x="110" y="207" on="1"/>
        <pt x="196" y="618" on="1"/>
        <pt x="132" y="616" on="0"/>
        <pt x="57" y="579" on="1"/>
        <pt x="52" y="584" on="0"/>
        <pt x="51" y="610" on="0"/>
        <pt x="106" y="644" on="0"/>
        <pt x="251" y="671" on="0"/>
      </contour>
      <contour>
        <pt x="339" y="51" on="1"/>
        <pt x="425" y="51" on="0"/>
        <pt x="571" y="219" on="0"/>
        <pt x="571" y="343" on="1"/>
        <pt x="571" y="631" on="0"/>
        <pt x="332" y="631" on="1"/>
        <pt x="303" y="631" on="0"/>
        <pt x="293" y="585" on="1"/>
        <pt x="277" y="514" on="0"/>
        <pt x="238" y="318" on="0"/>
        <pt x="218" y="229" on="0"/>
        <pt x="189" y="125" on="0"/>
        <pt x="159" y="78" on="0"/>
        <pt x="139" y="68" on="1"/>
        <pt x="138" y="65" on="1"/>
        <pt x="151" y="69" on="0"/>
        <pt x="201" y="69" on="0"/>
        <pt x="300" y="51" on="0"/>
      </contour>
    </TTGlyph>
    <TTGlyph name="E" xMin="-43" yMin="-38" xMax="620" yMax="701">
      <contour>
        <pt x="463" y="-37" on="1"/>
        <pt x="452" y="-38" on="1"/>
        <pt x="434" y="-38" on="0"/>
        <pt x="434" y="-24" on="1"/>
        <pt x="434" y="-13" on="0"/>
        <pt x="444" y="13" on="1"/>
        <pt x="374" y="-14" on="0"/>
        <pt x="238" y="-14" on="0"/>
        <pt x="77" y="15" on="0"/>
        <pt x="-3" y="15" on="0"/>
        <pt x="-43" y="4" on="1"/>
        <pt x="-43" y="15" on="0"/>
        <pt x="-14" y="40" on="0"/>
        <pt x="43" y="50" on="0"/>
        <pt x="95" y="121" on="0"/>
        <pt x="119" y="207" on="1"/>
        <pt x="236" y="618" on="1"/>
        <pt x="170" y="616" on="0"/>
        <pt x="93" y="579" on="1"/>
        <pt x="88" y="584" on="0"/>
        <pt x="89" y="610" on="0"/>
        <pt x="144" y="644" on="0"/>
        <pt x="290" y="671" on="0"/>
        <pt x="396" y="671" on="1"/>
        <pt x="505" y="670" on="1"/>
        <pt x="553" y="670" on="0"/>
        <pt x="584" y="671" on="1"/>
        <pt x="585" y="671" on="0"/>
        <pt x="587" y="686" on="0"/>
        <pt x="598" y="701" on="0"/>
        <pt x="620" y="701" on="0"/>
        <pt x="620" y="687" on="0"/>
        <pt x="586" y="571" on="0"/>
        <pt x="586" y="542" on="1"/>
        <pt x="586" y="532" on="0"/>
        <pt x="554" y="532" on="0"/>
        <pt x="554" y="540" on="1"/>
        <pt x="555" y="568" on="1"/>
        <pt x="555" y="589" on="0"/>
        <pt x="548" y="602" on="1"/>
        <pt x="534" y="631" on="0"/>
        <pt x="369" y="631" on="1"/>
        <pt x="339" y="631" on="0"/>
        <pt x="326" y="585" on="1"/>
        <pt x="264" y="360" on="1"/>
        <pt x="268" y="359" on="0"/>
        <pt x="373" y="359" on="0"/>
        <pt x="449" y="366" on="1"/>
        <pt x="471" y="423" on="0"/>
        <pt x="481" y="432" on="0"/>
        <pt x="507" y="432" on="0"/>
        <pt x="507" y="426" on="1"/>
        <pt x="507" y="413" on="0"/>
        <pt x="481" y="352" on="0"/>
        <pt x="464" y="300" on="0"/>
        <pt x="461" y="263" on="1"/>
        <pt x="459" y="240" on="0"/>
        <pt x="437" y="239" on="1"/>
        <pt x="425" y="239" on="0"/>
        <pt x="425" y="246" on="1"/>
        <pt x="425" y="258" on="0"/>
        <pt x="428" y="303" on="1"/>
        <pt x="368" y="318" on="0"/>
        <pt x="251" y="318" on="1"/>
        <pt x="247" y="305" on="0"/>
        <pt x="221" y="208" on="0"/>
        <pt x="200" y="146" on="0"/>
        <pt x="159" y="76" on="0"/>
        <pt x="134" y="64" on="1"/>
        <pt x="133" y="61" on="1"/>
        <pt x="146" y="65" on="0"/>
        <pt x="196" y="65" on="0"/>
        <pt x="311" y="47" on="0"/>
        <pt x="350" y="47" on="1"/>
        <pt x="422" y="47" on="0"/>
        <pt x="467" y="81" on="1"/>
        <pt x="492" y="131" on="1"/>
        <pt x="492" y="135" on="0"/>
        <pt x="506" y="142" on="0"/>
        <pt x="524" y="142" on="0"/>
        <pt x="525" y="134" on="1"/>
      </contour>
    </TTGlyph>
    <TTGlyph name="Eacute" xMin="-43" yMin="-38" xMax="620" yMax="867">
      <contour>
        <pt x="489" y="779" on="0"/>
        <pt x="390" y="718" on="0"/>
        <pt x="360" y="695" on="0"/>
        <pt x="341" y="695" on="0"/>
        <pt x="339" y="704" on="1"/>
        <pt x="339" y="708" on="0"/>
        <pt x="367" y="737" on="0"/>
        <pt x="427" y="825" on="0"/>
        <pt x="470" y="867" on="0"/>
        <pt x="492" y="867" on="1"/>
        <pt x="532" y="867" on="0"/>
        <pt x="532" y="832" on="1"/>
        <pt x="532" y="815" on="0"/>
      </contour>
      <contour>
        <pt x="463" y="-37" on="1"/>
        <pt x="452" y="-38" on="1"/>
        <pt x="434" y="-38" on="0"/>
        <pt x="434" y="-24" on="1"/>
        <pt x="434" y="-13" on="0"/>
        <pt x="444" y="13" on="1"/>
        <pt x="374" y="-14" on="0"/>
        <pt x="238" y="-14" on="0"/>
        <pt x="77" y="15" on="0"/>
        <pt x="-3" y="15" on="0"/>
        <pt x="-43" y="4" on="1"/>
        <pt x="-43" y="15" on="0"/>
        <pt x="-14" y="40" on="0"/>
        <pt x="43" y="50" on="0"/>
        <pt x="95" y="121" on="0"/>
        <pt x="119" y="207" on="1"/>
        <pt x="236" y="618" on="1"/>
        <pt x="170" y="616" on="0"/>
        <pt x="93" y="579" on="1"/>
        <pt x="88" y="584" on="0"/>
        <pt x="89" y="610" on="0"/>
        <pt x="144" y="644" on="0"/>
        <pt x="290" y="671" on="0"/>
        <pt x="396" y="671" on="1"/>
        <pt x="505" y="670" on="1"/>
        <pt x="553" y="670" on="0"/>
        <pt x="584" y="671" on="1"/>
        <pt x="585" y="671" on="0"/>
        <pt x="587" y="686" on="0"/>
        <pt x="598" y="701" on="0"/>
        <pt x="620" y="701" on="0"/>
        <pt x="620" y="687" on="0"/>
        <pt x="586" y="571" on="0"/>
        <pt x="586" y="542" on="1"/>
        <pt x="586" y="532" on="0"/>
        <pt x="554" y="532" on="0"/>
        <pt x="554" y="540" on="1"/>
        <pt x="555" y="568" on="1"/>
        <pt x="555" y="589" on="0"/>
        <pt x="548" y="602" on="1"/>
        <pt x="534" y="631" on="0"/>
        <pt x="369" y="631" on="1"/>
        <pt x="339" y="631" on="0"/>
        <pt x="326" y="585" on="1"/>
        <pt x="264" y="360" on="1"/>
        <pt x="268" y="359" on="0"/>
        <pt x="373" y="359" on="0"/>
        <pt x="449" y="366" on="1"/>
        <pt x="471" y="423" on="0"/>
        <pt x="481" y="432" on="0"/>
        <pt x="507" y="432" on="0"/>
        <pt x="507" y="426" on="1"/>
        <pt x="507" y="413" on="0"/>
        <pt x="481" y="352" on="0"/>
        <pt x="464" y="300" on="0"/>
        <pt x="461" y="263" on="1"/>
        <pt x="459" y="240" on="0"/>
        <pt x="437" y="239" on="1"/>
        <pt x="425" y="239" on="0"/>
        <pt x="425" y="246" on="1"/>
        <pt x="425" y="258" on="0"/>
        <pt x="428" y="303" on="1"/>
        <pt x="368" y="318" on="0"/>
        <pt x="251" y="318" on="1"/>
        <pt x="247" y="305" on="0"/>
        <pt x="221" y="208" on="0"/>
        <pt x="200" y="146" on="0"/>
        <pt x="159" y="76" on="0"/>
        <pt x="134" y="64" on="1"/>
        <pt x="133" y="61" on="1"/>
        <pt x="146" y="65" on="0"/>
        <pt x="196" y="65" on="0"/>
        <pt x="311" y="47" on="0"/>
        <pt x="350" y="47" on="1"/>
        <pt x="422" y="47" on="0"/>
        <pt x="467" y="81" on="1"/>
        <pt x="492" y="131" on="1"/>
        <pt x="492" y="135" on="0"/>
        <pt x="506" y="142" on="0"/>
        <pt x="524" y="142" on="0"/>
        <pt x="525" y="134" on="1"/>
      </contour>
    </TTGlyph>
    <TTGlyph name="Ecircumflex" xMin="-43" yMin="-38" xMax="620" yMax="857">
      <contour>
        <pt x="302" y="706" on="1"/>
        <pt x="293" y="698" on="0"/>
        <pt x="277" y="698" on="0"/>
        <pt x="275" y="706" on="1"/>
        <pt x="399" y="844" on="1"/>
        <pt x="412" y="857" on="0"/>
        <pt x="439" y="857" on="0"/>
        <pt x="449" y="844" on="1"/>
        <pt x="521" y="706" on="1"/>
        <pt x="516" y="699" on="0"/>
        <pt x="499" y="699" on="0"/>
        <pt x="493" y="706" on="1"/>
        <pt x="413" y="790" on="1"/>
      </contour>
      <contour>
        <pt x="463" y="-37" on="1"/>
        <pt x="452" y="-38" on="1"/>
        <pt x="434" y="-38" on="0"/>
        <pt x="434" y="-24" on="1"/>
        <pt x="434" y="-13" on="0"/>
        <pt x="444" y="13" on="1"/>
        <pt x="374" y="-14" on="0"/>
        <pt x="238" y="-14" on="0"/>
        <pt x="77" y="15" on="0"/>
        <pt x="-3" y="15" on="0"/>
        <pt x="-43" y="4" on="1"/>
        <pt x="-43" y="15" on="0"/>
        <pt x="-14" y="40" on="0"/>
        <pt x="43" y="50" on="0"/>
        <pt x="95" y="121" on="0"/>
        <pt x="119" y="207" on="1"/>
        <pt x="236" y="618" on="1"/>
        <pt x="170" y="616" on="0"/>
        <pt x="93" y="579" on="1"/>
        <pt x="88" y="584" on="0"/>
        <pt x="89" y="610" on="0"/>
        <pt x="144" y="644" on="0"/>
        <pt x="290" y="671" on="0"/>
        <pt x="396" y="671" on="1"/>
        <pt x="505" y="670" on="1"/>
        <pt x="553" y="670" on="0"/>
        <pt x="584" y="671" on="1"/>
        <pt x="585" y="671" on="0"/>
        <pt x="587" y="686" on="0"/>
        <pt x="598" y="701" on="0"/>
        <pt x="620" y="701" on="0"/>
        <pt x="620" y="687" on="0"/>
        <pt x="586" y="571" on="0"/>
        <pt x="586" y="542" on="1"/>
        <pt x="586" y="532" on="0"/>
        <pt x="554" y="532" on="0"/>
        <pt x="554" y="540" on="1"/>
        <pt x="555" y="568" on="1"/>
        <pt x="555" y="589" on="0"/>
        <pt x="548" y="602" on="1"/>
        <pt x="534" y="631" on="0"/>
        <pt x="369" y="631" on="1"/>
        <pt x="339" y="631" on="0"/>
        <pt x="326" y="585" on="1"/>
        <pt x="264" y="360" on="1"/>
        <pt x="268" y="359" on="0"/>
        <pt x="373" y="359" on="0"/>
        <pt x="449" y="366" on="1"/>
        <pt x="471" y="423" on="0"/>
        <pt x="481" y="432" on="0"/>
        <pt x="507" y="432" on="0"/>
        <pt x="507" y="426" on="1"/>
        <pt x="507" y="413" on="0"/>
        <pt x="481" y="352" on="0"/>
        <pt x="464" y="300" on="0"/>
        <pt x="461" y="263" on="1"/>
        <pt x="459" y="240" on="0"/>
        <pt x="437" y="239" on="1"/>
        <pt x="425" y="239" on="0"/>
        <pt x="425" y="246" on="1"/>
        <pt x="425" y="258" on="0"/>
        <pt x="428" y="303" on="1"/>
        <pt x="368" y="318" on="0"/>
        <pt x="251" y="318" on="1"/>
        <pt x="247" y="305" on="0"/>
        <pt x="221" y="208" on="0"/>
        <pt x="200" y="146" on="0"/>
        <pt x="159" y="76" on="0"/>
        <pt x="134" y="64" on="1"/>
        <pt x="133" y="61" on="1"/>
        <pt x="146" y="65" on="0"/>
        <pt x="196" y="65" on="0"/>
        <pt x="311" y="47" on="0"/>
        <pt x="350" y="47" on="1"/>
        <pt x="422" y="47" on="0"/>
        <pt x="467" y="81" on="1"/>
        <pt x="492" y="131" on="1"/>
        <pt x="492" y="135" on="0"/>
        <pt x="506" y="142" on="0"/>
        <pt x="524" y="142" on="0"/>
        <pt x="525" y="134" on="1"/>
      </contour>
    </TTGlyph>
    <TTGlyph name="Edieresis" xMin="-43" yMin="-38" xMax="620" yMax="809">
      <contour>
        <pt x="389" y="744" on="0"/>
        <pt x="361" y="715" on="0"/>
        <pt x="321" y="715" on="0"/>
        <pt x="295" y="743" on="0"/>
        <pt x="295" y="783" on="0"/>
        <pt x="323" y="809" on="0"/>
        <pt x="360" y="809" on="0"/>
        <pt x="389" y="782" on="0"/>
      </contour>
      <contour>
        <pt x="537" y="743" on="0"/>
        <pt x="511" y="715" on="0"/>
        <pt x="470" y="715" on="0"/>
        <pt x="443" y="744" on="0"/>
        <pt x="443" y="783" on="0"/>
        <pt x="471" y="809" on="0"/>
        <pt x="509" y="809" on="0"/>
        <pt x="537" y="783" on="0"/>
      </contour>
      <contour>
        <pt x="463" y="-37" on="1"/>
        <pt x="452" y="-38" on="1"/>
        <pt x="434" y="-38" on="0"/>
        <pt x="434" y="-24" on="1"/>
        <pt x="434" y="-13" on="0"/>
        <pt x="444" y="13" on="1"/>
        <pt x="374" y="-14" on="0"/>
        <pt x="238" y="-14" on="0"/>
        <pt x="77" y="15" on="0"/>
        <pt x="-3" y="15" on="0"/>
        <pt x="-43" y="4" on="1"/>
        <pt x="-43" y="15" on="0"/>
        <pt x="-14" y="40" on="0"/>
        <pt x="43" y="50" on="0"/>
        <pt x="95" y="121" on="0"/>
        <pt x="119" y="207" on="1"/>
        <pt x="236" y="618" on="1"/>
        <pt x="170" y="616" on="0"/>
        <pt x="93" y="579" on="1"/>
        <pt x="88" y="584" on="0"/>
        <pt x="89" y="610" on="0"/>
        <pt x="144" y="644" on="0"/>
        <pt x="290" y="671" on="0"/>
        <pt x="396" y="671" on="1"/>
        <pt x="505" y="670" on="1"/>
        <pt x="553" y="670" on="0"/>
        <pt x="584" y="671" on="1"/>
        <pt x="585" y="671" on="0"/>
        <pt x="587" y="686" on="0"/>
        <pt x="598" y="701" on="0"/>
        <pt x="620" y="701" on="0"/>
        <pt x="620" y="687" on="0"/>
        <pt x="586" y="571" on="0"/>
        <pt x="586" y="542" on="1"/>
        <pt x="586" y="532" on="0"/>
        <pt x="554" y="532" on="0"/>
        <pt x="554" y="540" on="1"/>
        <pt x="555" y="568" on="1"/>
        <pt x="555" y="589" on="0"/>
        <pt x="548" y="602" on="1"/>
        <pt x="534" y="631" on="0"/>
        <pt x="369" y="631" on="1"/>
        <pt x="339" y="631" on="0"/>
        <pt x="326" y="585" on="1"/>
        <pt x="264" y="360" on="1"/>
        <pt x="268" y="359" on="0"/>
        <pt x="373" y="359" on="0"/>
        <pt x="449" y="366" on="1"/>
        <pt x="471" y="423" on="0"/>
        <pt x="481" y="432" on="0"/>
        <pt x="507" y="432" on="0"/>
        <pt x="507" y="426" on="1"/>
        <pt x="507" y="413" on="0"/>
        <pt x="481" y="352" on="0"/>
        <pt x="464" y="300" on="0"/>
        <pt x="461" y="263" on="1"/>
        <pt x="459" y="240" on="0"/>
        <pt x="437" y="239" on="1"/>
        <pt x="425" y="239" on="0"/>
        <pt x="425" y="246" on="1"/>
        <pt x="425" y="258" on="0"/>
        <pt x="428" y="303" on="1"/>
        <pt x="368" y="318" on="0"/>
        <pt x="251" y="318" on="1"/>
        <pt x="247" y="305" on="0"/>
        <pt x="221" y="208" on="0"/>
        <pt x="200" y="146" on="0"/>
        <pt x="159" y="76" on="0"/>
        <pt x="134" y="64" on="1"/>
        <pt x="133" y="61" on="1"/>
        <pt x="146" y="65" on="0"/>
        <pt x="196" y="65" on="0"/>
        <pt x="311" y="47" on="0"/>
        <pt x="350" y="47" on="1"/>
        <pt x="422" y="47" on="0"/>
        <pt x="467" y="81" on="1"/>
        <pt x="492" y="131" on="1"/>
        <pt x="492" y="135" on="0"/>
        <pt x="506" y="142" on="0"/>
        <pt x="524" y="142" on="0"/>
        <pt x="525" y="134" on="1"/>
      </contour>
    </TTGlyph>
    <TTGlyph name="Egrave" xMin="-43" yMin="-38" xMax="620" yMax="868">
      <contour>
        <pt x="311" y="780" on="0"/>
        <pt x="268" y="816" on="0"/>
        <pt x="268" y="849" on="0"/>
        <pt x="287" y="868" on="0"/>
        <pt x="330" y="868" on="0"/>
        <pt x="373" y="826" on="0"/>
        <pt x="433" y="738" on="0"/>
        <pt x="461" y="709" on="0"/>
        <pt x="461" y="705" on="1"/>
        <pt x="459" y="696" on="0"/>
        <pt x="440" y="696" on="0"/>
        <pt x="410" y="719" on="0"/>
      </contour>
      <contour>
        <pt x="463" y="-37" on="1"/>
        <pt x="452" y="-38" on="1"/>
        <pt x="434" y="-38" on="0"/>
        <pt x="434" y="-24" on="1"/>
        <pt x="434" y="-13" on="0"/>
        <pt x="444" y="13" on="1"/>
        <pt x="374" y="-14" on="0"/>
        <pt x="238" y="-14" on="0"/>
        <pt x="77" y="15" on="0"/>
        <pt x="-3" y="15" on="0"/>
        <pt x="-43" y="4" on="1"/>
        <pt x="-43" y="15" on="0"/>
        <pt x="-14" y="40" on="0"/>
        <pt x="43" y="50" on="0"/>
        <pt x="95" y="121" on="0"/>
        <pt x="119" y="207" on="1"/>
        <pt x="236" y="618" on="1"/>
        <pt x="170" y="616" on="0"/>
        <pt x="93" y="579" on="1"/>
        <pt x="88" y="584" on="0"/>
        <pt x="89" y="610" on="0"/>
        <pt x="144" y="644" on="0"/>
        <pt x="290" y="671" on="0"/>
        <pt x="396" y="671" on="1"/>
        <pt x="505" y="670" on="1"/>
        <pt x="553" y="670" on="0"/>
        <pt x="584" y="671" on="1"/>
        <pt x="585" y="671" on="0"/>
        <pt x="587" y="686" on="0"/>
        <pt x="598" y="701" on="0"/>
        <pt x="620" y="701" on="0"/>
        <pt x="620" y="687" on="0"/>
        <pt x="586" y="571" on="0"/>
        <pt x="586" y="542" on="1"/>
        <pt x="586" y="532" on="0"/>
        <pt x="554" y="532" on="0"/>
        <pt x="554" y="540" on="1"/>
        <pt x="555" y="568" on="1"/>
        <pt x="555" y="589" on="0"/>
        <pt x="548" y="602" on="1"/>
        <pt x="534" y="631" on="0"/>
        <pt x="369" y="631" on="1"/>
        <pt x="339" y="631" on="0"/>
        <pt x="326" y="585" on="1"/>
        <pt x="264" y="360" on="1"/>
        <pt x="268" y="359" on="0"/>
        <pt x="373" y="359" on="0"/>
        <pt x="449" y="366" on="1"/>
        <pt x="471" y="423" on="0"/>
        <pt x="481" y="432" on="0"/>
        <pt x="507" y="432" on="0"/>
        <pt x="507" y="426" on="1"/>
        <pt x="507" y="413" on="0"/>
        <pt x="481" y="352" on="0"/>
        <pt x="464" y="300" on="0"/>
        <pt x="461" y="263" on="1"/>
        <pt x="459" y="240" on="0"/>
        <pt x="437" y="239" on="1"/>
        <pt x="425" y="239" on="0"/>
        <pt x="425" y="246" on="1"/>
        <pt x="425" y="258" on="0"/>
        <pt x="428" y="303" on="1"/>
        <pt x="368" y="318" on="0"/>
        <pt x="251" y="318" on="1"/>
        <pt x="247" y="305" on="0"/>
        <pt x="221" y="208" on="0"/>
        <pt x="200" y="146" on="0"/>
        <pt x="159" y="76" on="0"/>
        <pt x="134" y="64" on="1"/>
        <pt x="133" y="61" on="1"/>
        <pt x="146" y="65" on="0"/>
        <pt x="196" y="65" on="0"/>
        <pt x="311" y="47" on="0"/>
        <pt x="350" y="47" on="1"/>
        <pt x="422" y="47" on="0"/>
        <pt x="467" y="81" on="1"/>
        <pt x="492" y="131" on="1"/>
        <pt x="492" y="135" on="0"/>
        <pt x="506" y="142" on="0"/>
        <pt x="524" y="142" on="0"/>
        <pt x="525" y="134" on="1"/>
      </contour>
    </TTGlyph>
    <TTGlyph name="Eth" xMin="-37" yMin="-14" xMax="674" yMax="671">
      <contour>
        <pt x="357" y="671" on="1"/>
        <pt x="674" y="671" on="0"/>
        <pt x="674" y="362" on="1"/>
        <pt x="674" y="287" on="0"/>
        <pt x="607" y="146" on="0"/>
        <pt x="501" y="46" on="0"/>
        <pt x="365" y="-14" on="0"/>
        <pt x="247" y="-14" on="0"/>
        <pt x="82" y="15" on="0"/>
        <pt x="2" y="15" on="0"/>
        <pt x="-37" y="4" on="1"/>
        <pt x="-37" y="16" on="0"/>
        <pt x="-11" y="40" on="0"/>
        <pt x="11" y="44" on="1"/>
        <pt x="45" y="50" on="0"/>
        <pt x="92" y="121" on="0"/>
        <pt x="110" y="207" on="1"/>
        <pt x="133" y="317" on="1"/>
        <pt x="87" y="311" on="0"/>
        <pt x="63" y="311" on="0"/>
        <pt x="46" y="334" on="0"/>
        <pt x="44" y="346" on="1"/>
        <pt x="43" y="357" on="1"/>
        <pt x="89" y="357" on="0"/>
        <pt x="143" y="363" on="1"/>
        <pt x="196" y="618" on="1"/>
        <pt x="132" y="616" on="0"/>
        <pt x="57" y="579" on="1"/>
        <pt x="52" y="584" on="0"/>
        <pt x="51" y="610" on="0"/>
        <pt x="106" y="644" on="0"/>
        <pt x="251" y="671" on="0"/>
      </contour>
      <contour>
        <pt x="339" y="51" on="1"/>
        <pt x="425" y="51" on="0"/>
        <pt x="571" y="219" on="0"/>
        <pt x="571" y="343" on="1"/>
        <pt x="571" y="631" on="0"/>
        <pt x="332" y="631" on="1"/>
        <pt x="303" y="631" on="0"/>
        <pt x="293" y="585" on="1"/>
        <pt x="277" y="509" on="0"/>
        <pt x="250" y="379" on="1"/>
        <pt x="327" y="390" on="0"/>
        <pt x="331" y="390" on="1"/>
        <pt x="360" y="390" on="0"/>
        <pt x="360" y="366" on="1"/>
        <pt x="360" y="362" on="0"/>
        <pt x="358" y="350" on="1"/>
        <pt x="302" y="346" on="0"/>
        <pt x="241" y="335" on="1"/>
        <pt x="214" y="205" on="0"/>
        <pt x="172" y="85" on="0"/>
        <pt x="139" y="68" on="1"/>
        <pt x="138" y="65" on="1"/>
        <pt x="151" y="69" on="0"/>
        <pt x="201" y="69" on="0"/>
        <pt x="300" y="51" on="0"/>
      </contour>
    </TTGlyph>
    <TTGlyph name="Euro" xMin="10" yMin="-13" xMax="560" yMax="685">
      <contour>
        <pt x="72" y="204" on="1"/>
        <pt x="74" y="241" on="1"/>
        <pt x="40" y="241" on="1"/>
        <pt x="10" y="241" on="0"/>
        <pt x="10" y="272" on="1"/>
        <pt x="11" y="282" on="1"/>
        <pt x="78" y="282" on="1"/>
        <pt x="90" y="338" on="0"/>
        <pt x="103" y="375" on="1"/>
        <pt x="68" y="375" on="1"/>
        <pt x="51" y="375" on="0"/>
        <pt x="37" y="399" on="0"/>
        <pt x="40" y="416" on="1"/>
        <pt x="121" y="416" on="1"/>
        <pt x="175" y="533" on="0"/>
        <pt x="361" y="684" on="0"/>
        <pt x="441" y="684" on="1"/>
        <pt x="473" y="684" on="0"/>
        <pt x="516" y="672" on="0"/>
        <pt x="522" y="666" on="1"/>
        <pt x="528" y="660" on="1"/>
        <pt x="531" y="676" on="1"/>
        <pt x="532" y="685" on="0"/>
        <pt x="560" y="685" on="0"/>
        <pt x="560" y="676" on="1"/>
        <pt x="538" y="567" on="0"/>
        <pt x="536" y="533" on="1"/>
        <pt x="535" y="523" on="0"/>
        <pt x="503" y="523" on="0"/>
        <pt x="503" y="533" on="1"/>
        <pt x="506" y="578" on="1"/>
        <pt x="505" y="580" on="0"/>
        <pt x="503" y="589" on="0"/>
        <pt x="492" y="610" on="0"/>
        <pt x="485" y="618" on="1"/>
        <pt x="467" y="639" on="0"/>
        <pt x="434" y="639" on="1"/>
        <pt x="281" y="639" on="0"/>
        <pt x="207" y="418" on="1"/>
        <pt x="359" y="421" on="1"/>
        <pt x="399" y="421" on="0"/>
        <pt x="399" y="392" on="1"/>
        <pt x="399" y="384" on="0"/>
        <pt x="396" y="375" on="1"/>
        <pt x="195" y="375" on="1"/>
        <pt x="184" y="341" on="0"/>
        <pt x="177" y="284" on="1"/>
        <pt x="331" y="287" on="1"/>
        <pt x="371" y="287" on="0"/>
        <pt x="371" y="261" on="1"/>
        <pt x="371" y="253" on="0"/>
        <pt x="368" y="241" on="1"/>
        <pt x="174" y="241" on="1"/>
        <pt x="174" y="46" on="0"/>
        <pt x="318" y="46" on="1"/>
        <pt x="396" y="46" on="0"/>
        <pt x="452" y="110" on="1"/>
        <pt x="458" y="104" on="0"/>
        <pt x="458" y="95" on="1"/>
        <pt x="458" y="62" on="0"/>
        <pt x="347" y="-13" on="0"/>
        <pt x="270" y="-13" on="1"/>
        <pt x="172" y="-13" on="0"/>
        <pt x="72" y="106" on="0"/>
      </contour>
    </TTGlyph>
    <TTGlyph name="F" xMin="-32" yMin="-4" xMax="580" yMax="701">
      <contour>
        <pt x="358" y="671" on="1"/>
        <pt x="467" y="670" on="1"/>
        <pt x="515" y="670" on="0"/>
        <pt x="546" y="671" on="1"/>
        <pt x="547" y="671" on="0"/>
        <pt x="548" y="678" on="1"/>
        <pt x="549" y="701" on="0"/>
        <pt x="568" y="701" on="1"/>
        <pt x="571" y="701" on="0"/>
        <pt x="580" y="694" on="0"/>
        <pt x="580" y="685" on="0"/>
        <pt x="557" y="580" on="0"/>
        <pt x="557" y="552" on="1"/>
        <pt x="557" y="542" on="1"/>
        <pt x="557" y="532" on="0"/>
        <pt x="525" y="532" on="0"/>
        <pt x="525" y="540" on="1"/>
        <pt x="524" y="549" on="0"/>
        <pt x="522" y="589" on="0"/>
        <pt x="514" y="602" on="1"/>
        <pt x="498" y="631" on="0"/>
        <pt x="333" y="631" on="1"/>
        <pt x="304" y="631" on="0"/>
        <pt x="294" y="585" on="1"/>
        <pt x="246" y="349" on="1"/>
        <pt x="250" y="348" on="0"/>
        <pt x="355" y="348" on="0"/>
        <pt x="431" y="355" on="1"/>
        <pt x="449" y="412" on="0"/>
        <pt x="456" y="418" on="1"/>
        <pt x="458" y="421" on="0"/>
        <pt x="484" y="421" on="0"/>
        <pt x="485" y="413" on="1"/>
        <pt x="485" y="404" on="0"/>
        <pt x="464" y="341" on="0"/>
        <pt x="450" y="292" on="0"/>
        <pt x="450" y="244" on="0"/>
        <pt x="449" y="240" on="1"/>
        <pt x="446" y="228" on="0"/>
        <pt x="416" y="228" on="0"/>
        <pt x="415" y="235" on="1"/>
        <pt x="414" y="254" on="1"/>
        <pt x="414" y="274" on="0"/>
        <pt x="414" y="292" on="1"/>
        <pt x="353" y="307" on="0"/>
        <pt x="236" y="307" on="1"/>
        <pt x="235" y="304" on="0"/>
        <pt x="218" y="234" on="0"/>
        <pt x="210" y="204" on="0"/>
        <pt x="188" y="137" on="0"/>
        <pt x="179" y="118" on="1"/>
        <pt x="153" y="62" on="0"/>
        <pt x="125" y="39" on="1"/>
        <pt x="148" y="39" on="0"/>
        <pt x="226" y="29" on="0"/>
        <pt x="250" y="29" on="1"/>
        <pt x="247" y="18" on="0"/>
        <pt x="222" y="-4" on="0"/>
        <pt x="208" y="-4" on="1"/>
        <pt x="48" y="15" on="1"/>
        <pt x="8" y="15" on="0"/>
        <pt x="-32" y="4" on="1"/>
        <pt x="-32" y="16" on="0"/>
        <pt x="-6" y="40" on="0"/>
        <pt x="16" y="44" on="1"/>
        <pt x="50" y="50" on="0"/>
        <pt x="96" y="121" on="0"/>
        <pt x="115" y="207" on="1"/>
        <pt x="201" y="618" on="1"/>
        <pt x="137" y="616" on="0"/>
        <pt x="63" y="579" on="1"/>
        <pt x="57" y="586" on="0"/>
        <pt x="57" y="594" on="1"/>
        <pt x="57" y="636" on="0"/>
        <pt x="190" y="659" on="1"/>
        <pt x="260" y="671" on="0"/>
      </contour>
    </TTGlyph>
    <TTGlyph name="G" xMin="8" yMin="-127" xMax="700" yMax="697">
      <contour>
        <pt x="553" y="88" on="1"/>
        <pt x="552" y="26" on="1"/>
        <pt x="552" y="-38" on="0"/>
        <pt x="504" y="-127" on="0"/>
        <pt x="479" y="-127" on="1"/>
        <pt x="469" y="-127" on="0"/>
        <pt x="463" y="-117" on="1"/>
        <pt x="509" y="-31" on="0"/>
        <pt x="509" y="13" on="1"/>
        <pt x="509" y="21" on="0"/>
        <pt x="501" y="21" on="1"/>
        <pt x="496" y="21" on="0"/>
        <pt x="474" y="13" on="1"/>
        <pt x="410" y="-11" on="0"/>
        <pt x="333" y="-11" on="1"/>
        <pt x="188" y="-11" on="0"/>
        <pt x="8" y="124" on="0"/>
        <pt x="8" y="243" on="1"/>
        <pt x="8" y="340" on="0"/>
        <pt x="56" y="428" on="1"/>
        <pt x="149" y="598" on="0"/>
        <pt x="346" y="662" on="1"/>
        <pt x="417" y="686" on="0"/>
        <pt x="485" y="686" on="1"/>
        <pt x="505" y="686" on="0"/>
        <pt x="525" y="684" on="1"/>
        <pt x="608" y="675" on="1"/>
        <pt x="636" y="675" on="0"/>
        <pt x="658" y="682" on="0"/>
        <pt x="675" y="697" on="0"/>
        <pt x="679" y="697" on="1"/>
        <pt x="689" y="697" on="0"/>
        <pt x="700" y="685" on="1"/>
        <pt x="678" y="661" on="0"/>
        <pt x="634" y="551" on="0"/>
        <pt x="634" y="513" on="1"/>
        <pt x="634" y="498" on="0"/>
        <pt x="585" y="490" on="0"/>
        <pt x="585" y="502" on="1"/>
        <pt x="585" y="504" on="0"/>
        <pt x="600" y="544" on="0"/>
        <pt x="600" y="594" on="0"/>
        <pt x="529" y="630" on="0"/>
        <pt x="463" y="630" on="1"/>
        <pt x="362" y="630" on="0"/>
        <pt x="207" y="523" on="0"/>
        <pt x="130" y="358" on="0"/>
        <pt x="130" y="166" on="0"/>
        <pt x="255" y="43" on="0"/>
        <pt x="345" y="43" on="1"/>
        <pt x="402" y="43" on="0"/>
        <pt x="469" y="72" on="1"/>
        <pt x="490" y="129" on="0"/>
        <pt x="493" y="206" on="1"/>
        <pt x="494" y="233" on="1"/>
        <pt x="494" y="253" on="0"/>
        <pt x="474" y="253" on="1"/>
        <pt x="430" y="253" on="1"/>
        <pt x="419" y="253" on="0"/>
        <pt x="386" y="250" on="1"/>
        <pt x="376" y="250" on="0"/>
        <pt x="376" y="297" on="0"/>
        <pt x="389" y="297" on="1"/>
        <pt x="475" y="291" on="0"/>
        <pt x="601" y="291" on="0"/>
        <pt x="658" y="300" on="1"/>
        <pt x="663" y="300" on="0"/>
        <pt x="663" y="284" on="0"/>
        <pt x="649" y="262" on="0"/>
        <pt x="640" y="262" on="1"/>
        <pt x="614" y="262" on="0"/>
        <pt x="596" y="253" on="1"/>
        <pt x="553" y="235" on="0"/>
      </contour>
    </TTGlyph>
    <TTGlyph name="H" xMin="-31" yMin="-4" xMax="806" yMax="671">
      <contour>
        <pt x="551" y="311" on="1"/>
        <pt x="505" y="314" on="0"/>
        <pt x="433" y="314" on="1"/>
        <pt x="330" y="314" on="1"/>
        <pt x="248" y="313" on="1"/>
        <pt x="217" y="195" on="0"/>
        <pt x="162" y="69" on="0"/>
        <pt x="128" y="41" on="1"/>
        <pt x="251" y="33" on="1"/>
        <pt x="256" y="32" on="0"/>
        <pt x="256" y="-4" on="0"/>
        <pt x="231" y="-4" on="1"/>
        <pt x="72" y="9" on="0"/>
        <pt x="-18" y="9" on="0"/>
        <pt x="-31" y="4" on="1"/>
        <pt x="-31" y="9" on="0"/>
        <pt x="-30" y="22" on="0"/>
        <pt x="-7" y="44" on="0"/>
        <pt x="15" y="44" on="1"/>
        <pt x="16" y="44" on="0"/>
        <pt x="17" y="44" on="1"/>
        <pt x="50" y="44" on="0"/>
        <pt x="95" y="117" on="0"/>
        <pt x="117" y="207" on="1"/>
        <pt x="219" y="623" on="1"/>
        <pt x="153" y="621" on="0"/>
        <pt x="78" y="584" on="1"/>
        <pt x="72" y="592" on="0"/>
        <pt x="72" y="598" on="1"/>
        <pt x="74" y="632" on="0"/>
        <pt x="210" y="665" on="0"/>
        <pt x="286" y="665" on="1"/>
        <pt x="397" y="670" on="1"/>
        <pt x="414" y="670" on="0"/>
        <pt x="422" y="667" on="1"/>
        <pt x="422" y="641" on="0"/>
        <pt x="410" y="636" on="1"/>
        <pt x="402" y="634" on="0"/>
        <pt x="396" y="634" on="1"/>
        <pt x="381" y="636" on="0"/>
        <pt x="344" y="636" on="1"/>
        <pt x="333" y="636" on="0"/>
        <pt x="321" y="613" on="0"/>
        <pt x="314" y="586" on="1"/>
        <pt x="279" y="434" on="0"/>
        <pt x="258" y="354" on="1"/>
        <pt x="300" y="352" on="0"/>
        <pt x="454" y="352" on="0"/>
        <pt x="564" y="364" on="1"/>
        <pt x="629" y="631" on="1"/>
        <pt x="618" y="634" on="0"/>
        <pt x="588" y="634" on="0"/>
        <pt x="569" y="630" on="1"/>
        <pt x="562" y="639" on="0"/>
        <pt x="562" y="660" on="0"/>
        <pt x="573" y="668" on="0"/>
        <pt x="588" y="668" on="1"/>
        <pt x="688" y="663" on="1"/>
        <pt x="733" y="663" on="0"/>
        <pt x="780" y="671" on="0"/>
        <pt x="792" y="671" on="0"/>
        <pt x="806" y="664" on="0"/>
        <pt x="806" y="644" on="0"/>
        <pt x="799" y="636" on="1"/>
        <pt x="753" y="636" on="1"/>
        <pt x="742" y="636" on="0"/>
        <pt x="730" y="613" on="0"/>
        <pt x="723" y="586" on="1"/>
        <pt x="656" y="296" on="0"/>
        <pt x="587" y="80" on="0"/>
        <pt x="540" y="41" on="1"/>
        <pt x="563" y="41" on="0"/>
        <pt x="641" y="31" on="0"/>
        <pt x="665" y="31" on="1"/>
        <pt x="662" y="18" on="0"/>
        <pt x="635" y="-4" on="0"/>
        <pt x="621" y="-4" on="1"/>
        <pt x="457" y="15" on="1"/>
        <pt x="426" y="15" on="0"/>
        <pt x="388" y="4" on="1"/>
        <pt x="388" y="8" on="0"/>
        <pt x="390" y="20" on="0"/>
        <pt x="414" y="43" on="0"/>
        <pt x="470" y="51" on="0"/>
        <pt x="504" y="114" on="0"/>
        <pt x="526" y="207" on="1"/>
      </contour>
    </TTGlyph>
    <TTGlyph name="I" xMin="-13" yMin="-4" xMax="433" yMax="671">
      <contour>
        <pt x="412" y="671" on="1"/>
        <pt x="433" y="671" on="0"/>
        <pt x="433" y="658" on="1"/>
        <pt x="433" y="652" on="0"/>
        <pt x="422" y="639" on="0"/>
        <pt x="420" y="636" on="1"/>
        <pt x="362" y="636" on="1"/>
        <pt x="351" y="636" on="0"/>
        <pt x="339" y="613" on="0"/>
        <pt x="332" y="586" on="1"/>
        <pt x="265" y="296" on="0"/>
        <pt x="196" y="80" on="0"/>
        <pt x="149" y="41" on="1"/>
        <pt x="172" y="41" on="0"/>
        <pt x="250" y="31" on="0"/>
        <pt x="274" y="31" on="1"/>
        <pt x="271" y="18" on="0"/>
        <pt x="244" y="-4" on="0"/>
        <pt x="230" y="-4" on="1"/>
        <pt x="66" y="15" on="1"/>
        <pt x="26" y="15" on="0"/>
        <pt x="-13" y="4" on="1"/>
        <pt x="-13" y="8" on="0"/>
        <pt x="-11" y="20" on="0"/>
        <pt x="13" y="43" on="0"/>
        <pt x="35" y="46" on="1"/>
        <pt x="71" y="51" on="0"/>
        <pt x="117" y="120" on="0"/>
        <pt x="138" y="207" on="1"/>
        <pt x="240" y="623" on="1"/>
        <pt x="174" y="621" on="0"/>
        <pt x="99" y="584" on="1"/>
        <pt x="93" y="592" on="0"/>
        <pt x="93" y="598" on="1"/>
        <pt x="95" y="635" on="0"/>
        <pt x="270" y="671" on="0"/>
      </contour>
    </TTGlyph>
    <TTGlyph name="Iacute" xMin="-13" yMin="-4" xMax="458" yMax="869">
      <contour>
        <pt x="415" y="781" on="0"/>
        <pt x="316" y="720" on="0"/>
        <pt x="286" y="697" on="0"/>
        <pt x="267" y="697" on="0"/>
        <pt x="265" y="706" on="1"/>
        <pt x="265" y="710" on="0"/>
        <pt x="293" y="739" on="0"/>
        <pt x="353" y="827" on="0"/>
        <pt x="396" y="869" on="0"/>
        <pt x="418" y="869" on="1"/>
        <pt x="458" y="869" on="0"/>
        <pt x="458" y="834" on="1"/>
        <pt x="458" y="817" on="0"/>
      </contour>
      <contour>
        <pt x="412" y="671" on="1"/>
        <pt x="433" y="671" on="0"/>
        <pt x="433" y="658" on="1"/>
        <pt x="433" y="652" on="0"/>
        <pt x="422" y="639" on="0"/>
        <pt x="420" y="636" on="1"/>
        <pt x="362" y="636" on="1"/>
        <pt x="351" y="636" on="0"/>
        <pt x="339" y="613" on="0"/>
        <pt x="332" y="586" on="1"/>
        <pt x="265" y="296" on="0"/>
        <pt x="196" y="80" on="0"/>
        <pt x="149" y="41" on="1"/>
        <pt x="172" y="41" on="0"/>
        <pt x="250" y="31" on="0"/>
        <pt x="274" y="31" on="1"/>
        <pt x="271" y="18" on="0"/>
        <pt x="244" y="-4" on="0"/>
        <pt x="230" y="-4" on="1"/>
        <pt x="66" y="15" on="1"/>
        <pt x="26" y="15" on="0"/>
        <pt x="-13" y="4" on="1"/>
        <pt x="-13" y="8" on="0"/>
        <pt x="-11" y="20" on="0"/>
        <pt x="13" y="43" on="0"/>
        <pt x="35" y="46" on="1"/>
        <pt x="71" y="51" on="0"/>
        <pt x="117" y="120" on="0"/>
        <pt x="138" y="207" on="1"/>
        <pt x="240" y="623" on="1"/>
        <pt x="174" y="621" on="0"/>
        <pt x="99" y="584" on="1"/>
        <pt x="93" y="592" on="0"/>
        <pt x="93" y="598" on="1"/>
        <pt x="95" y="635" on="0"/>
        <pt x="270" y="671" on="0"/>
      </contour>
    </TTGlyph>
    <TTGlyph name="Icircumflex" xMin="-13" yMin="-4" xMax="433" yMax="859">
      <contour>
        <pt x="206" y="708" on="1"/>
        <pt x="197" y="700" on="0"/>
        <pt x="181" y="700" on="0"/>
        <pt x="179" y="708" on="1"/>
        <pt x="303" y="846" on="1"/>
        <pt x="316" y="859" on="0"/>
        <pt x="343" y="859" on="0"/>
        <pt x="353" y="846" on="1"/>
        <pt x="425" y="708" on="1"/>
        <pt x="420" y="701" on="0"/>
        <pt x="403" y="701" on="0"/>
        <pt x="397" y="708" on="1"/>
        <pt x="317" y="792" on="1"/>
      </contour>
      <contour>
        <pt x="412" y="671" on="1"/>
        <pt x="433" y="671" on="0"/>
        <pt x="433" y="658" on="1"/>
        <pt x="433" y="652" on="0"/>
        <pt x="422" y="639" on="0"/>
        <pt x="420" y="636" on="1"/>
        <pt x="362" y="636" on="1"/>
        <pt x="351" y="636" on="0"/>
        <pt x="339" y="613" on="0"/>
        <pt x="332" y="586" on="1"/>
        <pt x="265" y="296" on="0"/>
        <pt x="196" y="80" on="0"/>
        <pt x="149" y="41" on="1"/>
        <pt x="172" y="41" on="0"/>
        <pt x="250" y="31" on="0"/>
        <pt x="274" y="31" on="1"/>
        <pt x="271" y="18" on="0"/>
        <pt x="244" y="-4" on="0"/>
        <pt x="230" y="-4" on="1"/>
        <pt x="66" y="15" on="1"/>
        <pt x="26" y="15" on="0"/>
        <pt x="-13" y="4" on="1"/>
        <pt x="-13" y="8" on="0"/>
        <pt x="-11" y="20" on="0"/>
        <pt x="13" y="43" on="0"/>
        <pt x="35" y="46" on="1"/>
        <pt x="71" y="51" on="0"/>
        <pt x="117" y="120" on="0"/>
        <pt x="138" y="207" on="1"/>
        <pt x="240" y="623" on="1"/>
        <pt x="174" y="621" on="0"/>
        <pt x="99" y="584" on="1"/>
        <pt x="93" y="592" on="0"/>
        <pt x="93" y="598" on="1"/>
        <pt x="95" y="635" on="0"/>
        <pt x="270" y="671" on="0"/>
      </contour>
    </TTGlyph>
    <TTGlyph name="Idieresis" xMin="-13" yMin="-4" xMax="435" yMax="809">
      <contour>
        <pt x="287" y="744" on="0"/>
        <pt x="259" y="715" on="0"/>
        <pt x="219" y="715" on="0"/>
        <pt x="193" y="743" on="0"/>
        <pt x="193" y="783" on="0"/>
        <pt x="221" y="809" on="0"/>
        <pt x="258" y="809" on="0"/>
        <pt x="287" y="782" on="0"/>
      </contour>
      <contour>
        <pt x="435" y="743" on="0"/>
        <pt x="409" y="715" on="0"/>
        <pt x="368" y="715" on="0"/>
        <pt x="341" y="744" on="0"/>
        <pt x="341" y="783" on="0"/>
        <pt x="369" y="809" on="0"/>
        <pt x="407" y="809" on="0"/>
        <pt x="435" y="783" on="0"/>
      </contour>
      <contour>
        <pt x="412" y="671" on="1"/>
        <pt x="433" y="671" on="0"/>
        <pt x="433" y="658" on="1"/>
        <pt x="433" y="652" on="0"/>
        <pt x="422" y="639" on="0"/>
        <pt x="420" y="636" on="1"/>
        <pt x="362" y="636" on="1"/>
        <pt x="351" y="636" on="0"/>
        <pt x="339" y="613" on="0"/>
        <pt x="332" y="586" on="1"/>
        <pt x="265" y="296" on="0"/>
        <pt x="196" y="80" on="0"/>
        <pt x="149" y="41" on="1"/>
        <pt x="172" y="41" on="0"/>
        <pt x="250" y="31" on="0"/>
        <pt x="274" y="31" on="1"/>
        <pt x="271" y="18" on="0"/>
        <pt x="244" y="-4" on="0"/>
        <pt x="230" y="-4" on="1"/>
        <pt x="66" y="15" on="1"/>
        <pt x="26" y="15" on="0"/>
        <pt x="-13" y="4" on="1"/>
        <pt x="-13" y="8" on="0"/>
        <pt x="-11" y="20" on="0"/>
        <pt x="13" y="43" on="0"/>
        <pt x="35" y="46" on="1"/>
        <pt x="71" y="51" on="0"/>
        <pt x="117" y="120" on="0"/>
        <pt x="138" y="207" on="1"/>
        <pt x="240" y="623" on="1"/>
        <pt x="174" y="621" on="0"/>
        <pt x="99" y="584" on="1"/>
        <pt x="93" y="592" on="0"/>
        <pt x="93" y="598" on="1"/>
        <pt x="95" y="635" on="0"/>
        <pt x="270" y="671" on="0"/>
      </contour>
    </TTGlyph>
    <TTGlyph name="Igrave" xMin="-13" yMin="-4" xMax="433" yMax="868">
      <contour>
        <pt x="206" y="780" on="0"/>
        <pt x="163" y="816" on="0"/>
        <pt x="163" y="849" on="0"/>
        <pt x="182" y="868" on="0"/>
        <pt x="225" y="868" on="0"/>
        <pt x="268" y="826" on="0"/>
        <pt x="328" y="738" on="0"/>
        <pt x="356" y="709" on="0"/>
        <pt x="356" y="705" on="1"/>
        <pt x="354" y="696" on="0"/>
        <pt x="335" y="696" on="0"/>
        <pt x="305" y="719" on="0"/>
      </contour>
      <contour>
        <pt x="412" y="671" on="1"/>
        <pt x="433" y="671" on="0"/>
        <pt x="433" y="658" on="1"/>
        <pt x="433" y="652" on="0"/>
        <pt x="422" y="639" on="0"/>
        <pt x="420" y="636" on="1"/>
        <pt x="362" y="636" on="1"/>
        <pt x="351" y="636" on="0"/>
        <pt x="339" y="613" on="0"/>
        <pt x="332" y="586" on="1"/>
        <pt x="265" y="296" on="0"/>
        <pt x="196" y="80" on="0"/>
        <pt x="149" y="41" on="1"/>
        <pt x="172" y="41" on="0"/>
        <pt x="250" y="31" on="0"/>
        <pt x="274" y="31" on="1"/>
        <pt x="271" y="18" on="0"/>
        <pt x="244" y="-4" on="0"/>
        <pt x="230" y="-4" on="1"/>
        <pt x="66" y="15" on="1"/>
        <pt x="26" y="15" on="0"/>
        <pt x="-13" y="4" on="1"/>
        <pt x="-13" y="8" on="0"/>
        <pt x="-11" y="20" on="0"/>
        <pt x="13" y="43" on="0"/>
        <pt x="35" y="46" on="1"/>
        <pt x="71" y="51" on="0"/>
        <pt x="117" y="120" on="0"/>
        <pt x="138" y="207" on="1"/>
        <pt x="240" y="623" on="1"/>
        <pt x="174" y="621" on="0"/>
        <pt x="99" y="584" on="1"/>
        <pt x="93" y="592" on="0"/>
        <pt x="93" y="598" on="1"/>
        <pt x="95" y="635" on="0"/>
        <pt x="270" y="671" on="0"/>
      </contour>
    </TTGlyph>
    <TTGlyph name="J" xMin="-228" yMin="-273" xMax="411" yMax="671">
      <contour>
        <pt x="-180" y="-273" on="1"/>
        <pt x="-228" y="-273" on="0"/>
        <pt x="-228" y="-228" on="1"/>
        <pt x="-228" y="-190" on="0"/>
        <pt x="-194" y="-173" on="1"/>
        <pt x="-153" y="-208" on="0"/>
        <pt x="-94" y="-208" on="1"/>
        <pt x="-32" y="-208" on="0"/>
        <pt x="18" y="-75" on="1"/>
        <pt x="77" y="85" on="0"/>
        <pt x="220" y="623" on="1"/>
        <pt x="154" y="621" on="0"/>
        <pt x="79" y="584" on="1"/>
        <pt x="73" y="592" on="0"/>
        <pt x="73" y="598" on="1"/>
        <pt x="76" y="635" on="0"/>
        <pt x="249" y="671" on="0"/>
        <pt x="390" y="671" on="1"/>
        <pt x="411" y="671" on="0"/>
        <pt x="411" y="658" on="1"/>
        <pt x="411" y="652" on="0"/>
        <pt x="400" y="639" on="0"/>
        <pt x="398" y="636" on="1"/>
        <pt x="340" y="636" on="1"/>
        <pt x="329" y="636" on="0"/>
        <pt x="317" y="614" on="0"/>
        <pt x="309" y="586" on="1"/>
        <pt x="191" y="141" on="0"/>
        <pt x="151" y="31" on="1"/>
        <pt x="109" y="-86" on="0"/>
        <pt x="41" y="-158" on="1"/>
        <pt x="-65" y="-273" on="0"/>
      </contour>
    </TTGlyph>
    <TTGlyph name="K" xMin="-37" yMin="-4" xMax="692" yMax="666">
      <contour>
        <pt x="512" y="657" on="1"/>
        <pt x="568" y="656" on="1"/>
        <pt x="627" y="656" on="0"/>
        <pt x="678" y="664" on="1"/>
        <pt x="692" y="664" on="0"/>
        <pt x="692" y="649" on="1"/>
        <pt x="688" y="630" on="1"/>
        <pt x="642" y="630" on="0"/>
        <pt x="611" y="603" on="1"/>
        <pt x="512" y="508" on="0"/>
        <pt x="367" y="383" on="1"/>
        <pt x="367" y="380" on="1"/>
        <pt x="402" y="358" on="0"/>
        <pt x="464" y="269" on="0"/>
        <pt x="505" y="174" on="0"/>
        <pt x="538" y="84" on="0"/>
        <pt x="560" y="27" on="0"/>
        <pt x="566" y="27" on="1"/>
        <pt x="639" y="33" on="1"/>
        <pt x="645" y="20" on="0"/>
        <pt x="645" y="12" on="1"/>
        <pt x="645" y="-2" on="0"/>
        <pt x="500" y="-2" on="1"/>
        <pt x="481" y="-2" on="1"/>
        <pt x="469" y="-2" on="0"/>
        <pt x="417" y="133" on="0"/>
        <pt x="335" y="294" on="0"/>
        <pt x="289" y="319" on="1"/>
        <pt x="282" y="313" on="0"/>
        <pt x="234" y="274" on="1"/>
        <pt x="182" y="87" on="0"/>
        <pt x="125" y="41" on="1"/>
        <pt x="148" y="41" on="0"/>
        <pt x="226" y="31" on="0"/>
        <pt x="250" y="31" on="1"/>
        <pt x="247" y="18" on="0"/>
        <pt x="220" y="-4" on="0"/>
        <pt x="206" y="-4" on="1"/>
        <pt x="42" y="15" on="1"/>
        <pt x="2" y="15" on="0"/>
        <pt x="-37" y="4" on="1"/>
        <pt x="-37" y="8" on="0"/>
        <pt x="-35" y="20" on="0"/>
        <pt x="-11" y="43" on="0"/>
        <pt x="11" y="46" on="1"/>
        <pt x="47" y="51" on="0"/>
        <pt x="92" y="120" on="0"/>
        <pt x="114" y="207" on="1"/>
        <pt x="219" y="629" on="0"/>
        <pt x="215" y="629" on="1"/>
        <pt x="178" y="629" on="0"/>
        <pt x="123" y="613" on="1"/>
        <pt x="120" y="621" on="0"/>
        <pt x="120" y="626" on="1"/>
        <pt x="120" y="663" on="0"/>
        <pt x="277" y="663" on="1"/>
        <pt x="335" y="666" on="1"/>
        <pt x="376" y="666" on="0"/>
        <pt x="376" y="656" on="1"/>
        <pt x="370" y="638" on="1"/>
        <pt x="361" y="639" on="0"/>
        <pt x="330" y="639" on="0"/>
        <pt x="318" y="616" on="0"/>
        <pt x="311" y="589" on="1"/>
        <pt x="270" y="413" on="0"/>
        <pt x="252" y="342" on="1"/>
        <pt x="263" y="351" on="0"/>
        <pt x="344" y="413" on="0"/>
        <pt x="380" y="442" on="0"/>
        <pt x="412" y="469" on="1"/>
        <pt x="470" y="517" on="0"/>
        <pt x="524" y="577" on="1"/>
        <pt x="549" y="605" on="0"/>
        <pt x="549" y="620" on="1"/>
        <pt x="549" y="630" on="0"/>
        <pt x="526" y="630" on="1"/>
        <pt x="520" y="630" on="0"/>
        <pt x="496" y="627" on="1"/>
        <pt x="496" y="657" on="0"/>
      </contour>
    </TTGlyph>
    <TTGlyph name="L" xMin="-26" yMin="-37" xMax="542" yMax="674">
      <contour>
        <pt x="440" y="-24" on="1"/>
        <pt x="440" y="-18" on="0"/>
        <pt x="452" y="13" on="1"/>
        <pt x="386" y="-14" on="0"/>
        <pt x="250" y="-14" on="0"/>
        <pt x="94" y="15" on="0"/>
        <pt x="14" y="15" on="0"/>
        <pt x="-26" y="4" on="1"/>
        <pt x="-26" y="15" on="0"/>
        <pt x="5" y="40" on="0"/>
        <pt x="28" y="44" on="1"/>
        <pt x="99" y="56" on="0"/>
        <pt x="151" y="210" on="1"/>
        <pt x="287" y="620" on="1"/>
        <pt x="229" y="616" on="0"/>
        <pt x="149" y="579" on="1"/>
        <pt x="145" y="583" on="0"/>
        <pt x="145" y="602" on="0"/>
        <pt x="169" y="624" on="0"/>
        <pt x="221" y="646" on="0"/>
        <pt x="258" y="654" on="1"/>
        <pt x="343" y="674" on="0"/>
        <pt x="469" y="674" on="1"/>
        <pt x="468" y="642" on="0"/>
        <pt x="445" y="642" on="1"/>
        <pt x="399" y="642" on="0"/>
        <pt x="390" y="615" on="1"/>
        <pt x="286" y="318" on="1"/>
        <pt x="284" y="313" on="0"/>
        <pt x="261" y="246" on="0"/>
        <pt x="249" y="213" on="0"/>
        <pt x="221" y="149" on="0"/>
        <pt x="209" y="130" on="1"/>
        <pt x="177" y="79" on="0"/>
        <pt x="145" y="65" on="1"/>
        <pt x="144" y="62" on="1"/>
        <pt x="176" y="73" on="0"/>
        <pt x="219" y="73" on="0"/>
        <pt x="305" y="52" on="0"/>
        <pt x="343" y="52" on="1"/>
        <pt x="435" y="52" on="0"/>
        <pt x="483" y="85" on="1"/>
        <pt x="509" y="138" on="1"/>
        <pt x="509" y="142" on="0"/>
        <pt x="524" y="149" on="0"/>
        <pt x="542" y="149" on="0"/>
        <pt x="542" y="141" on="1"/>
        <pt x="468" y="-37" on="1"/>
        <pt x="440" y="-37" on="0"/>
      </contour>
    </TTGlyph>
    <TTGlyph name="Lslash" xMin="-26" yMin="-37" xMax="542" yMax="674">
      <contour>
        <pt x="440" y="-24" on="1"/>
        <pt x="440" y="-18" on="0"/>
        <pt x="452" y="13" on="1"/>
        <pt x="386" y="-14" on="0"/>
        <pt x="250" y="-14" on="0"/>
        <pt x="94" y="15" on="0"/>
        <pt x="14" y="15" on="0"/>
        <pt x="-26" y="4" on="1"/>
        <pt x="-26" y="15" on="0"/>
        <pt x="5" y="40" on="0"/>
        <pt x="28" y="44" on="1"/>
        <pt x="98" y="56" on="0"/>
        <pt x="151" y="212" on="1"/>
        <pt x="179" y="297" on="1"/>
        <pt x="153" y="284" on="0"/>
        <pt x="50" y="237" on="0"/>
        <pt x="43" y="235" on="0"/>
        <pt x="38" y="243" on="0"/>
        <pt x="38" y="273" on="0"/>
        <pt x="51" y="279" on="1"/>
        <pt x="65" y="286" on="0"/>
        <pt x="180" y="336" on="0"/>
        <pt x="194" y="343" on="1"/>
        <pt x="287" y="620" on="1"/>
        <pt x="229" y="616" on="0"/>
        <pt x="149" y="579" on="1"/>
        <pt x="145" y="583" on="0"/>
        <pt x="145" y="602" on="0"/>
        <pt x="169" y="624" on="0"/>
        <pt x="221" y="646" on="0"/>
        <pt x="258" y="654" on="1"/>
        <pt x="343" y="674" on="0"/>
        <pt x="469" y="674" on="1"/>
        <pt x="468" y="642" on="0"/>
        <pt x="445" y="642" on="1"/>
        <pt x="399" y="642" on="0"/>
        <pt x="390" y="615" on="1"/>
        <pt x="310" y="386" on="1"/>
        <pt x="444" y="454" on="1"/>
        <pt x="451" y="459" on="0"/>
        <pt x="451" y="443" on="1"/>
        <pt x="451" y="423" on="0"/>
        <pt x="436" y="413" on="1"/>
        <pt x="296" y="346" on="1"/>
        <pt x="286" y="318" on="1"/>
        <pt x="284" y="313" on="0"/>
        <pt x="261" y="246" on="0"/>
        <pt x="249" y="213" on="0"/>
        <pt x="221" y="149" on="0"/>
        <pt x="209" y="130" on="1"/>
        <pt x="177" y="79" on="0"/>
        <pt x="145" y="65" on="1"/>
        <pt x="144" y="62" on="1"/>
        <pt x="176" y="73" on="0"/>
        <pt x="219" y="73" on="0"/>
        <pt x="305" y="52" on="0"/>
        <pt x="343" y="52" on="1"/>
        <pt x="435" y="52" on="0"/>
        <pt x="483" y="85" on="1"/>
        <pt x="509" y="138" on="1"/>
        <pt x="509" y="142" on="0"/>
        <pt x="524" y="149" on="0"/>
        <pt x="542" y="149" on="0"/>
        <pt x="542" y="141" on="1"/>
        <pt x="468" y="-37" on="1"/>
        <pt x="440" y="-37" on="0"/>
      </contour>
    </TTGlyph>
    <TTGlyph name="M" xMin="-31" yMin="-2" xMax="975" yMax="691">
      <contour>
        <pt x="687" y="1" on="1"/>
        <pt x="546" y="-2" on="1"/>
        <pt x="541" y="-2" on="0"/>
        <pt x="541" y="6" on="1"/>
        <pt x="544" y="32" on="0"/>
        <pt x="559" y="32" on="1"/>
        <pt x="600" y="32" on="1"/>
        <pt x="632" y="32" on="0"/>
        <pt x="639" y="57" on="1"/>
        <pt x="649" y="89" on="0"/>
        <pt x="758" y="520" on="0"/>
        <pt x="768" y="559" on="1"/>
        <pt x="561" y="266" on="0"/>
        <pt x="397" y="74" on="1"/>
        <pt x="390" y="65" on="0"/>
        <pt x="365" y="67" on="0"/>
        <pt x="360" y="77" on="1"/>
        <pt x="382" y="108" on="0"/>
        <pt x="392" y="123" on="1"/>
        <pt x="334" y="318" on="0"/>
        <pt x="307" y="533" on="1"/>
        <pt x="296" y="500" on="0"/>
        <pt x="223" y="317" on="1"/>
        <pt x="134" y="88" on="0"/>
        <pt x="131" y="53" on="1"/>
        <pt x="130" y="33" on="0"/>
        <pt x="149" y="33" on="1"/>
        <pt x="206" y="33" on="1"/>
        <pt x="215" y="33" on="0"/>
        <pt x="214" y="15" on="0"/>
        <pt x="201" y="0" on="0"/>
        <pt x="193" y="0" on="1"/>
        <pt x="86" y="2" on="1"/>
        <pt x="-25" y="-2" on="1"/>
        <pt x="-31" y="-2" on="0"/>
        <pt x="-29" y="32" on="0"/>
        <pt x="-16" y="32" on="1"/>
        <pt x="15" y="32" on="1"/>
        <pt x="45" y="32" on="0"/>
        <pt x="60" y="57" on="1"/>
        <pt x="63" y="61" on="0"/>
        <pt x="80" y="102" on="1"/>
        <pt x="109" y="173" on="0"/>
        <pt x="170" y="319" on="1"/>
        <pt x="277" y="566" on="0"/>
        <pt x="277" y="621" on="1"/>
        <pt x="277" y="645" on="0"/>
        <pt x="249" y="656" on="0"/>
        <pt x="189" y="656" on="0"/>
        <pt x="189" y="673" on="1"/>
        <pt x="192" y="691" on="1"/>
        <pt x="380" y="681" on="0"/>
        <pt x="405" y="676" on="1"/>
        <pt x="399" y="636" on="0"/>
        <pt x="399" y="527" on="0"/>
        <pt x="433" y="339" on="0"/>
        <pt x="450" y="276" on="1"/>
        <pt x="467" y="213" on="1"/>
        <pt x="738" y="569" on="0"/>
        <pt x="779" y="678" on="1"/>
        <pt x="800" y="677" on="0"/>
        <pt x="884" y="677" on="0"/>
        <pt x="968" y="682" on="1"/>
        <pt x="972" y="683" on="0"/>
        <pt x="975" y="676" on="0"/>
        <pt x="975" y="671" on="1"/>
        <pt x="974" y="658" on="1"/>
        <pt x="974" y="639" on="0"/>
        <pt x="962" y="639" on="1"/>
        <pt x="918" y="641" on="1"/>
        <pt x="888" y="641" on="0"/>
        <pt x="877" y="608" on="1"/>
        <pt x="829" y="470" on="0"/>
        <pt x="756" y="145" on="0"/>
        <pt x="756" y="61" on="1"/>
        <pt x="756" y="43" on="0"/>
        <pt x="760" y="33" on="0"/>
        <pt x="769" y="33" on="1"/>
        <pt x="818" y="33" on="1"/>
        <pt x="828" y="33" on="0"/>
        <pt x="828" y="23" on="1"/>
        <pt x="827" y="15" on="0"/>
        <pt x="817" y="0" on="0"/>
        <pt x="810" y="0" on="1"/>
        <pt x="719" y="1" on="0"/>
      </contour>
    </TTGlyph>
    <TTGlyph name="N" xMin="-29" yMin="-3" xMax="843" yMax="689">
      <contour>
        <pt x="232" y="35" on="1"/>
        <pt x="213" y="-3" on="0"/>
        <pt x="185" y="-3" on="1"/>
        <pt x="50" y="15" on="1"/>
        <pt x="11" y="15" on="0"/>
        <pt x="-29" y="4" on="1"/>
        <pt x="-29" y="16" on="0"/>
        <pt x="0" y="45" on="0"/>
        <pt x="56" y="55" on="0"/>
        <pt x="103" y="121" on="0"/>
        <pt x="124" y="207" on="1"/>
        <pt x="229" y="585" on="1"/>
        <pt x="215" y="606" on="0"/>
        <pt x="182" y="627" on="0"/>
        <pt x="160" y="630" on="0"/>
        <pt x="115" y="630" on="0"/>
        <pt x="54" y="605" on="0"/>
        <pt x="35" y="605" on="0"/>
        <pt x="35" y="618" on="1"/>
        <pt x="44" y="625" on="0"/>
        <pt x="75" y="647" on="0"/>
        <pt x="159" y="684" on="0"/>
        <pt x="236" y="684" on="0"/>
        <pt x="301" y="641" on="0"/>
        <pt x="359" y="550" on="0"/>
        <pt x="384" y="500" on="1"/>
        <pt x="469" y="334" on="0"/>
        <pt x="545" y="222" on="1"/>
        <pt x="581" y="396" on="0"/>
        <pt x="636" y="556" on="0"/>
        <pt x="685" y="637" on="0"/>
        <pt x="754" y="689" on="0"/>
        <pt x="843" y="689" on="0"/>
        <pt x="843" y="654" on="1"/>
        <pt x="843" y="627" on="0"/>
        <pt x="822" y="606" on="1"/>
        <pt x="761" y="606" on="0"/>
        <pt x="668" y="497" on="0"/>
        <pt x="644" y="417" on="1"/>
        <pt x="597" y="260" on="0"/>
        <pt x="597" y="138" on="1"/>
        <pt x="597" y="86" on="0"/>
        <pt x="619" y="29" on="1"/>
        <pt x="626" y="11" on="1"/>
        <pt x="626" y="-3" on="0"/>
        <pt x="615" y="-3" on="1"/>
        <pt x="562" y="-3" on="0"/>
        <pt x="270" y="513" on="1"/>
        <pt x="213" y="276" on="0"/>
        <pt x="149" y="86" on="0"/>
        <pt x="101" y="45" on="1"/>
        <pt x="124" y="45" on="0"/>
        <pt x="208" y="35" on="0"/>
      </contour>
    </TTGlyph>
    <TTGlyph name="Ntilde" xMin="-29" yMin="-3" xMax="843" yMax="821">
      <contour>
        <pt x="565" y="708" on="1"/>
        <pt x="452" y="720" on="1"/>
        <pt x="393" y="720" on="0"/>
        <pt x="371" y="678" on="1"/>
        <pt x="368" y="671" on="0"/>
        <pt x="360" y="671" on="1"/>
        <pt x="345" y="671" on="0"/>
        <pt x="349" y="688" on="1"/>
        <pt x="361" y="731" on="0"/>
        <pt x="422" y="782" on="0"/>
        <pt x="472" y="782" on="0"/>
        <pt x="548" y="770" on="0"/>
        <pt x="597" y="770" on="0"/>
        <pt x="631" y="785" on="0"/>
        <pt x="644" y="815" on="1"/>
        <pt x="646" y="821" on="0"/>
        <pt x="654" y="821" on="1"/>
        <pt x="670" y="821" on="0"/>
        <pt x="665" y="805" on="1"/>
        <pt x="639" y="708" on="0"/>
      </contour>
      <contour>
        <pt x="232" y="35" on="1"/>
        <pt x="213" y="-3" on="0"/>
        <pt x="185" y="-3" on="1"/>
        <pt x="50" y="15" on="1"/>
        <pt x="11" y="15" on="0"/>
        <pt x="-29" y="4" on="1"/>
        <pt x="-29" y="16" on="0"/>
        <pt x="0" y="45" on="0"/>
        <pt x="56" y="55" on="0"/>
        <pt x="103" y="121" on="0"/>
        <pt x="124" y="207" on="1"/>
        <pt x="229" y="585" on="1"/>
        <pt x="215" y="606" on="0"/>
        <pt x="182" y="627" on="0"/>
        <pt x="160" y="630" on="0"/>
        <pt x="115" y="630" on="0"/>
        <pt x="54" y="605" on="0"/>
        <pt x="35" y="605" on="0"/>
        <pt x="35" y="618" on="1"/>
        <pt x="44" y="625" on="0"/>
        <pt x="75" y="647" on="0"/>
        <pt x="159" y="684" on="0"/>
        <pt x="236" y="684" on="0"/>
        <pt x="301" y="641" on="0"/>
        <pt x="359" y="550" on="0"/>
        <pt x="384" y="500" on="1"/>
        <pt x="469" y="334" on="0"/>
        <pt x="545" y="222" on="1"/>
        <pt x="581" y="396" on="0"/>
        <pt x="636" y="556" on="0"/>
        <pt x="685" y="637" on="0"/>
        <pt x="754" y="689" on="0"/>
        <pt x="843" y="689" on="0"/>
        <pt x="843" y="654" on="1"/>
        <pt x="843" y="627" on="0"/>
        <pt x="822" y="606" on="1"/>
        <pt x="761" y="606" on="0"/>
        <pt x="668" y="497" on="0"/>
        <pt x="644" y="417" on="1"/>
        <pt x="597" y="260" on="0"/>
        <pt x="597" y="138" on="1"/>
        <pt x="597" y="86" on="0"/>
        <pt x="619" y="29" on="1"/>
        <pt x="626" y="11" on="1"/>
        <pt x="626" y="-3" on="0"/>
        <pt x="615" y="-3" on="1"/>
        <pt x="562" y="-3" on="0"/>
        <pt x="270" y="513" on="1"/>
        <pt x="213" y="276" on="0"/>
        <pt x="149" y="86" on="0"/>
        <pt x="101" y="45" on="1"/>
        <pt x="124" y="45" on="0"/>
        <pt x="208" y="35" on="0"/>
      </contour>
    </TTGlyph>
    <TTGlyph name="O" xMin="14" yMin="-9" xMax="624" yMax="684">
      <contour>
        <pt x="110" y="537" on="0"/>
        <pt x="289" y="684" on="0"/>
        <pt x="507" y="684" on="0"/>
        <pt x="624" y="543" on="0"/>
        <pt x="624" y="332" on="0"/>
        <pt x="532" y="131" on="0"/>
        <pt x="351" y="-9" on="0"/>
        <pt x="126" y="-9" on="0"/>
        <pt x="14" y="122" on="0"/>
        <pt x="14" y="327" on="0"/>
      </contour>
      <contour>
        <pt x="518" y="516" on="0"/>
        <pt x="451" y="625" on="0"/>
        <pt x="308" y="625" on="0"/>
        <pt x="184" y="505" on="0"/>
        <pt x="122" y="335" on="0"/>
        <pt x="122" y="160" on="0"/>
        <pt x="195" y="46" on="0"/>
        <pt x="339" y="46" on="0"/>
        <pt x="457" y="169" on="0"/>
        <pt x="518" y="344" on="0"/>
      </contour>
    </TTGlyph>
    <TTGlyph name="OE" xMin="14" yMin="-24" xMax="944" yMax="714">
      <contour>
        <pt x="803" y="104" on="1"/>
        <pt x="810" y="105" on="1"/>
        <pt x="822" y="138" on="1"/>
        <pt x="825" y="146" on="0"/>
        <pt x="855" y="146" on="0"/>
        <pt x="855" y="138" on="1"/>
        <pt x="829" y="79" on="0"/>
        <pt x="805" y="-17" on="1"/>
        <pt x="804" y="-24" on="0"/>
        <pt x="786" y="-24" on="0"/>
        <pt x="782" y="-22" on="1"/>
        <pt x="774" y="-19" on="0"/>
        <pt x="774" y="-17" on="1"/>
        <pt x="782" y="11" on="1"/>
        <pt x="649" y="43" on="0"/>
        <pt x="427" y="50" on="1"/>
        <pt x="341" y="-9" on="0"/>
        <pt x="126" y="-9" on="0"/>
        <pt x="14" y="122" on="0"/>
        <pt x="14" y="327" on="0"/>
        <pt x="110" y="537" on="0"/>
        <pt x="289" y="684" on="0"/>
        <pt x="392" y="684" on="1"/>
        <pt x="469" y="684" on="0"/>
        <pt x="526" y="648" on="1"/>
        <pt x="907" y="673" on="1"/>
        <pt x="916" y="708" on="1"/>
        <pt x="917" y="714" on="0"/>
        <pt x="944" y="714" on="0"/>
        <pt x="944" y="705" on="1"/>
        <pt x="927" y="592" on="0"/>
        <pt x="927" y="540" on="1"/>
        <pt x="927" y="533" on="0"/>
        <pt x="899" y="533" on="0"/>
        <pt x="898" y="546" on="1"/>
        <pt x="896" y="564" on="0"/>
        <pt x="884" y="586" on="1"/>
        <pt x="855" y="597" on="0"/>
        <pt x="682" y="617" on="0"/>
        <pt x="597" y="617" on="0"/>
        <pt x="569" y="616" on="0"/>
        <pt x="563" y="616" on="1"/>
        <pt x="624" y="549" on="0"/>
        <pt x="624" y="434" on="1"/>
        <pt x="624" y="410" on="0"/>
        <pt x="620" y="370" on="1"/>
        <pt x="709" y="372" on="0"/>
        <pt x="804" y="386" on="0"/>
        <pt x="808" y="388" on="1"/>
        <pt x="829" y="443" on="1"/>
        <pt x="833" y="450" on="0"/>
        <pt x="860" y="450" on="0"/>
        <pt x="860" y="441" on="1"/>
        <pt x="832" y="364" on="0"/>
        <pt x="821" y="263" on="1"/>
        <pt x="821" y="255" on="0"/>
        <pt x="791" y="255" on="0"/>
        <pt x="791" y="261" on="1"/>
        <pt x="791" y="307" on="1"/>
        <pt x="778" y="315" on="0"/>
        <pt x="652" y="334" on="0"/>
        <pt x="612" y="335" on="1"/>
        <pt x="598" y="268" on="0"/>
        <pt x="528" y="141" on="0"/>
        <pt x="482" y="95" on="1"/>
        <pt x="573" y="88" on="0"/>
        <pt x="725" y="88" on="0"/>
      </contour>
      <contour>
        <pt x="518" y="516" on="0"/>
        <pt x="451" y="625" on="0"/>
        <pt x="308" y="625" on="0"/>
        <pt x="184" y="505" on="0"/>
        <pt x="122" y="335" on="0"/>
        <pt x="122" y="160" on="0"/>
        <pt x="195" y="46" on="0"/>
        <pt x="339" y="46" on="0"/>
        <pt x="457" y="169" on="0"/>
        <pt x="518" y="344" on="0"/>
      </contour>
    </TTGlyph>
    <TTGlyph name="Oacute" xMin="14" yMin="-9" xMax="624" yMax="873">
      <contour>
        <pt x="550" y="785" on="0"/>
        <pt x="451" y="724" on="0"/>
        <pt x="421" y="701" on="0"/>
        <pt x="402" y="701" on="0"/>
        <pt x="400" y="710" on="1"/>
        <pt x="400" y="714" on="0"/>
        <pt x="428" y="743" on="0"/>
        <pt x="488" y="831" on="0"/>
        <pt x="531" y="873" on="0"/>
        <pt x="552" y="873" on="1"/>
        <pt x="593" y="873" on="0"/>
        <pt x="593" y="838" on="1"/>
        <pt x="593" y="821" on="0"/>
      </contour>
      <contour>
        <pt x="110" y="537" on="0"/>
        <pt x="289" y="684" on="0"/>
        <pt x="507" y="684" on="0"/>
        <pt x="624" y="543" on="0"/>
        <pt x="624" y="332" on="0"/>
        <pt x="532" y="131" on="0"/>
        <pt x="351" y="-9" on="0"/>
        <pt x="126" y="-9" on="0"/>
        <pt x="14" y="122" on="0"/>
        <pt x="14" y="327" on="0"/>
      </contour>
      <contour>
        <pt x="518" y="516" on="0"/>
        <pt x="451" y="625" on="0"/>
        <pt x="308" y="625" on="0"/>
        <pt x="184" y="505" on="0"/>
        <pt x="122" y="335" on="0"/>
        <pt x="122" y="160" on="0"/>
        <pt x="195" y="46" on="0"/>
        <pt x="339" y="46" on="0"/>
        <pt x="457" y="169" on="0"/>
        <pt x="518" y="344" on="0"/>
      </contour>
    </TTGlyph>
    <TTGlyph name="Ocircumflex" xMin="14" yMin="-9" xMax="624" yMax="861">
      <contour>
        <pt x="328" y="710" on="1"/>
        <pt x="319" y="702" on="0"/>
        <pt x="303" y="702" on="0"/>
        <pt x="301" y="710" on="1"/>
        <pt x="425" y="848" on="1"/>
        <pt x="438" y="861" on="0"/>
        <pt x="465" y="861" on="0"/>
        <pt x="475" y="848" on="1"/>
        <pt x="547" y="710" on="1"/>
        <pt x="542" y="703" on="0"/>
        <pt x="525" y="703" on="0"/>
        <pt x="519" y="710" on="1"/>
        <pt x="439" y="794" on="1"/>
      </contour>
      <contour>
        <pt x="110" y="537" on="0"/>
        <pt x="289" y="684" on="0"/>
        <pt x="507" y="684" on="0"/>
        <pt x="624" y="543" on="0"/>
        <pt x="624" y="332" on="0"/>
        <pt x="532" y="131" on="0"/>
        <pt x="351" y="-9" on="0"/>
        <pt x="126" y="-9" on="0"/>
        <pt x="14" y="122" on="0"/>
        <pt x="14" y="327" on="0"/>
      </contour>
      <contour>
        <pt x="518" y="516" on="0"/>
        <pt x="451" y="625" on="0"/>
        <pt x="308" y="625" on="0"/>
        <pt x="184" y="505" on="0"/>
        <pt x="122" y="335" on="0"/>
        <pt x="122" y="160" on="0"/>
        <pt x="195" y="46" on="0"/>
        <pt x="339" y="46" on="0"/>
        <pt x="457" y="169" on="0"/>
        <pt x="518" y="344" on="0"/>
      </contour>
    </TTGlyph>
    <TTGlyph name="Odieresis" xMin="14" yMin="-9" xMax="624" yMax="809">
      <contour>
        <pt x="381" y="744" on="0"/>
        <pt x="353" y="715" on="0"/>
        <pt x="313" y="715" on="0"/>
        <pt x="287" y="743" on="0"/>
        <pt x="287" y="783" on="0"/>
        <pt x="315" y="809" on="0"/>
        <pt x="352" y="809" on="0"/>
        <pt x="381" y="782" on="0"/>
      </contour>
      <contour>
        <pt x="529" y="743" on="0"/>
        <pt x="503" y="715" on="0"/>
        <pt x="462" y="715" on="0"/>
        <pt x="435" y="744" on="0"/>
        <pt x="435" y="783" on="0"/>
        <pt x="463" y="809" on="0"/>
        <pt x="501" y="809" on="0"/>
        <pt x="529" y="783" on="0"/>
      </contour>
      <contour>
        <pt x="110" y="537" on="0"/>
        <pt x="289" y="684" on="0"/>
        <pt x="507" y="684" on="0"/>
        <pt x="624" y="543" on="0"/>
        <pt x="624" y="332" on="0"/>
        <pt x="532" y="131" on="0"/>
        <pt x="351" y="-9" on="0"/>
        <pt x="126" y="-9" on="0"/>
        <pt x="14" y="122" on="0"/>
        <pt x="14" y="327" on="0"/>
      </contour>
      <contour>
        <pt x="518" y="516" on="0"/>
        <pt x="451" y="625" on="0"/>
        <pt x="308" y="625" on="0"/>
        <pt x="184" y="505" on="0"/>
        <pt x="122" y="335" on="0"/>
        <pt x="122" y="160" on="0"/>
        <pt x="195" y="46" on="0"/>
        <pt x="339" y="46" on="0"/>
        <pt x="457" y="169" on="0"/>
        <pt x="518" y="344" on="0"/>
      </contour>
    </TTGlyph>
    <TTGlyph name="Ograve" xMin="14" yMin="-9" xMax="624" yMax="880">
      <contour>
        <pt x="331" y="792" on="0"/>
        <pt x="288" y="828" on="0"/>
        <pt x="288" y="861" on="0"/>
        <pt x="307" y="880" on="0"/>
        <pt x="350" y="880" on="0"/>
        <pt x="393" y="838" on="0"/>
        <pt x="453" y="750" on="0"/>
        <pt x="481" y="721" on="0"/>
        <pt x="481" y="717" on="1"/>
        <pt x="479" y="708" on="0"/>
        <pt x="460" y="708" on="0"/>
        <pt x="430" y="731" on="0"/>
      </contour>
      <contour>
        <pt x="110" y="537" on="0"/>
        <pt x="289" y="684" on="0"/>
        <pt x="507" y="684" on="0"/>
        <pt x="624" y="543" on="0"/>
        <pt x="624" y="332" on="0"/>
        <pt x="532" y="131" on="0"/>
        <pt x="351" y="-9" on="0"/>
        <pt x="126" y="-9" on="0"/>
        <pt x="14" y="122" on="0"/>
        <pt x="14" y="327" on="0"/>
      </contour>
      <contour>
        <pt x="518" y="516" on="0"/>
        <pt x="451" y="625" on="0"/>
        <pt x="308" y="625" on="0"/>
        <pt x="184" y="505" on="0"/>
        <pt x="122" y="335" on="0"/>
        <pt x="122" y="160" on="0"/>
        <pt x="195" y="46" on="0"/>
        <pt x="339" y="46" on="0"/>
        <pt x="457" y="169" on="0"/>
        <pt x="518" y="344" on="0"/>
      </contour>
    </TTGlyph>
    <TTGlyph name="Oslash" xMin="-36" yMin="-137" xMax="669" yMax="766">
      <contour>
        <pt x="566" y="612" on="1"/>
        <pt x="624" y="547" on="0"/>
        <pt x="624" y="332" on="0"/>
        <pt x="532" y="131" on="0"/>
        <pt x="351" y="-9" on="0"/>
        <pt x="239" y="-9" on="1"/>
        <pt x="170" y="-9" on="0"/>
        <pt x="119" y="18" on="1"/>
        <pt x="21" y="-113" on="1"/>
        <pt x="5" y="-137" on="0"/>
        <pt x="-23" y="-137" on="0"/>
        <pt x="-36" y="-120" on="1"/>
        <pt x="85" y="41" on="1"/>
        <pt x="14" y="103" on="0"/>
        <pt x="14" y="225" on="1"/>
        <pt x="14" y="327" on="0"/>
        <pt x="110" y="537" on="0"/>
        <pt x="289" y="684" on="0"/>
        <pt x="478" y="684" on="0"/>
        <pt x="535" y="641" on="1"/>
        <pt x="614" y="746" on="1"/>
        <pt x="629" y="766" on="0"/>
        <pt x="639" y="766" on="1"/>
        <pt x="658" y="766" on="0"/>
        <pt x="669" y="749" on="1"/>
      </contour>
      <contour>
        <pt x="483" y="572" on="1"/>
        <pt x="448" y="625" on="0"/>
        <pt x="308" y="625" on="0"/>
        <pt x="184" y="505" on="0"/>
        <pt x="122" y="335" on="0"/>
        <pt x="122" y="174" on="0"/>
        <pt x="147" y="124" on="1"/>
      </contour>
      <contour>
        <pt x="457" y="169" on="0"/>
        <pt x="518" y="344" on="0"/>
        <pt x="518" y="484" on="0"/>
        <pt x="504" y="529" on="1"/>
        <pt x="171" y="86" on="1"/>
        <pt x="208" y="46" on="0"/>
        <pt x="339" y="46" on="0"/>
      </contour>
    </TTGlyph>
    <TTGlyph name="Otilde" xMin="14" yMin="-9" xMax="624" yMax="843">
      <contour>
        <pt x="265" y="693" on="1"/>
        <pt x="250" y="693" on="0"/>
        <pt x="254" y="710" on="1"/>
        <pt x="266" y="753" on="0"/>
        <pt x="327" y="804" on="0"/>
        <pt x="377" y="804" on="0"/>
        <pt x="436" y="792" on="0"/>
        <pt x="485" y="792" on="0"/>
        <pt x="519" y="807" on="0"/>
        <pt x="532" y="837" on="1"/>
        <pt x="534" y="843" on="0"/>
        <pt x="542" y="843" on="1"/>
        <pt x="558" y="843" on="0"/>
        <pt x="553" y="827" on="1"/>
        <pt x="527" y="730" on="0"/>
        <pt x="453" y="730" on="1"/>
        <pt x="435" y="730" on="0"/>
        <pt x="375" y="742" on="0"/>
        <pt x="357" y="742" on="1"/>
        <pt x="298" y="742" on="0"/>
        <pt x="276" y="700" on="1"/>
        <pt x="272" y="693" on="0"/>
      </contour>
      <contour>
        <pt x="110" y="537" on="0"/>
        <pt x="289" y="684" on="0"/>
        <pt x="507" y="684" on="0"/>
        <pt x="624" y="543" on="0"/>
        <pt x="624" y="332" on="0"/>
        <pt x="532" y="131" on="0"/>
        <pt x="351" y="-9" on="0"/>
        <pt x="126" y="-9" on="0"/>
        <pt x="14" y="122" on="0"/>
        <pt x="14" y="327" on="0"/>
      </contour>
      <contour>
        <pt x="518" y="516" on="0"/>
        <pt x="451" y="625" on="0"/>
        <pt x="308" y="625" on="0"/>
        <pt x="184" y="505" on="0"/>
        <pt x="122" y="335" on="0"/>
        <pt x="122" y="160" on="0"/>
        <pt x="195" y="46" on="0"/>
        <pt x="339" y="46" on="0"/>
        <pt x="457" y="169" on="0"/>
        <pt x="518" y="344" on="0"/>
      </contour>
    </TTGlyph>
    <TTGlyph name="P" xMin="-35" yMin="-4" xMax="555" yMax="671">
      <contour>
        <pt x="214" y="-4" on="1"/>
        <pt x="64" y="11" on="0"/>
        <pt x="-35" y="11" on="0"/>
        <pt x="-35" y="6" on="1"/>
        <pt x="-35" y="38" on="0"/>
        <pt x="13" y="41" on="1"/>
        <pt x="45" y="43" on="0"/>
        <pt x="87" y="120" on="0"/>
        <pt x="99" y="207" on="1"/>
        <pt x="157" y="618" on="1"/>
        <pt x="93" y="616" on="0"/>
        <pt x="22" y="579" on="1"/>
        <pt x="16" y="584" on="0"/>
        <pt x="15" y="612" on="0"/>
        <pt x="68" y="645" on="0"/>
        <pt x="210" y="671" on="0"/>
        <pt x="314" y="671" on="1"/>
        <pt x="367" y="671" on="0"/>
        <pt x="473" y="631" on="0"/>
        <pt x="555" y="538" on="0"/>
        <pt x="555" y="477" on="1"/>
        <pt x="555" y="402" on="0"/>
        <pt x="409" y="299" on="0"/>
        <pt x="310" y="299" on="1"/>
        <pt x="262" y="299" on="0"/>
        <pt x="219" y="312" on="1"/>
        <pt x="218" y="308" on="0"/>
        <pt x="203" y="226" on="0"/>
        <pt x="191" y="179" on="0"/>
        <pt x="180" y="142" on="1"/>
        <pt x="160" y="70" on="0"/>
        <pt x="125" y="39" on="1"/>
        <pt x="148" y="39" on="0"/>
        <pt x="223" y="30" on="0"/>
        <pt x="250" y="29" on="1"/>
        <pt x="247" y="16" on="0"/>
        <pt x="226" y="-4" on="0"/>
      </contour>
      <contour>
        <pt x="291" y="341" on="1"/>
        <pt x="355" y="341" on="0"/>
        <pt x="445" y="420" on="0"/>
        <pt x="445" y="547" on="0"/>
        <pt x="353" y="631" on="0"/>
        <pt x="292" y="631" on="1"/>
        <pt x="263" y="631" on="0"/>
        <pt x="256" y="585" on="1"/>
        <pt x="224" y="353" on="1"/>
        <pt x="257" y="341" on="0"/>
      </contour>
    </TTGlyph>
    <TTGlyph name="Q" xMin="59" yMin="-343" xMax="989" yMax="684">
      <contour>
        <pt x="300" y="119" on="1"/>
        <pt x="341" y="119" on="0"/>
        <pt x="367" y="137" on="1"/>
        <pt x="378" y="137" on="0"/>
        <pt x="378" y="128" on="1"/>
        <pt x="378" y="111" on="0"/>
        <pt x="304" y="68" on="0"/>
        <pt x="253" y="68" on="1"/>
        <pt x="162" y="68" on="0"/>
        <pt x="59" y="192" on="0"/>
        <pt x="59" y="369" on="0"/>
        <pt x="154" y="555" on="0"/>
        <pt x="328" y="684" on="0"/>
        <pt x="428" y="684" on="1"/>
        <pt x="549" y="684" on="0"/>
        <pt x="666" y="555" on="0"/>
        <pt x="666" y="448" on="1"/>
        <pt x="666" y="375" on="0"/>
        <pt x="577" y="179" on="0"/>
        <pt x="439" y="5" on="0"/>
        <pt x="250" y="-117" on="0"/>
        <pt x="160" y="-117" on="1"/>
        <pt x="132" y="-117" on="0"/>
        <pt x="97" y="-88" on="0"/>
        <pt x="97" y="-68" on="1"/>
        <pt x="97" y="-34" on="0"/>
        <pt x="170" y="15" on="0"/>
        <pt x="305" y="15" on="0"/>
        <pt x="454" y="-46" on="0"/>
        <pt x="589" y="-133" on="0"/>
        <pt x="654" y="-176" on="1"/>
        <pt x="808" y="-281" on="0"/>
        <pt x="891" y="-281" on="1"/>
        <pt x="914" y="-281" on="0"/>
        <pt x="943" y="-259" on="0"/>
        <pt x="943" y="-224" on="0"/>
        <pt x="885" y="-186" on="0"/>
        <pt x="851" y="-186" on="1"/>
        <pt x="854" y="-166" on="0"/>
        <pt x="893" y="-132" on="0"/>
        <pt x="948" y="-132" on="0"/>
        <pt x="989" y="-167" on="0"/>
        <pt x="989" y="-198" on="1"/>
        <pt x="989" y="-257" on="0"/>
        <pt x="908" y="-343" on="0"/>
        <pt x="773" y="-343" on="0"/>
        <pt x="631" y="-278" on="0"/>
        <pt x="511" y="-186" on="0"/>
        <pt x="453" y="-140" on="1"/>
        <pt x="313" y="-29" on="0"/>
        <pt x="218" y="-29" on="1"/>
        <pt x="169" y="-29" on="0"/>
        <pt x="169" y="-48" on="1"/>
        <pt x="169" y="-60" on="0"/>
        <pt x="188" y="-60" on="1"/>
        <pt x="273" y="-60" on="0"/>
        <pt x="420" y="47" on="0"/>
        <pt x="509" y="205" on="0"/>
        <pt x="559" y="372" on="0"/>
        <pt x="559" y="440" on="1"/>
        <pt x="559" y="633" on="0"/>
        <pt x="424" y="633" on="1"/>
        <pt x="351" y="633" on="0"/>
        <pt x="232" y="528" on="0"/>
        <pt x="171" y="375" on="0"/>
        <pt x="171" y="221" on="0"/>
        <pt x="237" y="119" on="0"/>
      </contour>
    </TTGlyph>
    <TTGlyph name="R" xMin="-32" yMin="-12" xMax="638" yMax="671">
      <contour>
        <pt x="493" y="109" on="0"/>
        <pt x="562" y="29" on="0"/>
        <pt x="605" y="29" on="0"/>
        <pt x="629" y="45" on="1"/>
        <pt x="638" y="42" on="0"/>
        <pt x="638" y="34" on="1"/>
        <pt x="638" y="20" on="0"/>
        <pt x="567" y="-12" on="0"/>
        <pt x="499" y="-12" on="0"/>
        <pt x="449" y="18" on="0"/>
        <pt x="425" y="50" on="1"/>
        <pt x="386" y="102" on="0"/>
        <pt x="354" y="160" on="1"/>
        <pt x="272" y="303" on="1"/>
        <pt x="253" y="306" on="0"/>
        <pt x="237" y="312" on="1"/>
        <pt x="235" y="306" on="0"/>
        <pt x="220" y="244" on="0"/>
        <pt x="210" y="205" on="0"/>
        <pt x="190" y="141" on="0"/>
        <pt x="180" y="119" on="1"/>
        <pt x="156" y="62" on="0"/>
        <pt x="129" y="39" on="1"/>
        <pt x="142" y="39" on="0"/>
        <pt x="210" y="31" on="0"/>
        <pt x="239" y="30" on="1"/>
        <pt x="236" y="18" on="0"/>
        <pt x="213" y="-3" on="0"/>
        <pt x="201" y="-3" on="1"/>
        <pt x="61" y="11" on="0"/>
        <pt x="-30" y="11" on="0"/>
        <pt x="-32" y="6" on="1"/>
        <pt x="-32" y="22" on="0"/>
        <pt x="-3" y="40" on="0"/>
        <pt x="17" y="41" on="1"/>
        <pt x="82" y="46" on="0"/>
        <pt x="111" y="207" on="1"/>
        <pt x="177" y="518" on="0"/>
        <pt x="186" y="617" on="1"/>
        <pt x="125" y="615" on="0"/>
        <pt x="52" y="578" on="1"/>
        <pt x="48" y="584" on="0"/>
        <pt x="49" y="612" on="0"/>
        <pt x="103" y="645" on="0"/>
        <pt x="247" y="671" on="0"/>
        <pt x="434" y="671" on="0"/>
        <pt x="581" y="572" on="0"/>
        <pt x="581" y="413" on="0"/>
        <pt x="452" y="309" on="0"/>
        <pt x="361" y="300" on="1"/>
        <pt x="394" y="269" on="0"/>
        <pt x="422" y="225" on="1"/>
        <pt x="468" y="150" on="1"/>
      </contour>
      <contour>
        <pt x="310" y="341" on="1"/>
        <pt x="375" y="341" on="0"/>
        <pt x="468" y="422" on="0"/>
        <pt x="472" y="489" on="1"/>
        <pt x="472" y="552" on="0"/>
        <pt x="386" y="631" on="0"/>
        <pt x="327" y="631" on="1"/>
        <pt x="298" y="631" on="0"/>
        <pt x="288" y="585" on="1"/>
        <pt x="244" y="353" on="1"/>
        <pt x="277" y="341" on="0"/>
      </contour>
    </TTGlyph>
    <TTGlyph name="S" xMin="17" yMin="-13" xMax="502" yMax="693">
      <contour>
        <pt x="476" y="532" on="1"/>
        <pt x="476" y="525" on="0"/>
        <pt x="448" y="525" on="0"/>
        <pt x="448" y="534" on="1"/>
        <pt x="448" y="537" on="0"/>
        <pt x="448" y="560" on="0"/>
        <pt x="443" y="577" on="1"/>
        <pt x="406" y="640" on="0"/>
        <pt x="343" y="640" on="1"/>
        <pt x="297" y="640" on="0"/>
        <pt x="221" y="580" on="0"/>
        <pt x="221" y="532" on="1"/>
        <pt x="221" y="477" on="0"/>
        <pt x="298" y="406" on="1"/>
        <pt x="330" y="377" on="0"/>
        <pt x="393" y="312" on="0"/>
        <pt x="438" y="224" on="0"/>
        <pt x="438" y="176" on="1"/>
        <pt x="438" y="84" on="0"/>
        <pt x="310" y="-13" on="0"/>
        <pt x="127" y="-13" on="0"/>
        <pt x="62" y="44" on="1"/>
        <pt x="49" y="20" on="0"/>
        <pt x="45" y="3" on="1"/>
        <pt x="41" y="-3" on="0"/>
        <pt x="31" y="-3" on="1"/>
        <pt x="17" y="-3" on="0"/>
        <pt x="17" y="9" on="1"/>
        <pt x="17" y="17" on="0"/>
        <pt x="24" y="30" on="1"/>
        <pt x="55" y="90" on="0"/>
        <pt x="73" y="144" on="0"/>
        <pt x="75" y="149" on="0"/>
        <pt x="81" y="162" on="0"/>
        <pt x="86" y="166" on="0"/>
        <pt x="90" y="169" on="1"/>
        <pt x="97" y="174" on="0"/>
        <pt x="113" y="167" on="1"/>
        <pt x="102" y="132" on="0"/>
        <pt x="98" y="115" on="1"/>
        <pt x="117" y="80" on="0"/>
        <pt x="190" y="32" on="0"/>
        <pt x="274" y="32" on="0"/>
        <pt x="343" y="88" on="0"/>
        <pt x="343" y="137" on="1"/>
        <pt x="343" y="191" on="0"/>
        <pt x="270" y="264" on="1"/>
        <pt x="239" y="295" on="0"/>
        <pt x="179" y="360" on="0"/>
        <pt x="136" y="445" on="0"/>
        <pt x="136" y="489" on="1"/>
        <pt x="136" y="582" on="0"/>
        <pt x="268" y="691" on="0"/>
        <pt x="357" y="691" on="1"/>
        <pt x="419" y="691" on="0"/>
        <pt x="468" y="665" on="1"/>
        <pt x="477" y="687" on="1"/>
        <pt x="480" y="693" on="0"/>
        <pt x="484" y="693" on="1"/>
        <pt x="490" y="693" on="0"/>
        <pt x="502" y="682" on="1"/>
        <pt x="476" y="604" on="0"/>
        <pt x="476" y="547" on="1"/>
        <pt x="476" y="539" on="0"/>
      </contour>
    </TTGlyph>
    <TTGlyph name="Scaron" xMin="17" yMin="-13" xMax="531" yMax="872">
      <contour>
        <pt x="504" y="864" on="1"/>
        <pt x="513" y="872" on="0"/>
        <pt x="529" y="872" on="0"/>
        <pt x="531" y="864" on="1"/>
        <pt x="407" y="726" on="1"/>
        <pt x="394" y="713" on="0"/>
        <pt x="367" y="713" on="0"/>
        <pt x="357" y="726" on="1"/>
        <pt x="285" y="864" on="1"/>
        <pt x="290" y="871" on="0"/>
        <pt x="307" y="871" on="0"/>
        <pt x="313" y="864" on="1"/>
        <pt x="393" y="780" on="1"/>
      </contour>
      <contour>
        <pt x="476" y="532" on="1"/>
        <pt x="476" y="525" on="0"/>
        <pt x="448" y="525" on="0"/>
        <pt x="448" y="534" on="1"/>
        <pt x="448" y="537" on="0"/>
        <pt x="448" y="560" on="0"/>
        <pt x="443" y="577" on="1"/>
        <pt x="406" y="640" on="0"/>
        <pt x="343" y="640" on="1"/>
        <pt x="297" y="640" on="0"/>
        <pt x="221" y="580" on="0"/>
        <pt x="221" y="532" on="1"/>
        <pt x="221" y="477" on="0"/>
        <pt x="298" y="406" on="1"/>
        <pt x="330" y="377" on="0"/>
        <pt x="393" y="312" on="0"/>
        <pt x="438" y="224" on="0"/>
        <pt x="438" y="176" on="1"/>
        <pt x="438" y="84" on="0"/>
        <pt x="310" y="-13" on="0"/>
        <pt x="127" y="-13" on="0"/>
        <pt x="62" y="44" on="1"/>
        <pt x="49" y="20" on="0"/>
        <pt x="45" y="3" on="1"/>
        <pt x="41" y="-3" on="0"/>
        <pt x="31" y="-3" on="1"/>
        <pt x="17" y="-3" on="0"/>
        <pt x="17" y="9" on="1"/>
        <pt x="17" y="17" on="0"/>
        <pt x="24" y="30" on="1"/>
        <pt x="55" y="90" on="0"/>
        <pt x="73" y="144" on="0"/>
        <pt x="75" y="149" on="0"/>
        <pt x="81" y="162" on="0"/>
        <pt x="86" y="166" on="0"/>
        <pt x="90" y="169" on="1"/>
        <pt x="97" y="174" on="0"/>
        <pt x="113" y="167" on="1"/>
        <pt x="102" y="132" on="0"/>
        <pt x="98" y="115" on="1"/>
        <pt x="117" y="80" on="0"/>
        <pt x="190" y="32" on="0"/>
        <pt x="274" y="32" on="0"/>
        <pt x="343" y="88" on="0"/>
        <pt x="343" y="137" on="1"/>
        <pt x="343" y="191" on="0"/>
        <pt x="270" y="264" on="1"/>
        <pt x="239" y="295" on="0"/>
        <pt x="179" y="360" on="0"/>
        <pt x="136" y="445" on="0"/>
        <pt x="136" y="489" on="1"/>
        <pt x="136" y="582" on="0"/>
        <pt x="268" y="691" on="0"/>
        <pt x="357" y="691" on="1"/>
        <pt x="419" y="691" on="0"/>
        <pt x="468" y="665" on="1"/>
        <pt x="477" y="687" on="1"/>
        <pt x="480" y="693" on="0"/>
        <pt x="484" y="693" on="1"/>
        <pt x="490" y="693" on="0"/>
        <pt x="502" y="682" on="1"/>
        <pt x="476" y="604" on="0"/>
        <pt x="476" y="547" on="1"/>
        <pt x="476" y="539" on="0"/>
      </contour>
    </TTGlyph>
    <TTGlyph name="T" xMin="2" yMin="-2" xMax="654" yMax="698">
      <contour>
        <pt x="234" y="1" on="1"/>
        <pt x="93" y="-2" on="1"/>
        <pt x="87" y="-2" on="0"/>
        <pt x="87" y="8" on="1"/>
        <pt x="86" y="32" on="0"/>
        <pt x="100" y="32" on="1"/>
        <pt x="143" y="32" on="1"/>
        <pt x="168" y="32" on="0"/>
        <pt x="187" y="51" on="0"/>
        <pt x="192" y="78" on="1"/>
        <pt x="287" y="535" on="1"/>
        <pt x="296" y="577" on="0"/>
        <pt x="295" y="620" on="0"/>
        <pt x="205" y="620" on="1"/>
        <pt x="146" y="620" on="0"/>
        <pt x="88" y="590" on="0"/>
        <pt x="88" y="518" on="0"/>
        <pt x="105" y="482" on="1"/>
        <pt x="76" y="448" on="0"/>
        <pt x="42" y="448" on="1"/>
        <pt x="2" y="448" on="0"/>
        <pt x="2" y="553" on="0"/>
        <pt x="127" y="667" on="0"/>
        <pt x="221" y="667" on="1"/>
        <pt x="329" y="667" on="0"/>
        <pt x="551" y="649" on="0"/>
        <pt x="556" y="649" on="1"/>
        <pt x="617" y="649" on="0"/>
        <pt x="634" y="687" on="1"/>
        <pt x="639" y="698" on="0"/>
        <pt x="654" y="698" on="0"/>
        <pt x="654" y="694" on="1"/>
        <pt x="654" y="674" on="0"/>
        <pt x="614" y="595" on="0"/>
        <pt x="597" y="595" on="1"/>
        <pt x="527" y="595" on="0"/>
        <pt x="405" y="607" on="1"/>
        <pt x="304" y="121" on="1"/>
        <pt x="298" y="88" on="0"/>
        <pt x="298" y="33" on="0"/>
        <pt x="309" y="33" on="1"/>
        <pt x="367" y="33" on="1"/>
        <pt x="371" y="33" on="0"/>
        <pt x="371" y="27" on="1"/>
        <pt x="371" y="1" on="0"/>
        <pt x="362" y="0" on="1"/>
        <pt x="273" y="1" on="0"/>
      </contour>
    </TTGlyph>
    <TTGlyph name="Thorn" xMin="-13" yMin="-4" xMax="567" yMax="671">
      <contour>
        <pt x="61" y="598" on="1"/>
        <pt x="61" y="635" on="0"/>
        <pt x="234" y="671" on="0"/>
        <pt x="376" y="671" on="1"/>
        <pt x="398" y="671" on="0"/>
        <pt x="398" y="658" on="1"/>
        <pt x="398" y="650" on="0"/>
        <pt x="387" y="638" on="0"/>
        <pt x="386" y="636" on="1"/>
        <pt x="328" y="636" on="1"/>
        <pt x="317" y="636" on="0"/>
        <pt x="306" y="613" on="0"/>
        <pt x="301" y="586" on="1"/>
        <pt x="295" y="554" on="1"/>
        <pt x="315" y="554" on="1"/>
        <pt x="423" y="554" on="0"/>
        <pt x="567" y="454" on="0"/>
        <pt x="567" y="287" on="0"/>
        <pt x="424" y="191" on="0"/>
        <pt x="322" y="191" on="1"/>
        <pt x="269" y="191" on="0"/>
        <pt x="224" y="205" on="1"/>
        <pt x="191" y="80" on="0"/>
        <pt x="146" y="41" on="1"/>
        <pt x="169" y="41" on="0"/>
        <pt x="248" y="31" on="0"/>
        <pt x="272" y="31" on="1"/>
        <pt x="269" y="19" on="0"/>
        <pt x="244" y="-4" on="0"/>
        <pt x="230" y="-4" on="1"/>
        <pt x="65" y="15" on="1"/>
        <pt x="24" y="15" on="0"/>
        <pt x="-13" y="4" on="1"/>
        <pt x="-13" y="8" on="0"/>
        <pt x="-12" y="20" on="0"/>
        <pt x="11" y="43" on="0"/>
        <pt x="32" y="46" on="1"/>
        <pt x="68" y="51" on="0"/>
        <pt x="110" y="119" on="0"/>
        <pt x="127" y="207" on="1"/>
        <pt x="207" y="623" on="1"/>
        <pt x="141" y="621" on="0"/>
        <pt x="68" y="584" on="1"/>
        <pt x="61" y="593" on="0"/>
      </contour>
      <contour>
        <pt x="318" y="513" on="1"/>
        <pt x="295" y="513" on="0"/>
        <pt x="284" y="489" on="1"/>
        <pt x="242" y="276" on="0"/>
        <pt x="235" y="246" on="1"/>
        <pt x="269" y="233" on="0"/>
        <pt x="305" y="233" on="1"/>
        <pt x="370" y="233" on="0"/>
        <pt x="454" y="305" on="0"/>
        <pt x="458" y="372" on="1"/>
        <pt x="458" y="435" on="0"/>
        <pt x="377" y="513" on="0"/>
      </contour>
    </TTGlyph>
    <TTGlyph name="U" xMin="3" yMin="-15" xMax="724" yMax="680">
      <contour>
        <pt x="619" y="671" on="1"/>
        <pt x="720" y="674" on="1"/>
        <pt x="724" y="674" on="0"/>
        <pt x="724" y="668" on="1"/>
        <pt x="724" y="665" on="1"/>
        <pt x="724" y="654" on="0"/>
        <pt x="714" y="640" on="0"/>
        <pt x="710" y="640" on="1"/>
        <pt x="682" y="640" on="1"/>
        <pt x="660" y="640" on="0"/>
        <pt x="633" y="538" on="1"/>
        <pt x="571" y="300" on="0"/>
        <pt x="512" y="192" on="1"/>
        <pt x="479" y="133" on="0"/>
        <pt x="402" y="41" on="0"/>
        <pt x="290" y="-15" on="0"/>
        <pt x="224" y="-15" on="1"/>
        <pt x="139" y="-15" on="0"/>
        <pt x="25" y="90" on="0"/>
        <pt x="25" y="178" on="1"/>
        <pt x="30" y="325" on="0"/>
        <pt x="88" y="540" on="1"/>
        <pt x="107" y="608" on="0"/>
        <pt x="107" y="635" on="1"/>
        <pt x="3" y="639" on="1"/>
        <pt x="3" y="677" on="0"/>
        <pt x="29" y="677" on="1"/>
        <pt x="136" y="672" on="0"/>
        <pt x="217" y="672" on="0"/>
        <pt x="300" y="680" on="0"/>
        <pt x="309" y="680" on="1"/>
        <pt x="313" y="680" on="0"/>
        <pt x="313" y="662" on="0"/>
        <pt x="303" y="641" on="0"/>
        <pt x="296" y="641" on="1"/>
        <pt x="259" y="641" on="1"/>
        <pt x="234" y="641" on="0"/>
        <pt x="213" y="622" on="0"/>
        <pt x="208" y="595" on="1"/>
        <pt x="178" y="495" on="0"/>
        <pt x="133" y="265" on="0"/>
        <pt x="133" y="197" on="1"/>
        <pt x="137" y="127" on="0"/>
        <pt x="201" y="54" on="0"/>
        <pt x="315" y="54" on="0"/>
        <pt x="413" y="123" on="0"/>
        <pt x="475" y="235" on="0"/>
        <pt x="521" y="363" on="0"/>
        <pt x="532" y="430" on="1"/>
        <pt x="555" y="560" on="0"/>
        <pt x="555" y="619" on="1"/>
        <pt x="554" y="639" on="0"/>
        <pt x="545" y="639" on="1"/>
        <pt x="482" y="637" on="1"/>
        <pt x="484" y="648" on="1"/>
        <pt x="487" y="673" on="0"/>
        <pt x="496" y="673" on="1"/>
      </contour>
    </TTGlyph>
    <TTGlyph name="Uacute" xMin="3" yMin="-15" xMax="724" yMax="867">
      <contour>
        <pt x="524" y="779" on="0"/>
        <pt x="425" y="718" on="0"/>
        <pt x="395" y="695" on="0"/>
        <pt x="376" y="695" on="0"/>
        <pt x="374" y="704" on="1"/>
        <pt x="374" y="708" on="0"/>
        <pt x="402" y="737" on="0"/>
        <pt x="462" y="825" on="0"/>
        <pt x="505" y="867" on="0"/>
        <pt x="526" y="867" on="1"/>
        <pt x="567" y="867" on="0"/>
        <pt x="567" y="832" on="1"/>
        <pt x="567" y="815" on="0"/>
      </contour>
      <contour>
        <pt x="619" y="671" on="1"/>
        <pt x="720" y="674" on="1"/>
        <pt x="724" y="674" on="0"/>
        <pt x="724" y="668" on="1"/>
        <pt x="724" y="665" on="1"/>
        <pt x="724" y="654" on="0"/>
        <pt x="714" y="640" on="0"/>
        <pt x="710" y="640" on="1"/>
        <pt x="682" y="640" on="1"/>
        <pt x="660" y="640" on="0"/>
        <pt x="633" y="538" on="1"/>
        <pt x="571" y="300" on="0"/>
        <pt x="512" y="192" on="1"/>
        <pt x="479" y="133" on="0"/>
        <pt x="402" y="41" on="0"/>
        <pt x="290" y="-15" on="0"/>
        <pt x="224" y="-15" on="1"/>
        <pt x="139" y="-15" on="0"/>
        <pt x="25" y="90" on="0"/>
        <pt x="25" y="178" on="1"/>
        <pt x="30" y="325" on="0"/>
        <pt x="88" y="540" on="1"/>
        <pt x="107" y="608" on="0"/>
        <pt x="107" y="635" on="1"/>
        <pt x="3" y="639" on="1"/>
        <pt x="3" y="677" on="0"/>
        <pt x="29" y="677" on="1"/>
        <pt x="136" y="672" on="0"/>
        <pt x="217" y="672" on="0"/>
        <pt x="300" y="680" on="0"/>
        <pt x="309" y="680" on="1"/>
        <pt x="313" y="680" on="0"/>
        <pt x="313" y="662" on="0"/>
        <pt x="303" y="641" on="0"/>
        <pt x="296" y="641" on="1"/>
        <pt x="259" y="641" on="1"/>
        <pt x="234" y="641" on="0"/>
        <pt x="213" y="622" on="0"/>
        <pt x="208" y="595" on="1"/>
        <pt x="178" y="495" on="0"/>
        <pt x="133" y="265" on="0"/>
        <pt x="133" y="197" on="1"/>
        <pt x="137" y="127" on="0"/>
        <pt x="201" y="54" on="0"/>
        <pt x="315" y="54" on="0"/>
        <pt x="413" y="123" on="0"/>
        <pt x="475" y="235" on="0"/>
        <pt x="521" y="363" on="0"/>
        <pt x="532" y="430" on="1"/>
        <pt x="555" y="560" on="0"/>
        <pt x="555" y="619" on="1"/>
        <pt x="554" y="639" on="0"/>
        <pt x="545" y="639" on="1"/>
        <pt x="482" y="637" on="1"/>
        <pt x="484" y="648" on="1"/>
        <pt x="487" y="673" on="0"/>
        <pt x="496" y="673" on="1"/>
      </contour>
    </TTGlyph>
    <TTGlyph name="Ucircumflex" xMin="3" yMin="-15" xMax="724" yMax="861">
      <contour>
        <pt x="308" y="710" on="1"/>
        <pt x="299" y="702" on="0"/>
        <pt x="283" y="702" on="0"/>
        <pt x="281" y="710" on="1"/>
        <pt x="405" y="848" on="1"/>
        <pt x="418" y="861" on="0"/>
        <pt x="445" y="861" on="0"/>
        <pt x="455" y="848" on="1"/>
        <pt x="527" y="710" on="1"/>
        <pt x="522" y="703" on="0"/>
        <pt x="505" y="703" on="0"/>
        <pt x="499" y="710" on="1"/>
        <pt x="419" y="794" on="1"/>
      </contour>
      <contour>
        <pt x="619" y="671" on="1"/>
        <pt x="720" y="674" on="1"/>
        <pt x="724" y="674" on="0"/>
        <pt x="724" y="668" on="1"/>
        <pt x="724" y="665" on="1"/>
        <pt x="724" y="654" on="0"/>
        <pt x="714" y="640" on="0"/>
        <pt x="710" y="640" on="1"/>
        <pt x="682" y="640" on="1"/>
        <pt x="660" y="640" on="0"/>
        <pt x="633" y="538" on="1"/>
        <pt x="571" y="300" on="0"/>
        <pt x="512" y="192" on="1"/>
        <pt x="479" y="133" on="0"/>
        <pt x="402" y="41" on="0"/>
        <pt x="290" y="-15" on="0"/>
        <pt x="224" y="-15" on="1"/>
        <pt x="139" y="-15" on="0"/>
        <pt x="25" y="90" on="0"/>
        <pt x="25" y="178" on="1"/>
        <pt x="30" y="325" on="0"/>
        <pt x="88" y="540" on="1"/>
        <pt x="107" y="608" on="0"/>
        <pt x="107" y="635" on="1"/>
        <pt x="3" y="639" on="1"/>
        <pt x="3" y="677" on="0"/>
        <pt x="29" y="677" on="1"/>
        <pt x="136" y="672" on="0"/>
        <pt x="217" y="672" on="0"/>
        <pt x="300" y="680" on="0"/>
        <pt x="309" y="680" on="1"/>
        <pt x="313" y="680" on="0"/>
        <pt x="313" y="662" on="0"/>
        <pt x="303" y="641" on="0"/>
        <pt x="296" y="641" on="1"/>
        <pt x="259" y="641" on="1"/>
        <pt x="234" y="641" on="0"/>
        <pt x="213" y="622" on="0"/>
        <pt x="208" y="595" on="1"/>
        <pt x="178" y="495" on="0"/>
        <pt x="133" y="265" on="0"/>
        <pt x="133" y="197" on="1"/>
        <pt x="137" y="127" on="0"/>
        <pt x="201" y="54" on="0"/>
        <pt x="315" y="54" on="0"/>
        <pt x="413" y="123" on="0"/>
        <pt x="475" y="235" on="0"/>
        <pt x="521" y="363" on="0"/>
        <pt x="532" y="430" on="1"/>
        <pt x="555" y="560" on="0"/>
        <pt x="555" y="619" on="1"/>
        <pt x="554" y="639" on="0"/>
        <pt x="545" y="639" on="1"/>
        <pt x="482" y="637" on="1"/>
        <pt x="484" y="648" on="1"/>
        <pt x="487" y="673" on="0"/>
        <pt x="496" y="673" on="1"/>
      </contour>
    </TTGlyph>
    <TTGlyph name="Udieresis" xMin="3" yMin="-15" xMax="724" yMax="809">
      <contour>
        <pt x="386" y="744" on="0"/>
        <pt x="358" y="715" on="0"/>
        <pt x="318" y="715" on="0"/>
        <pt x="292" y="743" on="0"/>
        <pt x="292" y="783" on="0"/>
        <pt x="320" y="809" on="0"/>
        <pt x="357" y="809" on="0"/>
        <pt x="386" y="782" on="0"/>
      </contour>
      <contour>
        <pt x="534" y="743" on="0"/>
        <pt x="508" y="715" on="0"/>
        <pt x="467" y="715" on="0"/>
        <pt x="440" y="744" on="0"/>
        <pt x="440" y="783" on="0"/>
        <pt x="468" y="809" on="0"/>
        <pt x="506" y="809" on="0"/>
        <pt x="534" y="783" on="0"/>
      </contour>
      <contour>
        <pt x="619" y="671" on="1"/>
        <pt x="720" y="674" on="1"/>
        <pt x="724" y="674" on="0"/>
        <pt x="724" y="668" on="1"/>
        <pt x="724" y="665" on="1"/>
        <pt x="724" y="654" on="0"/>
        <pt x="714" y="640" on="0"/>
        <pt x="710" y="640" on="1"/>
        <pt x="682" y="640" on="1"/>
        <pt x="660" y="640" on="0"/>
        <pt x="633" y="538" on="1"/>
        <pt x="571" y="300" on="0"/>
        <pt x="512" y="192" on="1"/>
        <pt x="479" y="133" on="0"/>
        <pt x="402" y="41" on="0"/>
        <pt x="290" y="-15" on="0"/>
        <pt x="224" y="-15" on="1"/>
        <pt x="139" y="-15" on="0"/>
        <pt x="25" y="90" on="0"/>
        <pt x="25" y="178" on="1"/>
        <pt x="30" y="325" on="0"/>
        <pt x="88" y="540" on="1"/>
        <pt x="107" y="608" on="0"/>
        <pt x="107" y="635" on="1"/>
        <pt x="3" y="639" on="1"/>
        <pt x="3" y="677" on="0"/>
        <pt x="29" y="677" on="1"/>
        <pt x="136" y="672" on="0"/>
        <pt x="217" y="672" on="0"/>
        <pt x="300" y="680" on="0"/>
        <pt x="309" y="680" on="1"/>
        <pt x="313" y="680" on="0"/>
        <pt x="313" y="662" on="0"/>
        <pt x="303" y="641" on="0"/>
        <pt x="296" y="641" on="1"/>
        <pt x="259" y="641" on="1"/>
        <pt x="234" y="641" on="0"/>
        <pt x="213" y="622" on="0"/>
        <pt x="208" y="595" on="1"/>
        <pt x="178" y="495" on="0"/>
        <pt x="133" y="265" on="0"/>
        <pt x="133" y="197" on="1"/>
        <pt x="137" y="127" on="0"/>
        <pt x="201" y="54" on="0"/>
        <pt x="315" y="54" on="0"/>
        <pt x="413" y="123" on="0"/>
        <pt x="475" y="235" on="0"/>
        <pt x="521" y="363" on="0"/>
        <pt x="532" y="430" on="1"/>
        <pt x="555" y="560" on="0"/>
        <pt x="555" y="619" on="1"/>
        <pt x="554" y="639" on="0"/>
        <pt x="545" y="639" on="1"/>
        <pt x="482" y="637" on="1"/>
        <pt x="484" y="648" on="1"/>
        <pt x="487" y="673" on="0"/>
        <pt x="496" y="673" on="1"/>
      </contour>
    </TTGlyph>
    <TTGlyph name="Ugrave" xMin="3" yMin="-15" xMax="724" yMax="868">
      <contour>
        <pt x="280" y="780" on="0"/>
        <pt x="237" y="816" on="0"/>
        <pt x="237" y="849" on="0"/>
        <pt x="256" y="868" on="0"/>
        <pt x="299" y="868" on="0"/>
        <pt x="342" y="826" on="0"/>
        <pt x="402" y="738" on="0"/>
        <pt x="430" y="709" on="0"/>
        <pt x="430" y="705" on="1"/>
        <pt x="428" y="696" on="0"/>
        <pt x="409" y="696" on="0"/>
        <pt x="379" y="719" on="0"/>
      </contour>
      <contour>
        <pt x="619" y="671" on="1"/>
        <pt x="720" y="674" on="1"/>
        <pt x="724" y="674" on="0"/>
        <pt x="724" y="668" on="1"/>
        <pt x="724" y="665" on="1"/>
        <pt x="724" y="654" on="0"/>
        <pt x="714" y="640" on="0"/>
        <pt x="710" y="640" on="1"/>
        <pt x="682" y="640" on="1"/>
        <pt x="660" y="640" on="0"/>
        <pt x="633" y="538" on="1"/>
        <pt x="571" y="300" on="0"/>
        <pt x="512" y="192" on="1"/>
        <pt x="479" y="133" on="0"/>
        <pt x="402" y="41" on="0"/>
        <pt x="290" y="-15" on="0"/>
        <pt x="224" y="-15" on="1"/>
        <pt x="139" y="-15" on="0"/>
        <pt x="25" y="90" on="0"/>
        <pt x="25" y="178" on="1"/>
        <pt x="30" y="325" on="0"/>
        <pt x="88" y="540" on="1"/>
        <pt x="107" y="608" on="0"/>
        <pt x="107" y="635" on="1"/>
        <pt x="3" y="639" on="1"/>
        <pt x="3" y="677" on="0"/>
        <pt x="29" y="677" on="1"/>
        <pt x="136" y="672" on="0"/>
        <pt x="217" y="672" on="0"/>
        <pt x="300" y="680" on="0"/>
        <pt x="309" y="680" on="1"/>
        <pt x="313" y="680" on="0"/>
        <pt x="313" y="662" on="0"/>
        <pt x="303" y="641" on="0"/>
        <pt x="296" y="641" on="1"/>
        <pt x="259" y="641" on="1"/>
        <pt x="234" y="641" on="0"/>
        <pt x="213" y="622" on="0"/>
        <pt x="208" y="595" on="1"/>
        <pt x="178" y="495" on="0"/>
        <pt x="133" y="265" on="0"/>
        <pt x="133" y="197" on="1"/>
        <pt x="137" y="127" on="0"/>
        <pt x="201" y="54" on="0"/>
        <pt x="315" y="54" on="0"/>
        <pt x="413" y="123" on="0"/>
        <pt x="475" y="235" on="0"/>
        <pt x="521" y="363" on="0"/>
        <pt x="532" y="430" on="1"/>
        <pt x="555" y="560" on="0"/>
        <pt x="555" y="619" on="1"/>
        <pt x="554" y="639" on="0"/>
        <pt x="545" y="639" on="1"/>
        <pt x="482" y="637" on="1"/>
        <pt x="484" y="648" on="1"/>
        <pt x="487" y="673" on="0"/>
        <pt x="496" y="673" on="1"/>
      </contour>
    </TTGlyph>
    <TTGlyph name="V" xMin="-2" yMin="-19" xMax="545" yMax="681">
      <contour>
        <pt x="233" y="645" on="1"/>
        <pt x="213" y="645" on="0"/>
        <pt x="203" y="637" on="1"/>
        <pt x="158" y="532" on="0"/>
        <pt x="158" y="169" on="0"/>
        <pt x="174" y="74" on="1"/>
        <pt x="180" y="74" on="1"/>
        <pt x="271" y="178" on="0"/>
        <pt x="453" y="496" on="0"/>
        <pt x="453" y="603" on="1"/>
        <pt x="453" y="634" on="0"/>
        <pt x="430" y="634" on="1"/>
        <pt x="390" y="626" on="1"/>
        <pt x="390" y="647" on="0"/>
        <pt x="410" y="655" on="1"/>
        <pt x="459" y="675" on="0"/>
        <pt x="517" y="675" on="1"/>
        <pt x="545" y="675" on="0"/>
        <pt x="545" y="654" on="1"/>
        <pt x="545" y="569" on="0"/>
        <pt x="368" y="240" on="0"/>
        <pt x="156" y="-19" on="0"/>
        <pt x="110" y="-19" on="1"/>
        <pt x="87" y="-19" on="0"/>
        <pt x="62" y="143" on="0"/>
        <pt x="62" y="314" on="0"/>
        <pt x="68" y="426" on="0"/>
        <pt x="75" y="512" on="0"/>
        <pt x="83" y="581" on="0"/>
        <pt x="89" y="622" on="0"/>
        <pt x="89" y="624" on="1"/>
        <pt x="89" y="635" on="0"/>
        <pt x="79" y="635" on="1"/>
        <pt x="-2" y="628" on="1"/>
        <pt x="1" y="643" on="0"/>
        <pt x="28" y="670" on="0"/>
        <pt x="42" y="670" on="1"/>
        <pt x="184" y="670" on="0"/>
        <pt x="262" y="681" on="1"/>
        <pt x="238" y="645" on="1"/>
      </contour>
    </TTGlyph>
    <TTGlyph name="W" xMin="-8" yMin="-17" xMax="847" yMax="679">
      <contour>
        <pt x="149" y="305" on="1"/>
        <pt x="151" y="91" on="1"/>
        <pt x="155" y="91" on="1"/>
        <pt x="243" y="186" on="0"/>
        <pt x="419" y="534" on="0"/>
        <pt x="419" y="610" on="1"/>
        <pt x="419" y="626" on="0"/>
        <pt x="400" y="626" on="1"/>
        <pt x="366" y="626" on="1"/>
        <pt x="360" y="626" on="0"/>
        <pt x="360" y="634" on="1"/>
        <pt x="363" y="658" on="0"/>
        <pt x="375" y="658" on="1"/>
        <pt x="431" y="662" on="0"/>
        <pt x="475" y="662" on="1"/>
        <pt x="539" y="667" on="1"/>
        <pt x="478" y="458" on="0"/>
        <pt x="478" y="99" on="1"/>
        <pt x="483" y="99" on="1"/>
        <pt x="562" y="189" on="0"/>
        <pt x="680" y="377" on="0"/>
        <pt x="709" y="449" on="1"/>
        <pt x="759" y="572" on="0"/>
        <pt x="766" y="634" on="1"/>
        <pt x="766" y="644" on="0"/>
        <pt x="760" y="644" on="1"/>
        <pt x="702" y="644" on="1"/>
        <pt x="694" y="644" on="0"/>
        <pt x="694" y="659" on="0"/>
        <pt x="705" y="676" on="0"/>
        <pt x="710" y="676" on="1"/>
        <pt x="800" y="674" on="0"/>
        <pt x="829" y="674" on="1"/>
        <pt x="847" y="674" on="0"/>
        <pt x="847" y="650" on="1"/>
        <pt x="810" y="534" on="0"/>
        <pt x="703" y="314" on="0"/>
        <pt x="599" y="160" on="0"/>
        <pt x="499" y="42" on="0"/>
        <pt x="430" y="-16" on="0"/>
        <pt x="416" y="-16" on="1"/>
        <pt x="387" y="-16" on="0"/>
        <pt x="387" y="351" on="0"/>
        <pt x="415" y="442" on="1"/>
        <pt x="355" y="303" on="0"/>
        <pt x="222" y="96" on="0"/>
        <pt x="122" y="-8" on="1"/>
        <pt x="113" y="-17" on="0"/>
        <pt x="78" y="-17" on="0"/>
        <pt x="75" y="-8" on="1"/>
        <pt x="69" y="19" on="0"/>
        <pt x="69" y="112" on="0"/>
        <pt x="82" y="459" on="0"/>
        <pt x="82" y="609" on="1"/>
        <pt x="82" y="622" on="0"/>
        <pt x="72" y="630" on="0"/>
        <pt x="59" y="629" on="1"/>
        <pt x="-8" y="622" on="1"/>
        <pt x="2" y="666" on="0"/>
        <pt x="24" y="666" on="1"/>
        <pt x="89" y="671" on="0"/>
        <pt x="120" y="671" on="1"/>
        <pt x="262" y="679" on="1"/>
        <pt x="267" y="679" on="0"/>
        <pt x="267" y="661" on="0"/>
        <pt x="244" y="643" on="0"/>
        <pt x="231" y="642" on="1"/>
        <pt x="183" y="642" on="0"/>
        <pt x="149" y="460" on="0"/>
      </contour>
    </TTGlyph>
    <TTGlyph name="X" xMin="-92" yMin="-14" xMax="759" yMax="685">
      <contour>
        <pt x="629" y="671" on="1"/>
        <pt x="741" y="678" on="1"/>
        <pt x="759" y="678" on="0"/>
        <pt x="759" y="642" on="0"/>
        <pt x="746" y="642" on="1"/>
        <pt x="718" y="642" on="1"/>
        <pt x="701" y="642" on="0"/>
        <pt x="670" y="623" on="0"/>
        <pt x="618" y="571" on="0"/>
        <pt x="473" y="437" on="0"/>
        <pt x="403" y="368" on="1"/>
        <pt x="406" y="358" on="0"/>
        <pt x="423" y="280" on="0"/>
        <pt x="435" y="239" on="0"/>
        <pt x="457" y="166" on="0"/>
        <pt x="481" y="124" on="0"/>
        <pt x="498" y="100" on="1"/>
        <pt x="530" y="56" on="0"/>
        <pt x="584" y="56" on="1"/>
        <pt x="607" y="56" on="0"/>
        <pt x="648" y="92" on="0"/>
        <pt x="653" y="92" on="0"/>
        <pt x="658" y="87" on="0"/>
        <pt x="658" y="84" on="1"/>
        <pt x="658" y="59" on="0"/>
        <pt x="571" y="-14" on="0"/>
        <pt x="512" y="-14" on="1"/>
        <pt x="405" y="-14" on="0"/>
        <pt x="345" y="242" on="1"/>
        <pt x="341" y="259" on="0"/>
        <pt x="332" y="302" on="1"/>
        <pt x="233" y="221" on="0"/>
        <pt x="93" y="57" on="0"/>
        <pt x="93" y="35" on="1"/>
        <pt x="93" y="30" on="0"/>
        <pt x="98" y="30" on="1"/>
        <pt x="160" y="30" on="1"/>
        <pt x="168" y="30" on="0"/>
        <pt x="168" y="23" on="1"/>
        <pt x="168" y="19" on="0"/>
        <pt x="167" y="17" on="1"/>
        <pt x="162" y="-5" on="0"/>
        <pt x="147" y="-5" on="1"/>
        <pt x="27" y="1" on="0"/>
        <pt x="26" y="1" on="1"/>
        <pt x="-85" y="-4" on="1"/>
        <pt x="-92" y="-4" on="0"/>
        <pt x="-92" y="11" on="0"/>
        <pt x="-81" y="29" on="0"/>
        <pt x="-73" y="29" on="1"/>
        <pt x="-54" y="29" on="1"/>
        <pt x="-41" y="29" on="0"/>
        <pt x="-3" y="51" on="0"/>
        <pt x="9" y="63" on="1"/>
        <pt x="169" y="223" on="0"/>
        <pt x="323" y="343" on="1"/>
        <pt x="272" y="615" on="0"/>
        <pt x="151" y="615" on="1"/>
        <pt x="128" y="615" on="0"/>
        <pt x="78" y="584" on="0"/>
        <pt x="77" y="584" on="1"/>
        <pt x="72" y="584" on="0"/>
        <pt x="72" y="601" on="0"/>
        <pt x="113" y="644" on="0"/>
        <pt x="191" y="685" on="0"/>
        <pt x="259" y="685" on="0"/>
        <pt x="301" y="667" on="0"/>
        <pt x="329" y="632" on="0"/>
        <pt x="340" y="604" on="1"/>
        <pt x="362" y="549" on="0"/>
        <pt x="380" y="458" on="1"/>
        <pt x="381" y="455" on="0"/>
        <pt x="382" y="452" on="1"/>
        <pt x="384" y="448" on="0"/>
        <pt x="392" y="411" on="1"/>
        <pt x="399" y="418" on="0"/>
        <pt x="422" y="440" on="0"/>
        <pt x="481" y="500" on="0"/>
        <pt x="504" y="525" on="1"/>
        <pt x="563" y="591" on="0"/>
        <pt x="563" y="616" on="1"/>
        <pt x="563" y="645" on="0"/>
        <pt x="501" y="645" on="0"/>
        <pt x="501" y="654" on="1"/>
        <pt x="501" y="678" on="0"/>
        <pt x="514" y="678" on="1"/>
      </contour>
    </TTGlyph>
    <TTGlyph name="Y" xMin="3" yMin="-3" xMax="672" yMax="688">
      <contour>
        <pt x="57" y="-3" on="1"/>
        <pt x="53" y="-3" on="0"/>
        <pt x="54" y="6" on="0"/>
        <pt x="55" y="14" on="0"/>
        <pt x="65" y="32" on="0"/>
        <pt x="72" y="32" on="1"/>
        <pt x="94" y="32" on="1"/>
        <pt x="138" y="32" on="0"/>
        <pt x="209" y="267" on="0"/>
        <pt x="209" y="506" on="0"/>
        <pt x="153" y="643" on="0"/>
        <pt x="94" y="643" on="1"/>
        <pt x="73" y="643" on="0"/>
        <pt x="34" y="623" on="0"/>
        <pt x="25" y="613" on="1"/>
        <pt x="16" y="603" on="1"/>
        <pt x="3" y="606" on="0"/>
        <pt x="3" y="615" on="1"/>
        <pt x="3" y="634" on="0"/>
        <pt x="87" y="688" on="0"/>
        <pt x="129" y="688" on="1"/>
        <pt x="324" y="688" on="0"/>
        <pt x="324" y="447" on="1"/>
        <pt x="324" y="411" on="0"/>
        <pt x="319" y="366" on="1"/>
        <pt x="415" y="459" on="0"/>
        <pt x="505" y="596" on="0"/>
        <pt x="513" y="635" on="1"/>
        <pt x="513" y="641" on="0"/>
        <pt x="506" y="641" on="1"/>
        <pt x="478" y="641" on="1"/>
        <pt x="473" y="641" on="0"/>
        <pt x="474" y="656" on="0"/>
        <pt x="486" y="673" on="0"/>
        <pt x="492" y="673" on="1"/>
        <pt x="604" y="672" on="1"/>
        <pt x="672" y="676" on="1"/>
        <pt x="665" y="642" on="0"/>
        <pt x="642" y="642" on="1"/>
        <pt x="613" y="642" on="0"/>
        <pt x="599" y="624" on="1"/>
        <pt x="492" y="489" on="0"/>
        <pt x="309" y="302" on="1"/>
        <pt x="285" y="174" on="0"/>
        <pt x="248" y="68" on="1"/>
        <pt x="235" y="33" on="1"/>
        <pt x="327" y="39" on="1"/>
        <pt x="315" y="0" on="0"/>
        <pt x="301" y="0" on="1"/>
        <pt x="189" y="1" on="0"/>
        <pt x="166" y="1" on="1"/>
      </contour>
    </TTGlyph>
    <TTGlyph name="Yacute" xMin="3" yMin="-3" xMax="672" yMax="867">
      <contour>
        <pt x="489" y="779" on="0"/>
        <pt x="390" y="718" on="0"/>
        <pt x="360" y="695" on="0"/>
        <pt x="341" y="695" on="0"/>
        <pt x="339" y="704" on="1"/>
        <pt x="339" y="708" on="0"/>
        <pt x="367" y="737" on="0"/>
        <pt x="427" y="825" on="0"/>
        <pt x="470" y="867" on="0"/>
        <pt x="492" y="867" on="1"/>
        <pt x="532" y="867" on="0"/>
        <pt x="532" y="832" on="1"/>
        <pt x="532" y="815" on="0"/>
      </contour>
      <contour>
        <pt x="57" y="-3" on="1"/>
        <pt x="53" y="-3" on="0"/>
        <pt x="54" y="6" on="0"/>
        <pt x="55" y="14" on="0"/>
        <pt x="65" y="32" on="0"/>
        <pt x="72" y="32" on="1"/>
        <pt x="94" y="32" on="1"/>
        <pt x="138" y="32" on="0"/>
        <pt x="209" y="267" on="0"/>
        <pt x="209" y="506" on="0"/>
        <pt x="153" y="643" on="0"/>
        <pt x="94" y="643" on="1"/>
        <pt x="73" y="643" on="0"/>
        <pt x="34" y="623" on="0"/>
        <pt x="25" y="613" on="1"/>
        <pt x="16" y="603" on="1"/>
        <pt x="3" y="606" on="0"/>
        <pt x="3" y="615" on="1"/>
        <pt x="3" y="634" on="0"/>
        <pt x="87" y="688" on="0"/>
        <pt x="129" y="688" on="1"/>
        <pt x="324" y="688" on="0"/>
        <pt x="324" y="447" on="1"/>
        <pt x="324" y="411" on="0"/>
        <pt x="319" y="366" on="1"/>
        <pt x="415" y="459" on="0"/>
        <pt x="505" y="596" on="0"/>
        <pt x="513" y="635" on="1"/>
        <pt x="513" y="641" on="0"/>
        <pt x="506" y="641" on="1"/>
        <pt x="478" y="641" on="1"/>
        <pt x="473" y="641" on="0"/>
        <pt x="474" y="656" on="0"/>
        <pt x="486" y="673" on="0"/>
        <pt x="492" y="673" on="1"/>
        <pt x="604" y="672" on="1"/>
        <pt x="672" y="676" on="1"/>
        <pt x="665" y="642" on="0"/>
        <pt x="642" y="642" on="1"/>
        <pt x="613" y="642" on="0"/>
        <pt x="599" y="624" on="1"/>
        <pt x="492" y="489" on="0"/>
        <pt x="309" y="302" on="1"/>
        <pt x="285" y="174" on="0"/>
        <pt x="248" y="68" on="1"/>
        <pt x="235" y="33" on="1"/>
        <pt x="327" y="39" on="1"/>
        <pt x="315" y="0" on="0"/>
        <pt x="301" y="0" on="1"/>
        <pt x="189" y="1" on="0"/>
        <pt x="166" y="1" on="1"/>
      </contour>
    </TTGlyph>
    <TTGlyph name="Ydieresis" xMin="3" yMin="-3" xMax="672" yMax="809">
      <contour>
        <pt x="342" y="744" on="0"/>
        <pt x="314" y="715" on="0"/>
        <pt x="274" y="715" on="0"/>
        <pt x="248" y="743" on="0"/>
        <pt x="248" y="783" on="0"/>
        <pt x="276" y="809" on="0"/>
        <pt x="313" y="809" on="0"/>
        <pt x="342" y="782" on="0"/>
      </contour>
      <contour>
        <pt x="490" y="743" on="0"/>
        <pt x="464" y="715" on="0"/>
        <pt x="423" y="715" on="0"/>
        <pt x="396" y="744" on="0"/>
        <pt x="396" y="783" on="0"/>
        <pt x="424" y="809" on="0"/>
        <pt x="462" y="809" on="0"/>
        <pt x="490" y="783" on="0"/>
      </contour>
      <contour>
        <pt x="57" y="-3" on="1"/>
        <pt x="53" y="-3" on="0"/>
        <pt x="54" y="6" on="0"/>
        <pt x="55" y="14" on="0"/>
        <pt x="65" y="32" on="0"/>
        <pt x="72" y="32" on="1"/>
        <pt x="94" y="32" on="1"/>
        <pt x="138" y="32" on="0"/>
        <pt x="209" y="267" on="0"/>
        <pt x="209" y="506" on="0"/>
        <pt x="153" y="643" on="0"/>
        <pt x="94" y="643" on="1"/>
        <pt x="73" y="643" on="0"/>
        <pt x="34" y="623" on="0"/>
        <pt x="25" y="613" on="1"/>
        <pt x="16" y="603" on="1"/>
        <pt x="3" y="606" on="0"/>
        <pt x="3" y="615" on="1"/>
        <pt x="3" y="634" on="0"/>
        <pt x="87" y="688" on="0"/>
        <pt x="129" y="688" on="1"/>
        <pt x="324" y="688" on="0"/>
        <pt x="324" y="447" on="1"/>
        <pt x="324" y="411" on="0"/>
        <pt x="319" y="366" on="1"/>
        <pt x="415" y="459" on="0"/>
        <pt x="505" y="596" on="0"/>
        <pt x="513" y="635" on="1"/>
        <pt x="513" y="641" on="0"/>
        <pt x="506" y="641" on="1"/>
        <pt x="478" y="641" on="1"/>
        <pt x="473" y="641" on="0"/>
        <pt x="474" y="656" on="0"/>
        <pt x="486" y="673" on="0"/>
        <pt x="492" y="673" on="1"/>
        <pt x="604" y="672" on="1"/>
        <pt x="672" y="676" on="1"/>
        <pt x="665" y="642" on="0"/>
        <pt x="642" y="642" on="1"/>
        <pt x="613" y="642" on="0"/>
        <pt x="599" y="624" on="1"/>
        <pt x="492" y="489" on="0"/>
        <pt x="309" y="302" on="1"/>
        <pt x="285" y="174" on="0"/>
        <pt x="248" y="68" on="1"/>
        <pt x="235" y="33" on="1"/>
        <pt x="327" y="39" on="1"/>
        <pt x="315" y="0" on="0"/>
        <pt x="301" y="0" on="1"/>
        <pt x="189" y="1" on="0"/>
        <pt x="166" y="1" on="1"/>
      </contour>
    </TTGlyph>
    <TTGlyph name="Z" xMin="-84" yMin="-22" xMax="616" yMax="701">
      <contour>
        <pt x="164" y="85" on="0"/>
        <pt x="386" y="54" on="0"/>
        <pt x="466" y="54" on="0"/>
        <pt x="502" y="75" on="0"/>
        <pt x="530" y="112" on="1"/>
        <pt x="535" y="120" on="0"/>
        <pt x="540" y="120" on="1"/>
        <pt x="550" y="120" on="0"/>
        <pt x="556" y="108" on="1"/>
        <pt x="488" y="-22" on="0"/>
        <pt x="362" y="-22" on="1"/>
        <pt x="311" y="-22" on="0"/>
        <pt x="36" y="15" on="0"/>
        <pt x="-44" y="15" on="0"/>
        <pt x="-84" y="4" on="1"/>
        <pt x="-80" y="25" on="0"/>
        <pt x="-45" y="40" on="1"/>
        <pt x="-27" y="48" on="0"/>
        <pt x="49" y="134" on="1"/>
        <pt x="128" y="222" on="0"/>
        <pt x="473" y="629" on="1"/>
        <pt x="429" y="619" on="0"/>
        <pt x="248" y="619" on="1"/>
        <pt x="149" y="619" on="0"/>
        <pt x="118" y="597" on="1"/>
        <pt x="104" y="579" on="0"/>
        <pt x="104" y="509" on="1"/>
        <pt x="93" y="505" on="0"/>
        <pt x="83" y="505" on="1"/>
        <pt x="65" y="505" on="0"/>
        <pt x="65" y="522" on="1"/>
        <pt x="80" y="616" on="0"/>
        <pt x="80" y="682" on="1"/>
        <pt x="80" y="691" on="0"/>
        <pt x="89" y="700" on="0"/>
        <pt x="98" y="701" on="1"/>
        <pt x="103" y="681" on="0"/>
        <pt x="128" y="669" on="0"/>
        <pt x="175" y="669" on="1"/>
        <pt x="518" y="669" on="1"/>
        <pt x="569" y="669" on="0"/>
        <pt x="607" y="681" on="0"/>
        <pt x="609" y="681" on="1"/>
        <pt x="616" y="681" on="0"/>
        <pt x="616" y="676" on="1"/>
        <pt x="616" y="669" on="0"/>
        <pt x="601" y="654" on="1"/>
        <pt x="262" y="252" on="0"/>
        <pt x="126" y="96" on="0"/>
        <pt x="102" y="84" on="1"/>
        <pt x="101" y="81" on="1"/>
        <pt x="114" y="85" on="0"/>
      </contour>
    </TTGlyph>
    <TTGlyph name="Zcaron" xMin="-84" yMin="-22" xMax="616" yMax="872">
      <contour>
        <pt x="504" y="864" on="1"/>
        <pt x="513" y="872" on="0"/>
        <pt x="529" y="872" on="0"/>
        <pt x="531" y="864" on="1"/>
        <pt x="407" y="726" on="1"/>
        <pt x="394" y="713" on="0"/>
        <pt x="367" y="713" on="0"/>
        <pt x="357" y="726" on="1"/>
        <pt x="285" y="864" on="1"/>
        <pt x="290" y="871" on="0"/>
        <pt x="307" y="871" on="0"/>
        <pt x="313" y="864" on="1"/>
        <pt x="393" y="780" on="1"/>
      </contour>
      <contour>
        <pt x="164" y="85" on="0"/>
        <pt x="386" y="54" on="0"/>
        <pt x="466" y="54" on="0"/>
        <pt x="502" y="75" on="0"/>
        <pt x="530" y="112" on="1"/>
        <pt x="535" y="120" on="0"/>
        <pt x="540" y="120" on="1"/>
        <pt x="550" y="120" on="0"/>
        <pt x="556" y="108" on="1"/>
        <pt x="488" y="-22" on="0"/>
        <pt x="362" y="-22" on="1"/>
        <pt x="311" y="-22" on="0"/>
        <pt x="36" y="15" on="0"/>
        <pt x="-44" y="15" on="0"/>
        <pt x="-84" y="4" on="1"/>
        <pt x="-80" y="25" on="0"/>
        <pt x="-45" y="40" on="1"/>
        <pt x="-27" y="48" on="0"/>
        <pt x="49" y="134" on="1"/>
        <pt x="128" y="222" on="0"/>
        <pt x="473" y="629" on="1"/>
        <pt x="429" y="619" on="0"/>
        <pt x="248" y="619" on="1"/>
        <pt x="149" y="619" on="0"/>
        <pt x="118" y="597" on="1"/>
        <pt x="104" y="579" on="0"/>
        <pt x="104" y="509" on="1"/>
        <pt x="93" y="505" on="0"/>
        <pt x="83" y="505" on="1"/>
        <pt x="65" y="505" on="0"/>
        <pt x="65" y="522" on="1"/>
        <pt x="80" y="616" on="0"/>
        <pt x="80" y="682" on="1"/>
        <pt x="80" y="691" on="0"/>
        <pt x="89" y="700" on="0"/>
        <pt x="98" y="701" on="1"/>
        <pt x="103" y="681" on="0"/>
        <pt x="128" y="669" on="0"/>
        <pt x="175" y="669" on="1"/>
        <pt x="518" y="669" on="1"/>
        <pt x="569" y="669" on="0"/>
        <pt x="607" y="681" on="0"/>
        <pt x="609" y="681" on="1"/>
        <pt x="616" y="681" on="0"/>
        <pt x="616" y="676" on="1"/>
        <pt x="616" y="669" on="0"/>
        <pt x="601" y="654" on="1"/>
        <pt x="262" y="252" on="0"/>
        <pt x="126" y="96" on="0"/>
        <pt x="102" y="84" on="1"/>
        <pt x="101" y="81" on="1"/>
        <pt x="114" y="85" on="0"/>
      </contour>
    </TTGlyph>
    <TTGlyph name="a" xMin="0" yMin="-15" xMax="509" yMax="468">
      <contour>
        <pt x="489" y="468" on="0"/>
        <pt x="509" y="468" on="0"/>
        <pt x="509" y="457" on="1"/>
        <pt x="509" y="450" on="0"/>
        <pt x="496" y="429" on="0"/>
        <pt x="462" y="378" on="0"/>
        <pt x="407" y="276" on="0"/>
        <pt x="337" y="100" on="0"/>
        <pt x="337" y="66" on="0"/>
        <pt x="348" y="66" on="1"/>
        <pt x="363" y="66" on="0"/>
        <pt x="458" y="158" on="0"/>
        <pt x="475" y="158" on="0"/>
        <pt x="474" y="138" on="0"/>
        <pt x="409" y="62" on="0"/>
        <pt x="310" y="-13" on="0"/>
        <pt x="275" y="-13" on="1"/>
        <pt x="260" y="-13" on="0"/>
        <pt x="241" y="4" on="0"/>
        <pt x="241" y="36" on="0"/>
        <pt x="270" y="113" on="0"/>
        <pt x="318" y="223" on="0"/>
        <pt x="325" y="241" on="1"/>
        <pt x="127" y="-15" on="0"/>
        <pt x="56" y="-15" on="1"/>
        <pt x="32" y="-15" on="0"/>
        <pt x="0" y="17" on="0"/>
        <pt x="0" y="84" on="0"/>
        <pt x="48" y="215" on="0"/>
        <pt x="125" y="351" on="0"/>
        <pt x="243" y="450" on="0"/>
        <pt x="303" y="450" on="1"/>
        <pt x="359" y="450" on="0"/>
        <pt x="396" y="417" on="1"/>
        <pt x="409" y="406" on="0"/>
        <pt x="413" y="406" on="1"/>
        <pt x="433" y="406" on="0"/>
      </contour>
      <contour>
        <pt x="358" y="367" on="0"/>
        <pt x="300" y="408" on="0"/>
        <pt x="236" y="408" on="0"/>
        <pt x="146" y="286" on="0"/>
        <pt x="87" y="139" on="0"/>
        <pt x="87" y="63" on="0"/>
        <pt x="110" y="63" on="1"/>
        <pt x="138" y="63" on="0"/>
        <pt x="331" y="280" on="0"/>
        <pt x="367" y="347" on="1"/>
      </contour>
    </TTGlyph>
    <TTGlyph name="aacute" xMin="0" yMin="-15" xMax="533" yMax="711">
      <contour>
        <pt x="489" y="468" on="0"/>
        <pt x="509" y="468" on="0"/>
        <pt x="509" y="457" on="1"/>
        <pt x="509" y="450" on="0"/>
        <pt x="496" y="429" on="0"/>
        <pt x="462" y="378" on="0"/>
        <pt x="407" y="276" on="0"/>
        <pt x="337" y="100" on="0"/>
        <pt x="337" y="66" on="0"/>
        <pt x="348" y="66" on="1"/>
        <pt x="363" y="66" on="0"/>
        <pt x="458" y="158" on="0"/>
        <pt x="475" y="158" on="0"/>
        <pt x="474" y="138" on="0"/>
        <pt x="409" y="62" on="0"/>
        <pt x="310" y="-13" on="0"/>
        <pt x="275" y="-13" on="1"/>
        <pt x="260" y="-13" on="0"/>
        <pt x="241" y="4" on="0"/>
        <pt x="241" y="36" on="0"/>
        <pt x="270" y="113" on="0"/>
        <pt x="318" y="223" on="0"/>
        <pt x="325" y="241" on="1"/>
        <pt x="127" y="-15" on="0"/>
        <pt x="56" y="-15" on="1"/>
        <pt x="32" y="-15" on="0"/>
        <pt x="0" y="17" on="0"/>
        <pt x="0" y="84" on="0"/>
        <pt x="48" y="215" on="0"/>
        <pt x="125" y="351" on="0"/>
        <pt x="243" y="450" on="0"/>
        <pt x="303" y="450" on="1"/>
        <pt x="359" y="450" on="0"/>
        <pt x="396" y="417" on="1"/>
        <pt x="409" y="406" on="0"/>
        <pt x="413" y="406" on="1"/>
        <pt x="433" y="406" on="0"/>
      </contour>
      <contour>
        <pt x="358" y="367" on="0"/>
        <pt x="300" y="408" on="0"/>
        <pt x="236" y="408" on="0"/>
        <pt x="146" y="286" on="0"/>
        <pt x="87" y="139" on="0"/>
        <pt x="87" y="63" on="0"/>
        <pt x="110" y="63" on="1"/>
        <pt x="138" y="63" on="0"/>
        <pt x="331" y="280" on="0"/>
        <pt x="367" y="347" on="1"/>
      </contour>
      <contour>
        <pt x="356" y="483" on="1"/>
        <pt x="353" y="480" on="0"/>
        <pt x="334" y="480" on="0"/>
        <pt x="332" y="489" on="1"/>
        <pt x="332" y="493" on="0"/>
        <pt x="374" y="548" on="0"/>
        <pt x="438" y="669" on="0"/>
        <pt x="471" y="711" on="0"/>
        <pt x="492" y="711" on="1"/>
        <pt x="533" y="711" on="0"/>
        <pt x="533" y="676" on="1"/>
        <pt x="533" y="626" on="0"/>
      </contour>
    </TTGlyph>
    <TTGlyph name="acircumflex" xMin="0" yMin="-15" xMax="509" yMax="702">
      <contour>
        <pt x="489" y="468" on="0"/>
        <pt x="509" y="468" on="0"/>
        <pt x="509" y="457" on="1"/>
        <pt x="509" y="450" on="0"/>
        <pt x="496" y="429" on="0"/>
        <pt x="462" y="378" on="0"/>
        <pt x="407" y="276" on="0"/>
        <pt x="337" y="100" on="0"/>
        <pt x="337" y="66" on="0"/>
        <pt x="348" y="66" on="1"/>
        <pt x="363" y="66" on="0"/>
        <pt x="458" y="158" on="0"/>
        <pt x="475" y="158" on="0"/>
        <pt x="474" y="138" on="0"/>
        <pt x="409" y="62" on="0"/>
        <pt x="310" y="-13" on="0"/>
        <pt x="275" y="-13" on="1"/>
        <pt x="260" y="-13" on="0"/>
        <pt x="241" y="4" on="0"/>
        <pt x="241" y="36" on="0"/>
        <pt x="270" y="113" on="0"/>
        <pt x="318" y="223" on="0"/>
        <pt x="325" y="241" on="1"/>
        <pt x="127" y="-15" on="0"/>
        <pt x="56" y="-15" on="1"/>
        <pt x="32" y="-15" on="0"/>
        <pt x="0" y="17" on="0"/>
        <pt x="0" y="84" on="0"/>
        <pt x="48" y="215" on="0"/>
        <pt x="125" y="351" on="0"/>
        <pt x="243" y="450" on="0"/>
        <pt x="303" y="450" on="1"/>
        <pt x="359" y="450" on="0"/>
        <pt x="396" y="417" on="1"/>
        <pt x="409" y="406" on="0"/>
        <pt x="413" y="406" on="1"/>
        <pt x="433" y="406" on="0"/>
      </contour>
      <contour>
        <pt x="358" y="367" on="0"/>
        <pt x="300" y="408" on="0"/>
        <pt x="236" y="408" on="0"/>
        <pt x="146" y="286" on="0"/>
        <pt x="87" y="139" on="0"/>
        <pt x="87" y="63" on="0"/>
        <pt x="110" y="63" on="1"/>
        <pt x="138" y="63" on="0"/>
        <pt x="331" y="280" on="0"/>
        <pt x="367" y="347" on="1"/>
      </contour>
      <contour>
        <pt x="226" y="541" on="1"/>
        <pt x="215" y="533" on="0"/>
        <pt x="198" y="533" on="0"/>
        <pt x="196" y="541" on="1"/>
        <pt x="341" y="688" on="1"/>
        <pt x="355" y="702" on="0"/>
        <pt x="385" y="702" on="0"/>
        <pt x="396" y="688" on="1"/>
        <pt x="475" y="541" on="1"/>
        <pt x="469" y="534" on="0"/>
        <pt x="451" y="534" on="0"/>
        <pt x="444" y="541" on="1"/>
        <pt x="356" y="631" on="1"/>
      </contour>
    </TTGlyph>
    <TTGlyph name="acute" xMin="29" yMin="480" xMax="230" yMax="711">
      <contour>
        <pt x="53" y="483" on="1"/>
        <pt x="50" y="480" on="0"/>
        <pt x="31" y="480" on="0"/>
        <pt x="29" y="489" on="1"/>
        <pt x="29" y="493" on="0"/>
        <pt x="71" y="548" on="0"/>
        <pt x="135" y="669" on="0"/>
        <pt x="168" y="711" on="0"/>
        <pt x="190" y="711" on="1"/>
        <pt x="230" y="711" on="0"/>
        <pt x="230" y="676" on="1"/>
        <pt x="230" y="626" on="0"/>
      </contour>
    </TTGlyph>
    <TTGlyph name="adieresis" xMin="0" yMin="-15" xMax="509" yMax="657">
      <contour>
        <pt x="489" y="468" on="0"/>
        <pt x="509" y="468" on="0"/>
        <pt x="509" y="457" on="1"/>
        <pt x="509" y="450" on="0"/>
        <pt x="496" y="429" on="0"/>
        <pt x="462" y="378" on="0"/>
        <pt x="407" y="276" on="0"/>
        <pt x="337" y="100" on="0"/>
        <pt x="337" y="66" on="0"/>
        <pt x="348" y="66" on="1"/>
        <pt x="363" y="66" on="0"/>
        <pt x="458" y="158" on="0"/>
        <pt x="475" y="158" on="0"/>
        <pt x="474" y="138" on="0"/>
        <pt x="409" y="62" on="0"/>
        <pt x="310" y="-13" on="0"/>
        <pt x="275" y="-13" on="1"/>
        <pt x="260" y="-13" on="0"/>
        <pt x="241" y="4" on="0"/>
        <pt x="241" y="36" on="0"/>
        <pt x="270" y="113" on="0"/>
        <pt x="318" y="223" on="0"/>
        <pt x="325" y="241" on="1"/>
        <pt x="127" y="-15" on="0"/>
        <pt x="56" y="-15" on="1"/>
        <pt x="32" y="-15" on="0"/>
        <pt x="0" y="17" on="0"/>
        <pt x="0" y="84" on="0"/>
        <pt x="48" y="215" on="0"/>
        <pt x="125" y="351" on="0"/>
        <pt x="243" y="450" on="0"/>
        <pt x="303" y="450" on="1"/>
        <pt x="359" y="450" on="0"/>
        <pt x="396" y="417" on="1"/>
        <pt x="409" y="406" on="0"/>
        <pt x="413" y="406" on="1"/>
        <pt x="433" y="406" on="0"/>
      </contour>
      <contour>
        <pt x="358" y="367" on="0"/>
        <pt x="300" y="408" on="0"/>
        <pt x="236" y="408" on="0"/>
        <pt x="146" y="286" on="0"/>
        <pt x="87" y="139" on="0"/>
        <pt x="87" y="63" on="0"/>
        <pt x="110" y="63" on="1"/>
        <pt x="138" y="63" on="0"/>
        <pt x="331" y="280" on="0"/>
        <pt x="367" y="347" on="1"/>
      </contour>
      <contour>
        <pt x="281" y="555" on="0"/>
        <pt x="237" y="555" on="0"/>
        <pt x="208" y="586" on="0"/>
        <pt x="208" y="629" on="0"/>
        <pt x="238" y="657" on="0"/>
        <pt x="279" y="657" on="0"/>
        <pt x="310" y="628" on="0"/>
        <pt x="310" y="586" on="0"/>
      </contour>
      <contour>
        <pt x="448" y="555" on="0"/>
        <pt x="404" y="555" on="0"/>
        <pt x="375" y="586" on="0"/>
        <pt x="375" y="628" on="0"/>
        <pt x="406" y="657" on="0"/>
        <pt x="446" y="657" on="0"/>
        <pt x="477" y="628" on="0"/>
        <pt x="477" y="586" on="0"/>
      </contour>
    </TTGlyph>
    <TTGlyph name="ae" xMin="0" yMin="-15" xMax="644" yMax="506">
      <contour>
        <pt x="515" y="147" on="1"/>
        <pt x="525" y="147" on="0"/>
        <pt x="525" y="136" on="1"/>
        <pt x="525" y="129" on="0"/>
        <pt x="492" y="82" on="0"/>
        <pt x="441" y="28" on="0"/>
        <pt x="366" y="-15" on="0"/>
        <pt x="303" y="-15" on="0"/>
        <pt x="272" y="24" on="0"/>
        <pt x="272" y="56" on="1"/>
        <pt x="272" y="134" on="0"/>
        <pt x="328" y="240" on="1"/>
        <pt x="325" y="241" on="1"/>
        <pt x="127" y="-15" on="0"/>
        <pt x="56" y="-15" on="1"/>
        <pt x="32" y="-15" on="0"/>
        <pt x="0" y="17" on="0"/>
        <pt x="0" y="84" on="0"/>
        <pt x="48" y="215" on="0"/>
        <pt x="125" y="351" on="0"/>
        <pt x="243" y="450" on="0"/>
        <pt x="303" y="450" on="1"/>
        <pt x="354" y="450" on="0"/>
        <pt x="384" y="422" on="1"/>
        <pt x="395" y="413" on="0"/>
        <pt x="399" y="413" on="1"/>
        <pt x="410" y="413" on="0"/>
        <pt x="459" y="506" on="0"/>
        <pt x="471" y="506" on="1"/>
        <pt x="481" y="506" on="0"/>
        <pt x="481" y="495" on="1"/>
        <pt x="481" y="472" on="0"/>
        <pt x="433" y="387" on="1"/>
        <pt x="435" y="386" on="1"/>
        <pt x="491" y="450" on="0"/>
        <pt x="568" y="450" on="1"/>
        <pt x="601" y="450" on="0"/>
        <pt x="644" y="425" on="0"/>
        <pt x="644" y="399" on="1"/>
        <pt x="644" y="354" on="0"/>
        <pt x="467" y="234" on="0"/>
        <pt x="380" y="207" on="1"/>
        <pt x="358" y="137" on="0"/>
        <pt x="358" y="63" on="0"/>
        <pt x="382" y="63" on="1"/>
        <pt x="436" y="63" on="0"/>
        <pt x="502" y="139" on="1"/>
        <pt x="509" y="147" on="0"/>
      </contour>
      <contour>
        <pt x="358" y="367" on="0"/>
        <pt x="300" y="408" on="0"/>
        <pt x="236" y="408" on="0"/>
        <pt x="146" y="286" on="0"/>
        <pt x="87" y="139" on="0"/>
        <pt x="87" y="63" on="0"/>
        <pt x="110" y="63" on="1"/>
        <pt x="138" y="63" on="0"/>
        <pt x="331" y="280" on="0"/>
        <pt x="367" y="347" on="1"/>
      </contour>
      <contour>
        <pt x="536" y="408" on="1"/>
        <pt x="501" y="408" on="0"/>
        <pt x="421" y="307" on="0"/>
        <pt x="392" y="236" on="1"/>
        <pt x="562" y="324" on="0"/>
        <pt x="562" y="381" on="1"/>
        <pt x="562" y="408" on="0"/>
      </contour>
    </TTGlyph>
    <TTGlyph name="agrave" xMin="0" yMin="-15" xMax="509" yMax="711">
      <contour>
        <pt x="489" y="468" on="0"/>
        <pt x="509" y="468" on="0"/>
        <pt x="509" y="457" on="1"/>
        <pt x="509" y="450" on="0"/>
        <pt x="496" y="429" on="0"/>
        <pt x="462" y="378" on="0"/>
        <pt x="407" y="276" on="0"/>
        <pt x="337" y="100" on="0"/>
        <pt x="337" y="66" on="0"/>
        <pt x="348" y="66" on="1"/>
        <pt x="363" y="66" on="0"/>
        <pt x="458" y="158" on="0"/>
        <pt x="475" y="158" on="0"/>
        <pt x="474" y="138" on="0"/>
        <pt x="409" y="62" on="0"/>
        <pt x="310" y="-13" on="0"/>
        <pt x="275" y="-13" on="1"/>
        <pt x="260" y="-13" on="0"/>
        <pt x="241" y="4" on="0"/>
        <pt x="241" y="36" on="0"/>
        <pt x="270" y="113" on="0"/>
        <pt x="318" y="223" on="0"/>
        <pt x="325" y="241" on="1"/>
        <pt x="127" y="-15" on="0"/>
        <pt x="56" y="-15" on="1"/>
        <pt x="32" y="-15" on="0"/>
        <pt x="0" y="17" on="0"/>
        <pt x="0" y="84" on="0"/>
        <pt x="48" y="215" on="0"/>
        <pt x="125" y="351" on="0"/>
        <pt x="243" y="450" on="0"/>
        <pt x="303" y="450" on="1"/>
        <pt x="359" y="450" on="0"/>
        <pt x="396" y="417" on="1"/>
        <pt x="409" y="406" on="0"/>
        <pt x="413" y="406" on="1"/>
        <pt x="433" y="406" on="0"/>
      </contour>
      <contour>
        <pt x="358" y="367" on="0"/>
        <pt x="300" y="408" on="0"/>
        <pt x="236" y="408" on="0"/>
        <pt x="146" y="286" on="0"/>
        <pt x="87" y="139" on="0"/>
        <pt x="87" y="63" on="0"/>
        <pt x="110" y="63" on="1"/>
        <pt x="138" y="63" on="0"/>
        <pt x="331" y="280" on="0"/>
        <pt x="367" y="347" on="1"/>
      </contour>
      <contour>
        <pt x="211" y="676" on="1"/>
        <pt x="211" y="692" on="0"/>
        <pt x="230" y="711" on="0"/>
        <pt x="273" y="711" on="0"/>
        <pt x="306" y="669" on="0"/>
        <pt x="370" y="548" on="0"/>
        <pt x="412" y="493" on="0"/>
        <pt x="412" y="489" on="1"/>
        <pt x="410" y="480" on="0"/>
        <pt x="391" y="480" on="0"/>
        <pt x="388" y="483" on="1"/>
        <pt x="211" y="626" on="0"/>
      </contour>
    </TTGlyph>
    <TTGlyph name="ampersand" xMin="36" yMin="-81" xMax="825" yMax="682">
      <contour>
        <pt x="139" y="454" on="1"/>
        <pt x="139" y="534" on="0"/>
        <pt x="270" y="671" on="0"/>
        <pt x="350" y="671" on="1"/>
        <pt x="393" y="671" on="0"/>
        <pt x="440" y="622" on="0"/>
        <pt x="440" y="543" on="0"/>
        <pt x="395" y="472" on="0"/>
        <pt x="370" y="454" on="1"/>
        <pt x="514" y="454" on="0"/>
        <pt x="626" y="494" on="1"/>
        <pt x="682" y="514" on="0"/>
        <pt x="747" y="587" on="0"/>
        <pt x="747" y="637" on="1"/>
        <pt x="747" y="660" on="0"/>
        <pt x="741" y="677" on="1"/>
        <pt x="753" y="682" on="0"/>
        <pt x="789" y="682" on="0"/>
        <pt x="825" y="649" on="0"/>
        <pt x="825" y="578" on="0"/>
        <pt x="781" y="513" on="0"/>
        <pt x="744" y="492" on="1"/>
        <pt x="679" y="457" on="0"/>
        <pt x="598" y="442" on="1"/>
        <pt x="589" y="349" on="0"/>
        <pt x="510" y="171" on="0"/>
        <pt x="443" y="110" on="1"/>
        <pt x="601" y="-21" on="0"/>
        <pt x="690" y="-21" on="1"/>
        <pt x="719" y="-21" on="0"/>
        <pt x="762" y="3" on="0"/>
        <pt x="784" y="26" on="0"/>
        <pt x="788" y="26" on="1"/>
        <pt x="800" y="26" on="0"/>
        <pt x="800" y="1" on="0"/>
        <pt x="698" y="-81" on="0"/>
        <pt x="599" y="-81" on="0"/>
        <pt x="440" y="-9" on="0"/>
        <pt x="370" y="53" on="1"/>
        <pt x="271" y="-13" on="0"/>
        <pt x="174" y="-13" on="1"/>
        <pt x="36" y="-13" on="0"/>
        <pt x="36" y="117" on="1"/>
        <pt x="36" y="176" on="0"/>
        <pt x="116" y="286" on="0"/>
        <pt x="173" y="320" on="1"/>
        <pt x="139" y="397" on="0"/>
      </contour>
      <contour>
        <pt x="365" y="542" on="1"/>
        <pt x="365" y="566" on="0"/>
        <pt x="327" y="600" on="0"/>
        <pt x="250" y="600" on="0"/>
        <pt x="205" y="536" on="0"/>
        <pt x="205" y="454" on="0"/>
        <pt x="261" y="323" on="0"/>
        <pt x="364" y="181" on="0"/>
        <pt x="414" y="136" on="1"/>
        <pt x="512" y="227" on="0"/>
        <pt x="512" y="381" on="1"/>
        <pt x="512" y="405" on="0"/>
        <pt x="509" y="429" on="1"/>
        <pt x="445" y="421" on="0"/>
        <pt x="373" y="421" on="0"/>
        <pt x="321" y="423" on="1"/>
        <pt x="365" y="482" on="0"/>
      </contour>
      <contour>
        <pt x="120" y="161" on="1"/>
        <pt x="120" y="113" on="0"/>
        <pt x="180" y="48" on="0"/>
        <pt x="286" y="48" on="0"/>
        <pt x="341" y="82" on="1"/>
        <pt x="248" y="175" on="0"/>
        <pt x="188" y="288" on="1"/>
        <pt x="120" y="232" on="0"/>
      </contour>
    </TTGlyph>
    <TTGlyph name="aring" xMin="0" yMin="-15" xMax="509" yMax="706">
      <contour>
        <pt x="489" y="468" on="0"/>
        <pt x="509" y="468" on="0"/>
        <pt x="509" y="457" on="1"/>
        <pt x="509" y="450" on="0"/>
        <pt x="496" y="429" on="0"/>
        <pt x="462" y="378" on="0"/>
        <pt x="407" y="276" on="0"/>
        <pt x="337" y="100" on="0"/>
        <pt x="337" y="66" on="0"/>
        <pt x="348" y="66" on="1"/>
        <pt x="363" y="66" on="0"/>
        <pt x="458" y="158" on="0"/>
        <pt x="475" y="158" on="0"/>
        <pt x="474" y="138" on="0"/>
        <pt x="409" y="62" on="0"/>
        <pt x="310" y="-13" on="0"/>
        <pt x="275" y="-13" on="1"/>
        <pt x="260" y="-13" on="0"/>
        <pt x="241" y="4" on="0"/>
        <pt x="241" y="36" on="0"/>
        <pt x="270" y="113" on="0"/>
        <pt x="318" y="223" on="0"/>
        <pt x="325" y="241" on="1"/>
        <pt x="127" y="-15" on="0"/>
        <pt x="56" y="-15" on="1"/>
        <pt x="32" y="-15" on="0"/>
        <pt x="0" y="17" on="0"/>
        <pt x="0" y="84" on="0"/>
        <pt x="48" y="215" on="0"/>
        <pt x="125" y="351" on="0"/>
        <pt x="243" y="450" on="0"/>
        <pt x="303" y="450" on="1"/>
        <pt x="359" y="450" on="0"/>
        <pt x="396" y="417" on="1"/>
        <pt x="409" y="406" on="0"/>
        <pt x="413" y="406" on="1"/>
        <pt x="433" y="406" on="0"/>
      </contour>
      <contour>
        <pt x="358" y="367" on="0"/>
        <pt x="300" y="408" on="0"/>
        <pt x="236" y="408" on="0"/>
        <pt x="146" y="286" on="0"/>
        <pt x="87" y="139" on="0"/>
        <pt x="87" y="63" on="0"/>
        <pt x="110" y="63" on="1"/>
        <pt x="138" y="63" on="0"/>
        <pt x="331" y="280" on="0"/>
        <pt x="367" y="347" on="1"/>
      </contour>
      <contour>
        <pt x="446" y="578" on="0"/>
        <pt x="392" y="525" on="0"/>
        <pt x="314" y="525" on="0"/>
        <pt x="259" y="579" on="0"/>
        <pt x="259" y="653" on="0"/>
        <pt x="314" y="706" on="0"/>
        <pt x="389" y="706" on="0"/>
        <pt x="446" y="655" on="0"/>
      </contour>
      <contour>
        <pt x="293" y="590" on="0"/>
        <pt x="329" y="554" on="0"/>
        <pt x="378" y="554" on="0"/>
        <pt x="412" y="591" on="0"/>
        <pt x="412" y="641" on="0"/>
        <pt x="377" y="678" on="0"/>
        <pt x="326" y="678" on="0"/>
        <pt x="293" y="641" on="0"/>
      </contour>
    </TTGlyph>
    <TTGlyph name="asciicircum" xMin="88" yMin="251" xMax="532" yMax="688">
      <contour>
        <pt x="107" y="251" on="1"/>
        <pt x="98" y="251" on="0"/>
        <pt x="88" y="254" on="1"/>
        <pt x="303" y="547" on="0"/>
        <pt x="398" y="686" on="0"/>
        <pt x="407" y="688" on="1"/>
        <pt x="418" y="688" on="0"/>
        <pt x="438" y="610" on="1"/>
        <pt x="527" y="296" on="1"/>
        <pt x="532" y="286" on="0"/>
        <pt x="532" y="272" on="0"/>
        <pt x="531" y="269" on="1"/>
        <pt x="528" y="253" on="0"/>
        <pt x="484" y="251" on="1"/>
        <pt x="385" y="589" on="1"/>
        <pt x="383" y="589" on="1"/>
        <pt x="163" y="284" on="1"/>
        <pt x="135" y="251" on="0"/>
      </contour>
    </TTGlyph>
    <TTGlyph name="asciitilde" xMin="73" yMin="158" xMax="484" yMax="394">
      <contour>
        <pt x="241" y="310" on="1"/>
        <pt x="333" y="302" on="1"/>
        <pt x="426" y="302" on="0"/>
        <pt x="460" y="386" on="1"/>
        <pt x="463" y="394" on="0"/>
        <pt x="472" y="394" on="1"/>
        <pt x="484" y="394" on="0"/>
        <pt x="484" y="383" on="1"/>
        <pt x="484" y="381" on="0"/>
        <pt x="484" y="378" on="1"/>
        <pt x="471" y="320" on="0"/>
        <pt x="386" y="241" on="0"/>
        <pt x="325" y="241" on="1"/>
        <pt x="306" y="241" on="0"/>
        <pt x="242" y="253" on="0"/>
        <pt x="226" y="253" on="1"/>
        <pt x="185" y="253" on="0"/>
        <pt x="115" y="208" on="0"/>
        <pt x="98" y="166" on="1"/>
        <pt x="95" y="158" on="0"/>
        <pt x="86" y="158" on="1"/>
        <pt x="73" y="158" on="0"/>
        <pt x="73" y="171" on="1"/>
        <pt x="73" y="174" on="0"/>
        <pt x="73" y="177" on="1"/>
        <pt x="88" y="237" on="0"/>
        <pt x="179" y="310" on="0"/>
      </contour>
    </TTGlyph>
    <TTGlyph name="asterisk" xMin="84" yMin="349" xMax="489" yMax="753">
      <contour>
        <pt x="130" y="653" on="0"/>
        <pt x="150" y="671" on="0"/>
        <pt x="166" y="671" on="0"/>
        <pt x="169" y="668" on="1"/>
        <pt x="277" y="576" on="1"/>
        <pt x="307" y="738" on="1"/>
        <pt x="308" y="744" on="0"/>
        <pt x="327" y="753" on="0"/>
        <pt x="335" y="753" on="1"/>
        <pt x="350" y="753" on="0"/>
        <pt x="350" y="737" on="1"/>
        <pt x="350" y="731" on="0"/>
        <pt x="346" y="714" on="1"/>
        <pt x="320" y="620" on="0"/>
        <pt x="309" y="575" on="1"/>
        <pt x="463" y="659" on="1"/>
        <pt x="469" y="662" on="0"/>
        <pt x="473" y="662" on="1"/>
        <pt x="489" y="662" on="0"/>
        <pt x="489" y="645" on="1"/>
        <pt x="489" y="632" on="0"/>
        <pt x="474" y="625" on="1"/>
        <pt x="318" y="553" on="1"/>
        <pt x="445" y="484" on="1"/>
        <pt x="454" y="478" on="0"/>
        <pt x="454" y="458" on="0"/>
        <pt x="433" y="439" on="0"/>
        <pt x="416" y="439" on="0"/>
        <pt x="410" y="442" on="1"/>
        <pt x="298" y="529" on="1"/>
        <pt x="270" y="364" on="1"/>
        <pt x="266" y="349" on="0"/>
        <pt x="226" y="349" on="0"/>
        <pt x="226" y="363" on="1"/>
        <pt x="267" y="526" on="1"/>
        <pt x="112" y="438" on="1"/>
        <pt x="108" y="436" on="0"/>
        <pt x="102" y="436" on="1"/>
        <pt x="84" y="436" on="0"/>
        <pt x="84" y="472" on="0"/>
        <pt x="98" y="477" on="1"/>
        <pt x="259" y="551" on="1"/>
        <pt x="133" y="625" on="1"/>
        <pt x="126" y="630" on="0"/>
      </contour>
    </TTGlyph>
    <TTGlyph name="at" xMin="60" yMin="-170" xMax="959" yMax="600">
      <contour>
        <pt x="664" y="406" on="0"/>
        <pt x="699" y="442" on="0"/>
        <pt x="720" y="442" on="0"/>
        <pt x="720" y="430" on="1"/>
        <pt x="720" y="420" on="0"/>
        <pt x="715" y="413" on="1"/>
        <pt x="703" y="396" on="0"/>
        <pt x="646" y="279" on="0"/>
        <pt x="580" y="80" on="0"/>
        <pt x="580" y="61" on="1"/>
        <pt x="580" y="49" on="0"/>
        <pt x="597" y="49" on="1"/>
        <pt x="722" y="49" on="0"/>
        <pt x="894" y="239" on="0"/>
        <pt x="894" y="351" on="1"/>
        <pt x="894" y="440" on="0"/>
        <pt x="768" y="557" on="0"/>
        <pt x="535" y="557" on="0"/>
        <pt x="339" y="468" on="0"/>
        <pt x="205" y="331" on="0"/>
        <pt x="125" y="166" on="0"/>
        <pt x="125" y="91" on="1"/>
        <pt x="125" y="-8" on="0"/>
        <pt x="272" y="-131" on="0"/>
        <pt x="422" y="-131" on="1"/>
        <pt x="512" y="-131" on="0"/>
        <pt x="584" y="-106" on="1"/>
        <pt x="607" y="-98" on="0"/>
        <pt x="610" y="-98" on="1"/>
        <pt x="620" y="-98" on="0"/>
        <pt x="620" y="-108" on="1"/>
        <pt x="620" y="-124" on="0"/>
        <pt x="594" y="-133" on="1"/>
        <pt x="489" y="-170" on="0"/>
        <pt x="385" y="-170" on="1"/>
        <pt x="221" y="-170" on="0"/>
        <pt x="60" y="-39" on="0"/>
        <pt x="60" y="67" on="1"/>
        <pt x="60" y="152" on="0"/>
        <pt x="156" y="339" on="0"/>
        <pt x="316" y="497" on="0"/>
        <pt x="548" y="600" on="0"/>
        <pt x="816" y="600" on="0"/>
        <pt x="959" y="475" on="0"/>
        <pt x="959" y="289" on="0"/>
        <pt x="854" y="111" on="0"/>
        <pt x="660" y="-12" on="0"/>
        <pt x="547" y="-12" on="1"/>
        <pt x="492" y="-12" on="0"/>
        <pt x="492" y="21" on="1"/>
        <pt x="492" y="53" on="0"/>
        <pt x="548" y="194" on="1"/>
        <pt x="566" y="240" on="0"/>
        <pt x="565" y="241" on="1"/>
        <pt x="381" y="-15" on="0"/>
        <pt x="309" y="-15" on="1"/>
        <pt x="284" y="-15" on="0"/>
        <pt x="250" y="20" on="0"/>
        <pt x="250" y="82" on="0"/>
        <pt x="275" y="178" on="0"/>
        <pt x="325" y="288" on="0"/>
        <pt x="391" y="385" on="0"/>
        <pt x="483" y="450" on="0"/>
        <pt x="564" y="450" on="0"/>
        <pt x="614" y="428" on="0"/>
        <pt x="640" y="406" on="0"/>
        <pt x="644" y="406" on="1"/>
      </contour>
      <contour>
        <pt x="591" y="367" on="0"/>
        <pt x="532" y="408" on="0"/>
        <pt x="467" y="408" on="0"/>
        <pt x="385" y="290" on="0"/>
        <pt x="334" y="145" on="0"/>
        <pt x="334" y="63" on="0"/>
        <pt x="359" y="63" on="1"/>
        <pt x="387" y="63" on="0"/>
        <pt x="569" y="280" on="0"/>
        <pt x="601" y="347" on="1"/>
      </contour>
    </TTGlyph>
    <TTGlyph name="atilde" xMin="0" yMin="-15" xMax="554" yMax="739">
      <contour>
        <pt x="489" y="468" on="0"/>
        <pt x="509" y="468" on="0"/>
        <pt x="509" y="457" on="1"/>
        <pt x="509" y="450" on="0"/>
        <pt x="496" y="429" on="0"/>
        <pt x="462" y="378" on="0"/>
        <pt x="407" y="276" on="0"/>
        <pt x="337" y="100" on="0"/>
        <pt x="337" y="66" on="0"/>
        <pt x="348" y="66" on="1"/>
        <pt x="363" y="66" on="0"/>
        <pt x="458" y="158" on="0"/>
        <pt x="475" y="158" on="0"/>
        <pt x="474" y="138" on="0"/>
        <pt x="409" y="62" on="0"/>
        <pt x="310" y="-13" on="0"/>
        <pt x="275" y="-13" on="1"/>
        <pt x="260" y="-13" on="0"/>
        <pt x="241" y="4" on="0"/>
        <pt x="241" y="36" on="0"/>
        <pt x="270" y="113" on="0"/>
        <pt x="318" y="223" on="0"/>
        <pt x="325" y="241" on="1"/>
        <pt x="127" y="-15" on="0"/>
        <pt x="56" y="-15" on="1"/>
        <pt x="32" y="-15" on="0"/>
        <pt x="0" y="17" on="0"/>
        <pt x="0" y="84" on="0"/>
        <pt x="48" y="215" on="0"/>
        <pt x="125" y="351" on="0"/>
        <pt x="243" y="450" on="0"/>
        <pt x="303" y="450" on="1"/>
        <pt x="359" y="450" on="0"/>
        <pt x="396" y="417" on="1"/>
        <pt x="409" y="406" on="0"/>
        <pt x="413" y="406" on="1"/>
        <pt x="433" y="406" on="0"/>
      </contour>
      <contour>
        <pt x="358" y="367" on="0"/>
        <pt x="300" y="408" on="0"/>
        <pt x="236" y="408" on="0"/>
        <pt x="146" y="286" on="0"/>
        <pt x="87" y="139" on="0"/>
        <pt x="87" y="63" on="0"/>
        <pt x="110" y="63" on="1"/>
        <pt x="138" y="63" on="0"/>
        <pt x="331" y="280" on="0"/>
        <pt x="367" y="347" on="1"/>
      </contour>
      <contour>
        <pt x="195" y="526" on="1"/>
        <pt x="182" y="526" on="0"/>
        <pt x="182" y="539" on="1"/>
        <pt x="182" y="542" on="0"/>
        <pt x="182" y="545" on="1"/>
        <pt x="199" y="612" on="0"/>
        <pt x="277" y="674" on="0"/>
        <pt x="336" y="674" on="0"/>
        <pt x="402" y="661" on="0"/>
        <pt x="447" y="661" on="0"/>
        <pt x="479" y="667" on="0"/>
        <pt x="517" y="700" on="0"/>
        <pt x="529" y="731" on="1"/>
        <pt x="532" y="739" on="0"/>
        <pt x="554" y="739" on="0"/>
        <pt x="554" y="729" on="1"/>
        <pt x="554" y="725" on="0"/>
        <pt x="553" y="721" on="1"/>
        <pt x="535" y="651" on="0"/>
        <pt x="461" y="590" on="0"/>
        <pt x="421" y="590" on="1"/>
        <pt x="401" y="590" on="0"/>
        <pt x="335" y="603" on="0"/>
        <pt x="278" y="603" on="0"/>
        <pt x="224" y="576" on="0"/>
        <pt x="207" y="534" on="1"/>
        <pt x="204" y="526" on="0"/>
      </contour>
    </TTGlyph>
    <TTGlyph name="b" xMin="27" yMin="-13" xMax="465" yMax="735">
      <contour>
        <pt x="37" y="63" on="1"/>
        <pt x="27" y="75" on="0"/>
        <pt x="27" y="102" on="0"/>
        <pt x="55" y="168" on="0"/>
        <pt x="96" y="287" on="0"/>
        <pt x="132" y="392" on="0"/>
        <pt x="178" y="513" on="0"/>
        <pt x="231" y="609" on="0"/>
        <pt x="263" y="650" on="1"/>
        <pt x="331" y="735" on="0"/>
        <pt x="424" y="735" on="1"/>
        <pt x="463" y="735" on="0"/>
        <pt x="465" y="708" on="1"/>
        <pt x="465" y="696" on="0"/>
        <pt x="444" y="676" on="0"/>
        <pt x="425" y="672" on="1"/>
        <pt x="405" y="683" on="0"/>
        <pt x="387" y="683" on="1"/>
        <pt x="338" y="683" on="0"/>
        <pt x="185" y="378" on="0"/>
        <pt x="141" y="202" on="1"/>
        <pt x="313" y="452" on="0"/>
        <pt x="385" y="452" on="1"/>
        <pt x="410" y="452" on="0"/>
        <pt x="446" y="415" on="0"/>
        <pt x="446" y="349" on="0"/>
        <pt x="423" y="254" on="0"/>
        <pt x="377" y="145" on="0"/>
        <pt x="315" y="50" on="0"/>
        <pt x="226" y="-13" on="0"/>
        <pt x="178" y="-13" on="1"/>
        <pt x="104" y="-13" on="0"/>
      </contour>
      <contour>
        <pt x="116" y="70" on="0"/>
        <pt x="177" y="29" on="0"/>
        <pt x="240" y="29" on="0"/>
        <pt x="317" y="144" on="0"/>
        <pt x="364" y="285" on="0"/>
        <pt x="364" y="374" on="0"/>
        <pt x="309" y="374" on="0"/>
        <pt x="135" y="157" on="0"/>
        <pt x="105" y="90" on="1"/>
      </contour>
    </TTGlyph>
    <TTGlyph name="backslash" xMin="1" yMin="-137" xMax="336" yMax="766">
      <contour>
        <pt x="1" y="749" on="1"/>
        <pt x="18" y="766" on="0"/>
        <pt x="46" y="766" on="0"/>
        <pt x="54" y="746" on="1"/>
        <pt x="336" y="-120" on="1"/>
        <pt x="315" y="-137" on="0"/>
        <pt x="288" y="-137" on="0"/>
        <pt x="281" y="-113" on="1"/>
      </contour>
    </TTGlyph>
    <TTGlyph name="bar" xMin="48" yMin="-151" xMax="282" yMax="753">
      <contour>
        <pt x="63" y="-151" on="1"/>
        <pt x="57" y="-151" on="0"/>
        <pt x="48" y="-147" on="1"/>
        <pt x="233" y="721" on="1"/>
        <pt x="239" y="753" on="0"/>
        <pt x="267" y="753" on="1"/>
        <pt x="282" y="749" on="1"/>
        <pt x="94" y="-121" on="1"/>
        <pt x="87" y="-151" on="0"/>
      </contour>
    </TTGlyph>
    <TTGlyph name="braceleft" xMin="38" yMin="-407" xMax="626" yMax="896">
      <contour>
        <pt x="246" y="157" on="1"/>
        <pt x="246" y="90" on="0"/>
        <pt x="165" y="-172" on="0"/>
        <pt x="165" y="-297" on="0"/>
        <pt x="241" y="-355" on="0"/>
        <pt x="339" y="-355" on="1"/>
        <pt x="359" y="-355" on="0"/>
        <pt x="359" y="-373" on="1"/>
        <pt x="359" y="-383" on="0"/>
        <pt x="351" y="-407" on="0"/>
        <pt x="343" y="-407" on="1"/>
        <pt x="217" y="-407" on="0"/>
        <pt x="102" y="-301" on="0"/>
        <pt x="102" y="-214" on="1"/>
        <pt x="102" y="-153" on="0"/>
        <pt x="174" y="89" on="0"/>
        <pt x="174" y="155" on="1"/>
        <pt x="174" y="242" on="0"/>
        <pt x="77" y="242" on="1"/>
        <pt x="48" y="240" on="1"/>
        <pt x="38" y="240" on="0"/>
        <pt x="38" y="267" on="0"/>
        <pt x="49" y="294" on="0"/>
        <pt x="59" y="295" on="1"/>
        <pt x="75" y="293" on="0"/>
        <pt x="88" y="293" on="1"/>
        <pt x="150" y="293" on="0"/>
        <pt x="222" y="360" on="0"/>
        <pt x="252" y="466" on="0"/>
        <pt x="271" y="594" on="0"/>
        <pt x="307" y="723" on="0"/>
        <pt x="372" y="829" on="0"/>
        <pt x="514" y="896" on="0"/>
        <pt x="620" y="896" on="1"/>
        <pt x="626" y="896" on="0"/>
        <pt x="626" y="867" on="0"/>
        <pt x="610" y="844" on="0"/>
        <pt x="594" y="844" on="1"/>
        <pt x="460" y="844" on="0"/>
        <pt x="404" y="780" on="1"/>
        <pt x="356" y="726" on="0"/>
        <pt x="341" y="631" on="1"/>
        <pt x="334" y="587" on="0"/>
        <pt x="323" y="498" on="0"/>
        <pt x="303" y="411" on="0"/>
        <pt x="267" y="339" on="0"/>
        <pt x="195" y="283" on="0"/>
        <pt x="142" y="270" on="1"/>
        <pt x="141" y="265" on="1"/>
        <pt x="246" y="261" on="0"/>
      </contour>
    </TTGlyph>
    <TTGlyph name="braceright" xMin="-188" yMin="-407" xMax="408" yMax="896">
      <contour>
        <pt x="306" y="270" on="1"/>
        <pt x="200" y="274" on="0"/>
        <pt x="200" y="384" on="1"/>
        <pt x="200" y="438" on="0"/>
        <pt x="272" y="668" on="0"/>
        <pt x="272" y="786" on="0"/>
        <pt x="196" y="844" on="0"/>
        <pt x="98" y="844" on="1"/>
        <pt x="78" y="844" on="0"/>
        <pt x="78" y="862" on="1"/>
        <pt x="78" y="872" on="0"/>
        <pt x="86" y="896" on="0"/>
        <pt x="94" y="896" on="1"/>
        <pt x="220" y="896" on="0"/>
        <pt x="335" y="790" on="0"/>
        <pt x="335" y="703" on="1"/>
        <pt x="335" y="648" on="0"/>
        <pt x="273" y="436" on="0"/>
        <pt x="273" y="380" on="1"/>
        <pt x="273" y="293" on="0"/>
        <pt x="370" y="293" on="1"/>
        <pt x="399" y="295" on="1"/>
        <pt x="408" y="295" on="0"/>
        <pt x="408" y="243" on="0"/>
        <pt x="388" y="240" on="1"/>
        <pt x="372" y="242" on="0"/>
        <pt x="359" y="242" on="1"/>
        <pt x="288" y="242" on="0"/>
        <pt x="221" y="163" on="0"/>
        <pt x="205" y="88" on="1"/>
        <pt x="200" y="64" on="0"/>
        <pt x="167" y="-120" on="0"/>
        <pt x="162" y="-146" on="1"/>
        <pt x="138" y="-258" on="0"/>
        <pt x="-33" y="-407" on="0"/>
        <pt x="-182" y="-407" on="1"/>
        <pt x="-188" y="-407" on="0"/>
        <pt x="-188" y="-378" on="0"/>
        <pt x="-172" y="-355" on="0"/>
        <pt x="-156" y="-355" on="1"/>
        <pt x="-57" y="-355" on="0"/>
        <pt x="-9" y="-326" on="1"/>
        <pt x="16" y="-311" on="0"/>
        <pt x="50" y="-279" on="0"/>
        <pt x="62" y="-252" on="1"/>
        <pt x="80" y="-207" on="0"/>
        <pt x="98" y="-117" on="0"/>
        <pt x="133" y="82" on="0"/>
        <pt x="138" y="107" on="1"/>
        <pt x="152" y="174" on="0"/>
        <pt x="235" y="262" on="0"/>
        <pt x="305" y="265" on="1"/>
      </contour>
    </TTGlyph>
    <TTGlyph name="bracketleft" xMin="-2" yMin="-397" xMax="645" yMax="886">
      <contour>
        <pt x="365" y="-397" on="1"/>
        <pt x="-2" y="-397" on="1"/>
        <pt x="270" y="886" on="1"/>
        <pt x="638" y="886" on="1"/>
        <pt x="645" y="886" on="0"/>
        <pt x="645" y="870" on="0"/>
        <pt x="644" y="864" on="1"/>
        <pt x="638" y="840" on="0"/>
        <pt x="628" y="840" on="1"/>
        <pt x="334" y="840" on="1"/>
        <pt x="81" y="-352" on="1"/>
        <pt x="375" y="-352" on="1"/>
        <pt x="385" y="-352" on="0"/>
        <pt x="381" y="-375" on="1"/>
        <pt x="375" y="-397" on="0"/>
      </contour>
    </TTGlyph>
    <TTGlyph name="bracketright" xMin="-130" yMin="-397" xMax="518" yMax="886">
      <contour>
        <pt x="-122" y="-397" on="1"/>
        <pt x="-130" y="-397" on="0"/>
        <pt x="-130" y="-387" on="1"/>
        <pt x="-130" y="-382" on="0"/>
        <pt x="-128" y="-375" on="1"/>
        <pt x="-124" y="-352" on="0"/>
        <pt x="-112" y="-352" on="1"/>
        <pt x="181" y="-352" on="1"/>
        <pt x="434" y="840" on="1"/>
        <pt x="140" y="840" on="1"/>
        <pt x="128" y="840" on="0"/>
        <pt x="138" y="886" on="0"/>
        <pt x="150" y="886" on="1"/>
        <pt x="518" y="886" on="1"/>
        <pt x="245" y="-397" on="1"/>
      </contour>
    </TTGlyph>
    <TTGlyph name="breve" xMin="8" yMin="531" xMax="286" yMax="666">
      <contour>
        <pt x="286" y="610" on="0"/>
        <pt x="181" y="531" on="0"/>
        <pt x="71" y="531" on="0"/>
        <pt x="8" y="587" on="0"/>
        <pt x="8" y="666" on="0"/>
        <pt x="24" y="666" on="1"/>
        <pt x="36" y="666" on="0"/>
        <pt x="36" y="656" on="1"/>
        <pt x="39" y="622" on="0"/>
        <pt x="95" y="590" on="0"/>
        <pt x="173" y="590" on="0"/>
        <pt x="243" y="622" on="0"/>
        <pt x="260" y="656" on="1"/>
        <pt x="266" y="666" on="0"/>
        <pt x="286" y="666" on="0"/>
        <pt x="286" y="656" on="1"/>
      </contour>
    </TTGlyph>
    <TTGlyph name="brokenbar" xMin="36" yMin="-151" xMax="270" yMax="753">
      <contour>
        <pt x="51" y="-151" on="1"/>
        <pt x="45" y="-151" on="0"/>
        <pt x="36" y="-147" on="1"/>
        <pt x="111" y="210" on="1"/>
        <pt x="114" y="222" on="0"/>
        <pt x="137" y="233" on="0"/>
        <pt x="147" y="232" on="1"/>
        <pt x="157" y="232" on="1"/>
        <pt x="82" y="-121" on="1"/>
        <pt x="75" y="-151" on="0"/>
      </contour>
      <contour>
        <pt x="190" y="384" on="1"/>
        <pt x="188" y="374" on="0"/>
        <pt x="168" y="367" on="0"/>
        <pt x="158" y="367" on="0"/>
        <pt x="156" y="367" on="1"/>
        <pt x="146" y="368" on="1"/>
        <pt x="221" y="721" on="1"/>
        <pt x="227" y="753" on="0"/>
        <pt x="255" y="753" on="1"/>
        <pt x="270" y="749" on="1"/>
      </contour>
    </TTGlyph>
    <TTGlyph name="bullet" xMin="80" yMin="225" xMax="326" yMax="468">
      <contour>
        <pt x="326" y="296" on="0"/>
        <pt x="253" y="225" on="0"/>
        <pt x="152" y="225" on="0"/>
        <pt x="80" y="297" on="0"/>
        <pt x="80" y="397" on="0"/>
        <pt x="154" y="468" on="0"/>
        <pt x="254" y="468" on="0"/>
        <pt x="326" y="397" on="0"/>
      </contour>
    </TTGlyph>
    <TTGlyph name="c" xMin="7" yMin="-15" xMax="378" yMax="450">
      <contour>
        <pt x="241" y="152" on="1"/>
        <pt x="252" y="152" on="0"/>
        <pt x="252" y="130" on="0"/>
        <pt x="198" y="57" on="0"/>
        <pt x="107" y="-15" on="0"/>
        <pt x="68" y="-15" on="1"/>
        <pt x="44" y="-15" on="0"/>
        <pt x="7" y="27" on="0"/>
        <pt x="7" y="100" on="0"/>
        <pt x="45" y="225" on="0"/>
        <pt x="112" y="356" on="0"/>
        <pt x="222" y="450" on="0"/>
        <pt x="283" y="450" on="1"/>
        <pt x="378" y="450" on="0"/>
        <pt x="378" y="395" on="1"/>
        <pt x="378" y="379" on="0"/>
        <pt x="346" y="355" on="0"/>
        <pt x="323" y="354" on="1"/>
        <pt x="298" y="408" on="0"/>
        <pt x="252" y="408" on="1"/>
        <pt x="216" y="408" on="0"/>
        <pt x="138" y="295" on="0"/>
        <pt x="91" y="154" on="0"/>
        <pt x="91" y="122" on="1"/>
        <pt x="91" y="63" on="0"/>
        <pt x="142" y="63" on="0"/>
        <pt x="197" y="108" on="0"/>
        <pt x="236" y="152" on="0"/>
      </contour>
    </TTGlyph>
    <TTGlyph name="caron" xMin="-7" yMin="506" xMax="239" yMax="665">
      <contour>
        <pt x="212" y="657" on="1"/>
        <pt x="221" y="665" on="0"/>
        <pt x="237" y="665" on="0"/>
        <pt x="239" y="657" on="1"/>
        <pt x="115" y="519" on="1"/>
        <pt x="102" y="506" on="0"/>
        <pt x="75" y="506" on="0"/>
        <pt x="65" y="519" on="1"/>
        <pt x="-7" y="657" on="1"/>
        <pt x="-2" y="664" on="0"/>
        <pt x="15" y="664" on="0"/>
        <pt x="21" y="657" on="1"/>
        <pt x="101" y="573" on="1"/>
      </contour>
    </TTGlyph>
    <TTGlyph name="ccedilla" xMin="-25" yMin="-172" xMax="378" yMax="450">
      <contour>
        <pt x="241" y="152" on="1"/>
        <pt x="236" y="152" on="0"/>
        <pt x="197" y="108" on="0"/>
        <pt x="142" y="63" on="0"/>
        <pt x="91" y="63" on="0"/>
        <pt x="91" y="122" on="1"/>
        <pt x="91" y="154" on="0"/>
        <pt x="138" y="295" on="0"/>
        <pt x="216" y="408" on="0"/>
        <pt x="252" y="408" on="1"/>
        <pt x="298" y="408" on="0"/>
        <pt x="323" y="354" on="1"/>
        <pt x="346" y="355" on="0"/>
        <pt x="378" y="379" on="0"/>
        <pt x="378" y="395" on="1"/>
        <pt x="378" y="450" on="0"/>
        <pt x="283" y="450" on="1"/>
        <pt x="222" y="450" on="0"/>
        <pt x="112" y="356" on="0"/>
        <pt x="45" y="225" on="0"/>
        <pt x="7" y="100" on="0"/>
        <pt x="7" y="27" on="0"/>
        <pt x="44" y="-15" on="0"/>
        <pt x="68" y="-15" on="1"/>
        <pt x="107" y="-15" on="0"/>
        <pt x="198" y="57" on="0"/>
        <pt x="252" y="130" on="0"/>
        <pt x="252" y="152" on="0"/>
      </contour>
      <contour>
        <pt x="65" y="-50" on="1"/>
        <pt x="97" y="-50" on="0"/>
        <pt x="140" y="-76" on="0"/>
        <pt x="140" y="-98" on="1"/>
        <pt x="140" y="-135" on="0"/>
        <pt x="79" y="-172" on="0"/>
        <pt x="22" y="-172" on="0"/>
        <pt x="-25" y="-146" on="0"/>
        <pt x="-25" y="-128" on="1"/>
        <pt x="-25" y="-125" on="0"/>
        <pt x="-24" y="-121" on="1"/>
        <pt x="-19" y="-101" on="0"/>
        <pt x="17" y="-101" on="0"/>
        <pt x="20" y="-115" on="1"/>
        <pt x="4" y="-131" on="0"/>
        <pt x="22" y="-143" on="1"/>
        <pt x="33" y="-150" on="0"/>
        <pt x="46" y="-150" on="1"/>
        <pt x="86" y="-150" on="0"/>
        <pt x="94" y="-114" on="1"/>
        <pt x="95" y="-108" on="0"/>
        <pt x="95" y="-89" on="0"/>
        <pt x="68" y="-71" on="0"/>
        <pt x="39" y="-71" on="0"/>
        <pt x="23" y="-72" on="0"/>
        <pt x="19" y="-72" on="1"/>
        <pt x="62" y="0" on="1"/>
        <pt x="90" y="0" on="1"/>
        <pt x="61" y="-50" on="1"/>
        <pt x="63" y="-50" on="0"/>
      </contour>
    </TTGlyph>
    <TTGlyph name="cedilla" xMin="23" yMin="-172" xMax="188" yMax="0">
      <contour>
        <pt x="113" y="-50" on="1"/>
        <pt x="145" y="-50" on="0"/>
        <pt x="188" y="-76" on="0"/>
        <pt x="188" y="-98" on="1"/>
        <pt x="188" y="-135" on="0"/>
        <pt x="127" y="-172" on="0"/>
        <pt x="70" y="-172" on="0"/>
        <pt x="23" y="-146" on="0"/>
        <pt x="23" y="-128" on="1"/>
        <pt x="23" y="-125" on="0"/>
        <pt x="24" y="-121" on="1"/>
        <pt x="29" y="-101" on="0"/>
        <pt x="65" y="-101" on="0"/>
        <pt x="68" y="-115" on="1"/>
        <pt x="52" y="-131" on="0"/>
        <pt x="70" y="-143" on="1"/>
        <pt x="81" y="-150" on="0"/>
        <pt x="94" y="-150" on="1"/>
        <pt x="134" y="-150" on="0"/>
        <pt x="142" y="-114" on="1"/>
        <pt x="143" y="-108" on="0"/>
        <pt x="143" y="-89" on="0"/>
        <pt x="116" y="-71" on="0"/>
        <pt x="87" y="-71" on="0"/>
        <pt x="71" y="-72" on="0"/>
        <pt x="67" y="-72" on="1"/>
        <pt x="110" y="0" on="1"/>
        <pt x="138" y="0" on="1"/>
        <pt x="109" y="-50" on="1"/>
        <pt x="111" y="-50" on="0"/>
      </contour>
    </TTGlyph>
    <TTGlyph name="cent" xMin="31" yMin="-24" xMax="402" yMax="727">
      <contour>
        <pt x="265" y="282" on="1"/>
        <pt x="276" y="282" on="0"/>
        <pt x="276" y="254" on="0"/>
        <pt x="178" y="142" on="0"/>
        <pt x="129" y="123" on="1"/>
        <pt x="90" y="13" on="0"/>
        <pt x="83" y="-1" on="1"/>
        <pt x="75" y="-24" on="0"/>
        <pt x="53" y="-24" on="1"/>
        <pt x="45" y="-24" on="0"/>
        <pt x="37" y="-20" on="1"/>
        <pt x="85" y="115" on="1"/>
        <pt x="63" y="118" on="0"/>
        <pt x="31" y="159" on="0"/>
        <pt x="31" y="224" on="0"/>
        <pt x="60" y="330" on="0"/>
        <pt x="112" y="445" on="0"/>
        <pt x="196" y="547" on="0"/>
        <pt x="244" y="567" on="1"/>
        <pt x="292" y="700" on="1"/>
        <pt x="302" y="727" on="0"/>
        <pt x="322" y="727" on="1"/>
        <pt x="331" y="727" on="0"/>
        <pt x="345" y="720" on="1"/>
        <pt x="323" y="661" on="0"/>
        <pt x="294" y="579" on="1"/>
        <pt x="300" y="580" on="0"/>
        <pt x="307" y="580" on="1"/>
        <pt x="402" y="580" on="0"/>
        <pt x="402" y="525" on="1"/>
        <pt x="402" y="509" on="0"/>
        <pt x="370" y="485" on="0"/>
        <pt x="347" y="484" on="1"/>
        <pt x="322" y="538" on="0"/>
        <pt x="276" y="538" on="1"/>
        <pt x="240" y="538" on="0"/>
        <pt x="162" y="425" on="0"/>
        <pt x="115" y="284" on="0"/>
        <pt x="115" y="252" on="1"/>
        <pt x="115" y="193" on="0"/>
        <pt x="166" y="193" on="0"/>
        <pt x="221" y="238" on="0"/>
        <pt x="260" y="282" on="0"/>
      </contour>
    </TTGlyph>
</ttFont>
